<svg id="Certainteed_Logo_4C" data-name="Certainteed Logo_4C" xmlns="http://www.w3.org/2000/svg" xmlns:xlink="http://www.w3.org/1999/xlink" width="149" height="35.375" viewBox="0 0 149 35.375">
  <defs>
    <clipPath id="clip-path">
      <path id="Clip_2" data-name="Clip 2" d="M0,0H75V23H0Z" fill="none"/>
    </clipPath>
  </defs>
  <g id="Group_4" data-name="Group 4">
    <path id="Clip_2-2" data-name="Clip 2" d="M0,0H75V23H0Z" fill="none"/>
    <g id="Group_4-2" data-name="Group 4" clip-path="url(#clip-path)">
      <path id="Fill_1" data-name="Fill 1" d="M0,3.738H4.356V0H0Z" transform="translate(70.644 0.908)" fill="#0070ad"/>
      <path id="Fill_3" data-name="Fill 3" d="M19.745,7.415A7.845,7.845,0,0,0,15.288.969,12.2,12.2,0,0,0,6.051.848C-1.858,4.386-1.965,17.52,5.443,21.635a10.331,10.331,0,0,0,11.223-.605,8.093,8.093,0,0,0,3.241-5.881l-4.375-.121a4.624,4.624,0,0,1-1.742,3.021,5.08,5.08,0,0,1-6.6-.4C4.3,15.128,3.625,7.9,7.225,4.917a5.393,5.393,0,0,1,6.118-.484A4.549,4.549,0,0,1,15.37,7.494l4.375-.079" transform="translate(0 0)" fill="#0070ad"/>
    </g>
  </g>
  <path id="Fill_5" data-name="Fill 5" d="M8.086,17A7.578,7.578,0,0,1,1.4,13.409,9.24,9.24,0,0,1,2.6,2.082,7.408,7.408,0,0,1,7.831,0a7.916,7.916,0,0,1,5.441,2.163C15.159,3.9,16,6.259,16,9.811H4.423a3.864,3.864,0,0,0,1.654,3.027,3.786,3.786,0,0,0,2.039.566,3.526,3.526,0,0,0,3.337-2.079l4.465.368A7.66,7.66,0,0,1,11.7,16.314,9.845,9.845,0,0,1,8.086,17ZM7.9,3.568A3.447,3.447,0,0,0,6.077,4,3.536,3.536,0,0,0,4.588,6.457H11.37A3.685,3.685,0,0,0,9.591,3.922,3.637,3.637,0,0,0,7.9,3.568Z" transform="translate(20 6)" fill="#0070ad"/>
  <path id="Fill_6" data-name="Fill 6" d="M8.086,17A7.575,7.575,0,0,1,1.4,13.409,9.237,9.237,0,0,1,2.6,2.082,7.408,7.408,0,0,1,7.831,0a7.916,7.916,0,0,1,5.441,2.163C15.159,3.9,16,6.261,16,9.811H4.423a3.86,3.86,0,0,0,1.653,3.027,3.783,3.783,0,0,0,2.038.566,3.524,3.524,0,0,0,3.337-2.079l4.466.368A7.669,7.669,0,0,1,11.7,16.314,9.846,9.846,0,0,1,8.086,17ZM7.9,3.568A3.45,3.45,0,0,0,6.077,4,3.537,3.537,0,0,0,4.587,6.457H11.37A3.686,3.686,0,0,0,9.59,3.922,3.631,3.631,0,0,0,7.9,3.568Z" transform="translate(99 6)" fill="#0070ad"/>
  <path id="Fill_7" data-name="Fill 7" d="M8.087,17A7.575,7.575,0,0,1,1.4,13.409,9.237,9.237,0,0,1,2.6,2.082,7.41,7.41,0,0,1,7.831,0a7.915,7.915,0,0,1,5.44,2.163C15.159,3.9,16,6.26,16,9.811H4.423a3.862,3.862,0,0,0,1.655,3.027,3.783,3.783,0,0,0,2.038.566,3.525,3.525,0,0,0,3.337-2.079l4.465.368A7.654,7.654,0,0,1,11.7,16.314,9.841,9.841,0,0,1,8.087,17ZM7.9,3.568A3.443,3.443,0,0,0,6.078,4a3.53,3.53,0,0,0-1.49,2.453h6.781A3.685,3.685,0,0,0,9.59,3.922,3.632,3.632,0,0,0,7.9,3.568Z" transform="translate(115 6)" fill="#0070ad"/>
  <path id="Fill_8" data-name="Fill 8" d="M0,16V.442H4.275c.019.4.081,1.106.122,1.367.078.5.168.409.308.081A3.364,3.364,0,0,1,7.726,0C8.014,0,8.342.06,9,.06V3.839H8.034A2.916,2.916,0,0,0,5.9,4.624C4.541,5.8,4.418,7.163,4.418,9.448V16H0" transform="translate(37 6)" fill="#0070ad"/>
  <path id="Fill_9" data-name="Fill 9" d="M0,16.107V0H4.164V4.915H6.923v3.2H4.164v7.856c0,1.413.629,1.579,1,1.579H7V21H3.766C.868,21,0,19.062,0,16.107" transform="translate(47 1)" fill="#0070ad"/>
  <path id="Fill_10" data-name="Fill 10" d="M5.979,17h0a7.417,7.417,0,0,1-3.343-.693A4.784,4.784,0,0,1,.071,12.915,4.513,4.513,0,0,1,1.15,9.1C2.618,7.449,4.8,7.091,6.9,6.744c.632-.1,1.286-.211,1.913-.352.785-.176,1.267-.583,1.357-1.147A1.533,1.533,0,0,0,9.46,3.767a4.091,4.091,0,0,0-2.023-.49,3.634,3.634,0,0,0-1.369.239A2.015,2.015,0,0,0,4.7,5.6H1.03C1.03,2.906,2.4.944,4.683.351A11.608,11.608,0,0,1,7.551,0a9.127,9.127,0,0,1,3.313.559,4.809,4.809,0,0,1,2.88,2.579,10.369,10.369,0,0,1,.571,4v7.8A2.534,2.534,0,0,0,15,16.764H10.745a5.464,5.464,0,0,1-.421-1.436c-.006-.092-.05-.147-.119-.147a.212.212,0,0,0-.163.1,3.915,3.915,0,0,1-2.79,1.625A8.749,8.749,0,0,1,5.979,17Zm4.142-8.332a.559.559,0,0,0-.259.1,4.36,4.36,0,0,1-.5.2c-.148.054-.3.109-.4.153-.235.1-1.81.525-2.247.6-1.4.253-2.316.919-2.5,1.827a1.876,1.876,0,0,0,.838,1.9,3.074,3.074,0,0,0,1.6.354,5.6,5.6,0,0,0,1.695-.25c.8-.276,1.775-1.016,1.927-2.979V8.892a.325.325,0,0,0-.033-.164A.119.119,0,0,0,10.122,8.669Z" transform="translate(55 6)" fill="#0070ad"/>
  <path id="Fill_11" data-name="Fill 11" d="M0,16H4V0H0Z" transform="translate(71 6)" fill="#0070ad"/>
  <path id="Fill_12" data-name="Fill 12" d="M14,5.891V16H9.656V7.791c0-.819.067-2.493-.788-3.353a2.926,2.926,0,0,0-3.332-.051c-1.275,1.1-1.193,2.776-1.193,4.989V16H0V.272H4.2c.02.407.1,1.056.141,1.321s.1.384.284.143A4.687,4.687,0,0,1,6.564.293,6.42,6.42,0,0,1,11.453.73,5.682,5.682,0,0,1,14,5.891" transform="translate(77 6)" fill="#0070ad"/>
  <path id="Fill_13" data-name="Fill 13" d="M11.449,3.786V21H6.7V3.786H0V0H18V3.786H11.449" transform="translate(86 1)" fill="#0070ad"/>
  <path id="Fill_14" data-name="Fill 14" d="M6.873,22a5.911,5.911,0,0,1-3.264-.919,8.244,8.244,0,0,1-3.57-6.362,9.8,9.8,0,0,1,2.6-7.761A6.667,6.667,0,0,1,7.207,5.214a4.763,4.763,0,0,1,3.533,1.257c.1.118.2.223.29.316a1.928,1.928,0,0,1,.242.281c.073.133.16.215.228.215s.1-.071.1-.195V0H16V21.535H11.7a7.061,7.061,0,0,0-.153-1.235c-.021-.08-.071-.1-.109-.1a.22.22,0,0,0-.145.068A6.9,6.9,0,0,1,9,21.67,7.209,7.209,0,0,1,6.873,22ZM8.081,8.834A3.478,3.478,0,0,0,5.686,9.839,5.254,5.254,0,0,0,4.5,13.5a5.362,5.362,0,0,0,1.35,3.882,3.063,3.063,0,0,0,2.134.826,3.383,3.383,0,0,0,2.225-.826,5.318,5.318,0,0,0,1.371-3.727,5.245,5.245,0,0,0-1.146-3.815A3.344,3.344,0,0,0,8.081,8.834Z" transform="translate(132 1)" fill="#0070ad"/>
  <path id="Fill_15" data-name="Fill 15" d="M1.5.981H0V0H4V.981H2.5V6h-1V.981" transform="translate(111 25)" fill="#545554"/>
  <path id="Fill_16" data-name="Fill 16" d="M0,1H2V0H0Z" transform="translate(114 28)" fill="#545554"/>
  <path id="Fill_17" data-name="Fill 17" d="M2.33,2.946H6V3.07A3,3,0,1,1,2.994,0,2.947,2.947,0,0,1,5.719,1.808H4.474A1.776,1.776,0,0,0,2.967,1,1.962,1.962,0,0,0,1.041,3.007,1.966,1.966,0,0,0,3.024,5a1.814,1.814,0,0,0,1.67-1.122H2.33V2.946" transform="translate(117 25)" fill="#545554"/>
  <path id="Fill_18" data-name="Fill 18" d="M1.8,6H0V0H1.4A2.429,2.429,0,0,1,3.168.46a1.6,1.6,0,0,1,.488,1.121,1.227,1.227,0,0,1-.642,1.143A1.45,1.45,0,0,1,4,4.214a1.721,1.721,0,0,1-.714,1.431A2.681,2.681,0,0,1,1.8,6ZM1.064,3.255V4.962h.8c.489,0,1.012-.206,1.012-.785a.861.861,0,0,0-.988-.922Zm0-2.274V2.273h.612c.25,0,.915,0,.915-.646,0-.416-.292-.645-.821-.645Z" transform="translate(131 25)" fill="#545554"/>
  <path id="Fill_19" data-name="Fill 19" d="M0,6H1V0H0Z" transform="translate(141 25)" fill="#545554"/>
  <path id="Fill_20" data-name="Fill 20" d="M3,6A3,3,0,1,1,6,3,3,3,0,0,1,3,6ZM3,1A2,2,0,1,0,5,3,2,2,0,0,0,3,1Z" transform="translate(124 25)" fill="#545554"/>
  <path id="Fill_21" data-name="Fill 21" d="M1.181,6H0L2.551,0h.882L6,6H4.813L4.19,4.481H1.809L1.182,6Zm1.8-4.437-.8,1.945H3.8L2.993,1.564H2.977Z" transform="translate(135 25)" fill="#545554"/>
  <path id="Fill_22" data-name="Fill 22" d="M0,0H1.168L3.856,3.919V0H5V6H3.918L1.15,1.851V6H0V0" transform="translate(143 25)" fill="#545554"/>
  <path id="Fill_23" data-name="Fill 23" d="M1.079,4.232A.9.9,0,0,0,2.011,5c.429,0,.9-.292.9-.728,0-.587-.48-.744-1.213-1.018-.45-.17-1.488-.4-1.488-1.612A1.736,1.736,0,0,1,2.024,0a1.79,1.79,0,0,1,1.83,1.645H2.777A.721.721,0,0,0,1.993,1a.661.661,0,0,0-.7.581c0,.5.475.655,1.072.851C2.851,2.585,4,2.906,4,4.159A1.883,1.883,0,0,1,2,6,1.945,1.945,0,0,1,0,4.232H1.079" transform="translate(93 25)" fill="#545554"/>
  <path id="Fill_24" data-name="Fill 24" d="M0,6H1V0H0Z" transform="translate(103 25)" fill="#545554"/>
  <path id="Fill_25" data-name="Fill 25" d="M1.183,6H0L2.55,0h.883L6,6H4.813L4.19,4.481H1.81L1.184,6ZM2.978,1.563l-.8,1.946H3.8L2.993,1.563H2.978Z" transform="translate(97 25)" fill="#545554"/>
  <path id="Fill_26" data-name="Fill 26" d="M0,0H1.167l2.69,3.918V0H5V6H3.92L1.152,1.852V6H0V0" transform="translate(105 25)" fill="#545554"/>
  <path id="Stroke_27" data-name="Stroke 27" d="M0,.5H149" transform="translate(0 34)" fill="none" stroke="#545554" stroke-miterlimit="10" stroke-width="1.751"/>
</svg>
