<svg id="drywall-011" xmlns="http://www.w3.org/2000/svg" width="125" height="108.042" viewBox="0 0 125 108.042">
  <path id="Path" d="M.8,1.591A.8.8,0,1,0,0,.822a.787.787,0,0,0,.8.769Z" transform="translate(79.72 40.962)" fill="#4c586e"/>
  <circle id="Oval" cx="0.787" cy="0.787" r="0.787" transform="translate(84.406 40.97)" fill="#4c586e"/>
  <path id="Path-2" data-name="Path" d="M.712,1.587A.8.8,0,1,0,0,.8a.8.8,0,0,0,.712.791Z" transform="translate(89.157 40.966)" fill="#4c586e"/>
  <path id="Path-3" data-name="Path" d="M.8,1.591A.8.8,0,1,0,0,.8a.787.787,0,0,0,.8.8Z" transform="translate(93.759 40.962)" fill="#4c586e"/>
  <path id="Path-4" data-name="Path" d="M.712,1.587A.8.8,0,1,0,0,.8a.8.8,0,0,0,.712.791Z" transform="translate(98.501 40.966)" fill="#4c586e"/>
  <path id="Path-5" data-name="Path" d="M.712,1.587A.8.8,0,1,0,0,.8a.8.8,0,0,0,.712.791Z" transform="translate(103.195 40.966)" fill="#4c586e"/>
  <path id="Path-6" data-name="Path" d="M.8,1.591A.8.8,0,1,0,0,.8a.787.787,0,0,0,.8.8Z" transform="translate(107.797 40.962)" fill="#4c586e"/>
  <path id="Path-7" data-name="Path" d="M.712,1.587A.8.8,0,1,0,0,.8a.8.8,0,0,0,.712.791Z" transform="translate(112.557 40.966)" fill="#4c586e"/>
  <circle id="Oval-2" data-name="Oval" cx="0.787" cy="0.787" r="0.787" transform="translate(117.159 40.97)" fill="#4c586e"/>
  <path id="Path-8" data-name="Path" d="M.879,1.587a.8.8,0,1,0-.758-.37.8.8,0,0,0,.758.37Z" transform="translate(79.637 101.866)" fill="#4c586e"/>
  <path id="Path-9" data-name="Path" d="M.879,1.587a.8.8,0,1,0-.758-.37.8.8,0,0,0,.758.37Z" transform="translate(84.349 101.866)" fill="#4c586e"/>
  <path id="Path-10" data-name="Path" d="M.787,1.591A.8.8,0,1,0,0,.8a.787.787,0,0,0,.787.787Z" transform="translate(89.082 101.862)" fill="#4c586e"/>
  <path id="Path-11" data-name="Path" d="M.879,1.587a.8.8,0,1,0-.758-.37.8.8,0,0,0,.758.37Z" transform="translate(93.675 101.866)" fill="#4c586e"/>
  <path id="Path-12" data-name="Path" d="M.787,1.591A.8.8,0,1,0,0,.8a.787.787,0,0,0,.787.787Z" transform="translate(98.427 101.862)" fill="#4c586e"/>
  <path id="Path-13" data-name="Path" d="M.787,1.591A.8.8,0,1,0,0,.8a.787.787,0,0,0,.787.787Z" transform="translate(103.121 101.862)" fill="#4c586e"/>
  <path id="Path-14" data-name="Path" d="M.879,1.587a.8.8,0,1,0-.758-.37.8.8,0,0,0,.758.37Z" transform="translate(107.714 101.866)" fill="#4c586e"/>
  <path id="Path-15" data-name="Path" d="M.787,1.591A.8.8,0,1,0,0,.8a.787.787,0,0,0,.787.787Z" transform="translate(112.482 101.862)" fill="#4c586e"/>
  <path id="Path-16" data-name="Path" d="M.8,0a.8.8,0,1,0,.8.8A.787.787,0,0,0,.8,0Z" transform="translate(36.434 101.871)" fill="#4c586e"/>
  <path id="Path-17" data-name="Path" d="M.879,0A.8.8,0,1,0,1.591.8.8.8,0,0,0,.879,0Z" transform="translate(41.036 101.866)" fill="#4c586e"/>
  <path id="Path-18" data-name="Path" d="M.8,0a.8.8,0,1,0,.787.8A.787.787,0,0,0,.8,0Z" transform="translate(45.787 101.871)" fill="#4c586e"/>
  <path id="Path-19" data-name="Path" d="M.8,0a.8.8,0,1,0,.8.8A.787.787,0,0,0,.8,0Z" transform="translate(50.472 101.871)" fill="#4c586e"/>
  <path id="Path-20" data-name="Path" d="M.879,1.587a.8.8,0,1,0-.758-.37.8.8,0,0,0,.758.37Z" transform="translate(55.074 101.866)" fill="#4c586e"/>
  <path id="Path-21" data-name="Path" d="M.787,1.591A.8.8,0,1,0,0,.8a.787.787,0,0,0,.787.787Z" transform="translate(59.843 101.862)" fill="#4c586e"/>
  <path id="Path-22" data-name="Path" d="M.787,1.591A.8.8,0,1,0,0,.8a.787.787,0,0,0,.787.787Z" transform="translate(64.519 101.862)" fill="#4c586e"/>
  <path id="Path-23" data-name="Path" d="M.879,1.587a.8.8,0,1,0-.758-.37A.8.8,0,0,0,.879,1.587Z" transform="translate(79.637 78.466)" fill="#4c586e"/>
  <path id="Path-24" data-name="Path" d="M.8,1.591A.8.8,0,1,0,0,.8a.787.787,0,0,0,.8.8Z" transform="translate(79.72 73.785)" fill="#4c586e"/>
  <path id="Path-25" data-name="Path" d="M.879,1.587a.8.8,0,1,0-.758-.37.8.8,0,0,0,.758.37Z" transform="translate(79.637 69.104)" fill="#4c586e"/>
  <path id="Path-26" data-name="Path" d="M.879,1.587a.8.8,0,1,0-.758-.37A.8.8,0,0,0,.879,1.587Z" transform="translate(79.637 64.427)" fill="#4c586e"/>
  <path id="Path-27" data-name="Path" d="M.8,1.591A.8.8,0,1,0,0,.8a.787.787,0,0,0,.8.8Z" transform="translate(79.72 59.747)" fill="#4c586e"/>
  <path id="Path-28" data-name="Path" d="M.879,1.587a.8.8,0,1,0-.758-.37A.8.8,0,0,0,.879,1.587Z" transform="translate(79.637 55.057)" fill="#4c586e"/>
  <path id="Path-29" data-name="Path" d="M.879,1.587a.8.8,0,1,0-.758-.37A.8.8,0,0,0,.879,1.587Z" transform="translate(79.637 50.389)" fill="#4c586e"/>
  <path id="Path-30" data-name="Path" d="M.8,1.591A.8.8,0,1,0,0,.8a.787.787,0,0,0,.8.8Z" transform="translate(79.72 45.708)" fill="#4c586e"/>
  <path id="Path-31" data-name="Path" d="M.879,1.587a.8.8,0,1,0-.758-.37.8.8,0,0,0,.758.37Z" transform="translate(79.637 97.181)" fill="#4c586e"/>
  <path id="Path-32" data-name="Path" d="M.879,1.587a.8.8,0,1,0-.758-.37A.8.8,0,0,0,.879,1.587Z" transform="translate(79.637 92.504)" fill="#4c586e"/>
  <path id="Path-33" data-name="Path" d="M.879,1.587a.8.8,0,1,0-.758-.37A.8.8,0,0,0,.879,1.587Z" transform="translate(79.637 87.828)" fill="#4c586e"/>
  <path id="Path-34" data-name="Path" d="M.879,1.587a.8.8,0,1,0-.758-.37.8.8,0,0,0,.758.37Z" transform="translate(79.637 83.142)" fill="#4c586e"/>
  <path id="Path-35" data-name="Path" d="M.787,1.591A.8.8,0,1,0,0,.8a.787.787,0,0,0,.787.787Z" transform="translate(117.159 78.462)" fill="#4c586e"/>
  <circle id="Oval-3" data-name="Oval" cx="0.787" cy="0.787" r="0.787" transform="translate(117.159 73.794)" fill="#4c586e"/>
  <circle id="Oval-4" data-name="Oval" cx="0.787" cy="0.787" r="0.787" transform="translate(117.159 69.117)" fill="#4c586e"/>
  <circle id="Oval-5" data-name="Oval" cx="0.787" cy="0.787" r="0.787" transform="translate(117.159 64.441)" fill="#4c586e"/>
  <path id="Path-36" data-name="Path" d="M.712,1.587A.8.8,0,1,0,0,.8.8.8,0,0,0,.712,1.587Z" transform="translate(117.234 59.751)" fill="#4c586e"/>
  <path id="Path-37" data-name="Path" d="M.787,1.591A.8.8,0,1,0,0,.8a.787.787,0,0,0,.787.787Z" transform="translate(117.159 55.052)" fill="#4c586e"/>
  <path id="Path-38" data-name="Path" d="M.787,1.591A.8.8,0,1,0,0,.8a.8.8,0,0,0,.787.787Z" transform="translate(117.159 50.385)" fill="#4c586e"/>
  <path id="Path-39" data-name="Path" d="M.712,1.587A.8.8,0,1,0,0,.8.8.8,0,0,0,.712,1.587Z" transform="translate(117.234 45.712)" fill="#4c586e"/>
  <path id="Path-40" data-name="Path" d="M.787,1.591A.8.8,0,1,0,0,.8.787.787,0,0,0,.787,1.591Z" transform="translate(117.159 101.862)" fill="#4c586e"/>
  <circle id="Oval-6" data-name="Oval" cx="0.787" cy="0.787" r="0.787" transform="translate(117.159 97.194)" fill="#4c586e"/>
  <path id="Path-41" data-name="Path" d="M.787,1.591A.8.8,0,1,0,0,.8a.787.787,0,0,0,.787.787Z" transform="translate(117.159 92.5)" fill="#4c586e"/>
  <path id="Path-42" data-name="Path" d="M.787,1.591A.8.8,0,1,0,0,.8.8.8,0,0,0,.787,1.591Z" transform="translate(117.159 87.823)" fill="#4c586e"/>
  <path id="Path-43" data-name="Path" d="M.787,1.591A.8.8,0,1,0,0,.8a.787.787,0,0,0,.787.787Z" transform="translate(117.159 83.138)" fill="#4c586e"/>
  <path id="Path-44" data-name="Path" d="M.8,1.591A.8.8,0,1,0,0,.8a.787.787,0,0,0,.8.8Z" transform="translate(79.72 11.932)" fill="#4c586e"/>
  <path id="Path-45" data-name="Path" d="M.8,1.591A.8.8,0,1,0,0,.8a.787.787,0,0,0,.8.8Z" transform="translate(79.72 25.97)" fill="#4c586e"/>
  <path id="Path-46" data-name="Path" d="M.8,1.591A.8.8,0,1,0,0,.8a.787.787,0,0,0,.8.8Z" transform="translate(79.72 21.294)" fill="#4c586e"/>
  <path id="Path-47" data-name="Path" d="M.8,1.591A.8.8,0,1,0,0,.8a.787.787,0,0,0,.8.8Z" transform="translate(79.72 16.591)" fill="#4c586e"/>
  <path id="Path-48" data-name="Path" d="M.787,0A.787.787,0,0,0,0,.787H0a.8.8,0,0,0,1.582,0h0A.787.787,0,0,0,.787,0Z" transform="translate(31.766 92.482)" fill="#4c586e"/>
  <path id="Path-49" data-name="Path" d="M.8,0a.8.8,0,1,0,.8.8A.787.787,0,0,0,.8,0Z" transform="translate(31.757 87.832)" fill="#4c586e"/>
  <path id="Path-50" data-name="Path" d="M.8,0a.8.8,0,1,0,.8.8A.787.787,0,0,0,.8,0Z" transform="translate(31.757 83.147)" fill="#4c586e"/>
  <path id="Path-51" data-name="Path" d="M.8,0a.8.8,0,1,0,.8.8A.787.787,0,0,0,.8,0Z" transform="translate(31.757 78.496)" fill="#4c586e"/>
  <path id="Path-52" data-name="Path" d="M.787,0A.787.787,0,0,0,0,.787H0a.8.8,0,0,0,1.582,0h0A.787.787,0,0,0,.787,0Z" transform="translate(31.766 101.844)" fill="#4c586e"/>
  <path id="Path-53" data-name="Path" d="M.712,0a.8.8,0,1,0,.758.37A.8.8,0,0,0,.712,0Z" transform="translate(31.84 97.155)" fill="#4c586e"/>
  <path id="Path-54" data-name="Path" d="M.8,1.5A.787.787,0,0,0,1.582.712h0A.8.8,0,0,0,0,.712H0A.787.787,0,0,0,.8,1.5Z" transform="translate(69.196 92.592)" fill="#4c586e"/>
  <path id="Path-55" data-name="Path" d="M.879,1.587a.8.8,0,1,0-.758-.37.8.8,0,0,0,.758.37Z" transform="translate(69.113 87.828)" fill="#4c586e"/>
  <path id="Path-56" data-name="Path" d="M.879,1.587a.8.8,0,1,0-.758-.37.8.8,0,0,0,.758.37Z" transform="translate(69.113 83.142)" fill="#4c586e"/>
  <path id="Path-57" data-name="Path" d="M.879,1.587a.8.8,0,1,0-.758-.37.8.8,0,0,0,.758.37Z" transform="translate(69.113 78.466)" fill="#4c586e"/>
  <path id="Path-58" data-name="Path" d="M.8,1.5A.787.787,0,0,0,1.582.712h0A.8.8,0,0,0,0,.712H0A.787.787,0,0,0,.8,1.5Z" transform="translate(69.196 101.954)" fill="#4c586e"/>
  <path id="Path-59" data-name="Path" d="M.8,1.591A.8.8,0,1,0,0,.8a.787.787,0,0,0,.8.8Z" transform="translate(69.196 97.15)" fill="#4c586e"/>
  <path id="Path-60" data-name="Path" d="M.787,1.591A.8.8,0,1,0,0,.8.787.787,0,0,0,.787,1.591Z" transform="translate(117.159 7.247)" fill="#4c586e"/>
  <circle id="Oval-7" data-name="Oval" cx="0.787" cy="0.787" r="0.787" transform="translate(117.159 25.979)" fill="#4c586e"/>
  <circle id="Oval-8" data-name="Oval" cx="0.787" cy="0.787" r="0.787" transform="translate(117.159 21.302)" fill="#4c586e"/>
  <circle id="Oval-9" data-name="Oval" cx="0.787" cy="0.787" r="0.787" transform="translate(117.159 16.617)" fill="#4c586e"/>
  <path id="Path-61" data-name="Path" d="M.712,1.587A.8.8,0,1,0,0,.8a.8.8,0,0,0,.712.791Z" transform="translate(117.234 11.936)" fill="#4c586e"/>
  <path id="Path-62" data-name="Path" d="M.8,1.573a.787.787,0,1,0-.562-.227A.787.787,0,0,0,.8,1.573Z" transform="translate(79.72 30.691)" fill="#4c586e"/>
  <path id="Path-63" data-name="Path" d="M.8,1.573a.787.787,0,1,0-.562-.227A.787.787,0,0,0,.8,1.573Z" transform="translate(84.432 30.691)" fill="#4c586e"/>
  <path id="Path-64" data-name="Path" d="M.787,1.573A.787.787,0,1,0,0,.787a.787.787,0,0,0,.787.787Z" transform="translate(89.082 30.691)" fill="#4c586e"/>
  <path id="Path-65" data-name="Path" d="M.8,1.573a.787.787,0,1,0-.562-.227A.787.787,0,0,0,.8,1.573Z" transform="translate(93.759 30.691)" fill="#4c586e"/>
  <path id="Path-66" data-name="Path" d="M.787,1.573A.787.787,0,1,0,0,.787a.787.787,0,0,0,.787.787Z" transform="translate(98.427 30.691)" fill="#4c586e"/>
  <path id="Path-67" data-name="Path" d="M.787,1.573a.787.787,0,1,0-.556-.23.787.787,0,0,0,.556.23Z" transform="translate(103.121 30.691)" fill="#4c586e"/>
  <path id="Path-68" data-name="Path" d="M.8,1.573a.787.787,0,1,0-.562-.227A.787.787,0,0,0,.8,1.573Z" transform="translate(107.797 30.691)" fill="#4c586e"/>
  <path id="Path-69" data-name="Path" d="M.787,1.573A.787.787,0,1,0,0,.787a.787.787,0,0,0,.787.787Z" transform="translate(112.483 30.691)" fill="#4c586e"/>
  <path id="Path-70" data-name="Path" d="M.787,1.573A.787.787,0,1,0,0,.787a.787.787,0,0,0,.787.787Z" transform="translate(117.159 30.691)" fill="#4c586e"/>
  <path id="Path-71" data-name="Path" d="M.879,1.587a.8.8,0,1,0-.758-.37.8.8,0,0,0,.758.37Z" transform="translate(79.637 7.251)" fill="#4c586e"/>
  <path id="Path-72" data-name="Path" d="M.879,1.587a.8.8,0,1,0-.758-.37.8.8,0,0,0,.758.37Z" transform="translate(84.349 7.251)" fill="#4c586e"/>
  <path id="Path-73" data-name="Path" d="M.787,1.591A.8.8,0,1,0,0,.8a.787.787,0,0,0,.787.787Z" transform="translate(89.082 7.247)" fill="#4c586e"/>
  <path id="Path-74" data-name="Path" d="M.879,1.587a.8.8,0,1,0-.758-.37.8.8,0,0,0,.758.37Z" transform="translate(93.675 7.251)" fill="#4c586e"/>
  <path id="Path-75" data-name="Path" d="M.787,1.591A.8.8,0,1,0,0,.8a.787.787,0,0,0,.787.787Z" transform="translate(98.427 7.247)" fill="#4c586e"/>
  <path id="Path-76" data-name="Path" d="M.787,1.591A.8.8,0,1,0,0,.8a.787.787,0,0,0,.787.787Z" transform="translate(103.121 7.247)" fill="#4c586e"/>
  <path id="Path-77" data-name="Path" d="M.879,1.587a.8.8,0,1,0-.758-.37.8.8,0,0,0,.758.37Z" transform="translate(107.714 7.251)" fill="#4c586e"/>
  <path id="Path-78" data-name="Path" d="M.787,1.591A.8.8,0,1,0,0,.8a.787.787,0,0,0,.787.787Z" transform="translate(112.482 7.247)" fill="#4c586e"/>
  <path id="Path-79" data-name="Path" d="M.712,0a.8.8,0,1,0,.758.37A.8.8,0,0,0,.712,0Z" transform="translate(31.84 73.789)" fill="#4c586e"/>
  <path id="Path-80" data-name="Path" d="M.712,0a.8.8,0,1,0,.758.37A.8.8,0,0,0,.712,0Z" transform="translate(36.517 73.789)" fill="#4c586e"/>
  <path id="Path-81" data-name="Path" d="M.8,0a.8.8,0,1,0,.787.787A.787.787,0,0,0,.8,0Z" transform="translate(41.11 73.794)" fill="#4c586e"/>
  <circle id="Oval-10" data-name="Oval" cx="0.787" cy="0.787" r="0.787" transform="translate(45.804 73.794)" fill="#4c586e"/>
  <path id="Path-82" data-name="Path" d="M.712,0a.8.8,0,1,0,.758.37A.8.8,0,0,0,.712,0Z" transform="translate(50.555 73.789)" fill="#4c586e"/>
  <path id="Path-83" data-name="Path" d="M.8,1.591A.8.8,0,1,0,0,.8a.787.787,0,0,0,.8.8Z" transform="translate(55.157 73.785)" fill="#4c586e"/>
  <path id="Path-84" data-name="Path" d="M.712,1.587A.8.8,0,1,0,0,.8a.8.8,0,0,0,.712.791Z" transform="translate(59.917 73.789)" fill="#4c586e"/>
  <path id="Path-85" data-name="Path" d="M.712,1.587A.8.8,0,1,0,0,.8a.8.8,0,0,0,.712.791Z" transform="translate(64.594 73.789)" fill="#4c586e"/>
  <circle id="Oval-11" data-name="Oval" cx="0.787" cy="0.787" r="0.787" transform="translate(69.205 73.794)" fill="#4c586e"/>
  <path id="Shape" d="M0,108.042V0H125V108.042Z" fill="#4c586e"/>
</svg>
