<svg id="exterior-door1" xmlns="http://www.w3.org/2000/svg" width="125" height="125" viewBox="0 0 125 125">
  <path id="Path" d="M3.906,7.813A3.9,3.9,0,0,0,7.613,5.078h7.813a1.172,1.172,0,0,0,0-2.344H7.613A3.9,3.9,0,1,0,3.906,7.813Z" transform="translate(36.78 67.448)" fill="#4c586e"/>
  <path id="Shape" d="M1.172,125a1.172,1.172,0,0,1,0-2.344H24.062V1.172A1.167,1.167,0,0,1,25.234,0H99.766a1.167,1.167,0,0,1,1.172,1.172V122.657h22.891a1.172,1.172,0,1,1,0,2.344Z" fill="#4c586e"/>
  <path id="Shape-2" data-name="Shape" d="M1.172,21.676A1.167,1.167,0,0,1,0,20.5V1.172A1.167,1.167,0,0,1,1.172,0,.712.712,0,0,1,1.31.017c.044,0,.087-.008.131-.008C5.9.009,9.314,1.536,12.613,3.02c2.709,1.224,5.27,2.371,8.212,2.543,2.951-.173,5.5-1.328,8.212-2.543,3.29-1.475,6.7-3.011,11.155-3.011h.017a1.162,1.162,0,0,1,1.163,1.172V20.5A1.167,1.167,0,0,1,40.2,21.676Z" transform="translate(41.675 90.052)" fill="#4c586e"/>
  <path id="Path-2" data-name="Path" d="M1.172,48.837a1.167,1.167,0,0,0,1.172-1.172V7.856c3.9-.234,7-1.632,10-2.977,2.708-1.215,5.26-2.37,8.212-2.543,2.943.174,5.5,1.319,8.212,2.543,3,1.354,6.1,2.743,10,2.977V64.523c-3.9.234-7,1.632-10,2.977-2.708,1.215-5.26,2.37-8.212,2.543-2.943-.174-5.5-1.319-8.212-2.543-3-1.354-6.1-2.743-10-2.977V61.641a1.172,1.172,0,0,0-2.344,0v4.01a1.167,1.167,0,0,0,1.172,1.172c3.958,0,7.135,1.432,10.217,2.813,2.8,1.259,5.694,2.561,9.106,2.743h.122c3.4-.182,6.3-1.484,9.106-2.743,3.073-1.38,6.25-2.812,10.217-2.812a1.167,1.167,0,0,0,1.172-1.172V6.71a1.167,1.167,0,0,0-1.172-1.172c-3.958,0-7.144-1.432-10.217-2.813C26.918,1.484,24.028.182,20.616,0h-.13c-3.4.182-6.293,1.484-9.1,2.743C8.316,4.123,5.139,5.556,1.172,5.556A1.167,1.167,0,0,0,0,6.727V47.665A1.173,1.173,0,0,0,1.172,48.837Z" transform="translate(41.944 16.658)" fill="#4c586e"/>
</svg>
