<svg id="exterior-01" xmlns="http://www.w3.org/2000/svg" width="168.548" height="120.131" viewBox="0 0 168.548 120.131">
  <path id="Shape" d="M.417,18.129a1.41,1.41,0,0,1-.417-1L.012,1.409A1.409,1.409,0,0,1,1.42,0H9.734a1.409,1.409,0,0,1,1.42,1.42V17.128a1.409,1.409,0,0,1-1.408,1.409H1.41A1.41,1.41,0,0,1,.417,18.129Z" transform="translate(57.178 74.033)" fill="#4c586e"/>
  <path id="Shape-2" data-name="Shape" d="M1.42,18.537A1.421,1.421,0,0,1,0,17.128V1.409A1.421,1.421,0,0,1,1.42,0H9.734a1.42,1.42,0,0,1,1.42,1.42V17.128a1.42,1.42,0,0,1-1.42,1.409Z" transform="translate(69.73 74.033)" fill="#4c586e"/>
  <path id="Shape-3" data-name="Shape" d="M1.409,18.537A1.409,1.409,0,0,1,0,17.128V1.409A1.409,1.409,0,0,1,1.409,0H9.734a1.409,1.409,0,0,1,1.409,1.42V17.128a1.409,1.409,0,0,1-1.409,1.409Z" transform="translate(89.908 74.033)" fill="#4c586e"/>
  <path id="Shape-4" data-name="Shape" d="M1.409,18.537A1.409,1.409,0,0,1,0,17.128V1.409A1.409,1.409,0,0,1,1.409,0H9.688A1.409,1.409,0,0,1,11.1,1.42V17.128a1.409,1.409,0,0,1-1.409,1.409Z" transform="translate(102.472 74.033)" fill="#4c586e"/>
  <path id="Shape-5" data-name="Shape" d="M1.409,18.549A1.409,1.409,0,0,1,0,17.116V1.42A1.421,1.421,0,0,1,1.409,0H9.734a1.419,1.419,0,0,1,1.409,1.42V17.14a1.408,1.408,0,0,1-1.409,1.409Z" transform="translate(57.189 54.32)" fill="#4c586e"/>
  <path id="Shape-6" data-name="Shape" d="M1.42,18.549A1.421,1.421,0,0,1,0,17.116V1.42A1.421,1.421,0,0,1,1.42,0H9.734a1.42,1.42,0,0,1,1.42,1.42V17.14a1.42,1.42,0,0,1-1.42,1.409Z" transform="translate(69.73 54.32)" fill="#4c586e"/>
  <path id="Shape-7" data-name="Shape" d="M1.409,18.549A1.409,1.409,0,0,1,0,17.116V1.42A1.421,1.421,0,0,1,1.409,0H9.734a1.419,1.419,0,0,1,1.409,1.42V17.14a1.408,1.408,0,0,1-1.409,1.409Z" transform="translate(89.908 54.32)" fill="#4c586e"/>
  <path id="Shape-8" data-name="Shape" d="M1.409,18.549A1.409,1.409,0,0,1,0,17.116V1.42A1.421,1.421,0,0,1,1.409,0H9.688A1.421,1.421,0,0,1,11.1,1.42V17.14a1.409,1.409,0,0,1-1.409,1.409Z" transform="translate(102.472 54.32)" fill="#4c586e"/>
  <path id="Shape-9" data-name="Shape" d="M0,7.348a7.347,7.347,0,1,1,7.348,7.347A7.347,7.347,0,0,1,0,7.348Z" transform="translate(78.032 22.975)" fill="#4c586e"/>
  <path id="Path" d="M1.851.012A1.851,1.851,0,0,0,0,1.851V63.4a1.851,1.851,0,0,0,1.851,1.851H77.921A1.851,1.851,0,0,0,79.772,63.4V1.851a1.851,1.851,0,0,0-3.7,0v59.7H3.691V1.851A1.84,1.84,0,0,0,1.851.012Z" transform="translate(45.51 44.481)" fill="#4c586e"/>
  <path id="Path-2" data-name="Path" d="M.466,51.176a1.851,1.851,0,0,0,2.62.116L54.19,4.357l51.128,46.936a1.85,1.85,0,0,0,2.5-2.725L55.425.479a1.875,1.875,0,0,0-2.5,0L.629,48.568a1.84,1.84,0,0,0-.163,2.608Z" transform="translate(31.189)" fill="#4c586e"/>
  <path id="Path-3" data-name="Path" d="M152.849,0a1.851,1.851,0,0,0-1.84,1.851V6.1H3.7V1.852a1.851,1.851,0,1,0-3.7,0V7.965A1.851,1.851,0,0,0,1.851,9.816h151a1.851,1.851,0,0,0,1.886-1.851v-6.1A1.851,1.851,0,0,0,152.849,0Z" transform="translate(6.329 110.315)" fill="#4c586e"/>
  <path id="Path-4" data-name="Path" d="M1.851,22.216a1.851,1.851,0,0,0,1.84-1.851V3.7H10.9V8.756a1.851,1.851,0,1,0,3.691,0v-6.9A1.851,1.851,0,0,0,12.738,0H1.851A1.851,1.851,0,0,0,0,1.851V20.365a1.851,1.851,0,0,0,1.851,1.851Z" transform="translate(48.934 3.402)" fill="#4c586e"/>
  <path id="Path-5" data-name="Path" d="M1.841.006a1.7,1.7,0,1,0,0,3.388H25.128a1.7,1.7,0,1,0,0-3.388Z" transform="translate(12.709 105.035)" fill="#4c586e"/>
  <path id="Path-6" data-name="Path" d="M20.075,3.394a1.7,1.7,0,1,0,0-3.388H1.841a1.7,1.7,0,1,0,0,3.388Z" transform="translate(132.745 105.035)" fill="#4c586e"/>
  <path id="Path-7" data-name="Path" d="M15.97,54.9V70.7a1.933,1.933,0,0,0,3.854,0V54.313h.093A15.638,15.638,0,0,0,33.669,26.775a1.826,1.826,0,1,0-2.236,2.888A11.947,11.947,0,0,1,24.249,51.2,11.7,11.7,0,0,1,20.5,50.6a1.816,1.816,0,0,0-1.164,0,11.7,11.7,0,0,1-3.749.605A11.947,11.947,0,0,1,7.167,30.781a1.851,1.851,0,0,0,.466-1.851,11.97,11.97,0,0,1,8.151-15,1.851,1.851,0,0,0,1.281-2.038,7.335,7.335,0,0,1-.07-.932,7.254,7.254,0,0,1,13.542-3.61,1.8,1.8,0,0,0,1.164.862,1.84,1.84,0,0,0,2.084-2.7,10.945,10.945,0,0,0-20.447,5.321A15.649,15.649,0,0,0,3.872,28.953,15.649,15.649,0,0,0,15.586,54.907Z" transform="translate(0 28.371)" fill="#4c586e"/>
  <path id="Path-8" data-name="Path" d="M36.029,28.93a15.649,15.649,0,0,0-9.478-18.095A10.945,10.945,0,0,0,6.1,5.514a1.846,1.846,0,1,0,3.2,1.84,7.233,7.233,0,0,1,13.472,4.541,1.851,1.851,0,0,0,1.327,2.014,11.97,11.97,0,0,1,8.151,15,1.851,1.851,0,0,0,.466,1.851A11.947,11.947,0,0,1,24.3,51.181a11.7,11.7,0,0,1-3.749-.605,1.816,1.816,0,0,0-1.164,0,11.7,11.7,0,0,1-3.749.605A11.947,11.947,0,0,1,8.457,29.7a1.851,1.851,0,1,0-2.236-2.946,15.638,15.638,0,0,0,9.187,28.12v15.8a1.933,1.933,0,0,0,3.854,0V54.441a6.987,6.987,0,0,0,.71-.175,15.638,15.638,0,0,0,16.1-25.337Z" transform="translate(128.586 28.395)" fill="#4c586e"/>
</svg>
