<svg id="exterior-door" xmlns="http://www.w3.org/2000/svg" width="65" height="65" viewBox="0 0 65 65">
  <path id="Path" d="M2.031,4.063A2.027,2.027,0,0,0,3.959,2.641H8.021a.609.609,0,0,0,0-1.219H3.959A2.027,2.027,0,1,0,2.031,4.063Z" transform="translate(19.125 35.073)" fill="#4c586e"/>
  <path id="Shape" d="M.609,65a.609.609,0,0,1,0-1.219h11.9V.609A.607.607,0,0,1,13.122,0H51.878a.606.606,0,0,1,.609.609V63.781h11.9a.609.609,0,0,1,0,1.219Z" fill="#4c586e"/>
  <path id="Shape-2" data-name="Shape" d="M.609,11.272A.607.607,0,0,1,0,10.661V.609A.607.607,0,0,1,.609,0,.35.35,0,0,1,.681.009C.7.009.726,0,.75,0A13.512,13.512,0,0,1,6.558,1.571a12.03,12.03,0,0,0,4.271,1.323A12.093,12.093,0,0,0,15.1,1.571,13.535,13.535,0,0,1,20.9,0h.009a.6.6,0,0,1,.606.609V10.661a.607.607,0,0,1-.61.61Z" transform="translate(21.671 46.827)" fill="#4c586e"/>
  <path id="Path-2" data-name="Path" d="M.609,25.4a.607.607,0,0,0,.609-.609V4.085a14.4,14.4,0,0,0,5.2-1.548,12.11,12.11,0,0,1,4.27-1.323,12.046,12.046,0,0,1,4.27,1.323,14.314,14.314,0,0,0,5.2,1.548V33.552a14.4,14.4,0,0,0-5.2,1.548,12.11,12.11,0,0,1-4.27,1.323A12.046,12.046,0,0,1,6.419,35.1a14.314,14.314,0,0,0-5.2-1.548v-1.5a.609.609,0,0,0-1.219,0v2.085a.607.607,0,0,0,.609.609A12.589,12.589,0,0,1,5.922,36.21a13.112,13.112,0,0,0,4.735,1.426h.063a13.139,13.139,0,0,0,4.735-1.426,12.552,12.552,0,0,1,5.313-1.462.607.607,0,0,0,.609-.609V3.489a.607.607,0,0,0-.609-.609,12.57,12.57,0,0,1-5.313-1.462A13.283,13.283,0,0,0,10.72,0h-.068A13.115,13.115,0,0,0,5.922,1.426,12.552,12.552,0,0,1,.609,2.889.607.607,0,0,0,0,3.5V24.786A.61.61,0,0,0,.609,25.4Z" transform="translate(21.811 8.662)" fill="#4c586e"/>
</svg>
