<svg id="Group_3" data-name="Group 3" xmlns="http://www.w3.org/2000/svg" xmlns:xlink="http://www.w3.org/1999/xlink" width="20" height="20" viewBox="0 0 20 20">
  <defs>
    <clipPath id="clip-path">
      <path id="Clip_2" data-name="Clip 2" d="M0,0H20V20H0Z" fill="none"/>
    </clipPath>
  </defs>
  <path id="Clip_2-2" data-name="Clip 2" d="M0,0H20V20H0Z" fill="none"/>
  <g id="Group_3-2" data-name="Group 3" clip-path="url(#clip-path)">
    <path id="Fill_1" data-name="Fill 1" d="M19.967.931a1.067,1.067,0,0,0-.9-.9A1.181,1.181,0,0,1,18.95,0H1.05A1.188,1.188,0,0,1,.931.033a1.068,1.068,0,0,0-.9.9A1.212,1.212,0,0,1,0,1.05v17.9c.011.04.026.078.033.119a1.068,1.068,0,0,0,.9.9.744.744,0,0,1,.1.032h9.633c0-.042,0-.083,0-.125q0-3.762,0-7.525v-.1H8.164c-.111,0-.112,0-.112-.107,0-.939,0-1.878,0-2.817,0-.086.026-.107.109-.107.8,0,1.6,0,2.4,0h.112c0-.033,0-.062,0-.091,0-.78,0-1.561.007-2.341a4.26,4.26,0,0,1,.4-1.805,3.273,3.273,0,0,1,1.749-1.656,4.12,4.12,0,0,1,1.657-.315c.655.01,1.31.039,1.965.063.122,0,.243.025.365.031.068,0,.091.029.09.1,0,.389,0,.778,0,1.167,0,.458,0,.917,0,1.375,0,.08-.022.1-.1.1-.5,0-.995-.01-1.491,0a3.547,3.547,0,0,0-.675.078.944.944,0,0,0-.762.8,2.8,2.8,0,0,0-.055.519c-.006.636,0,1.272,0,1.908,0,.019,0,.038,0,.067h2.858c.12,0,.122,0,.107.114-.065.5-.132,1-.2,1.5q-.081.627-.156,1.254c-.019.16-.015.16-.176.16H13.819v.121q0,3.721,0,7.441c0,.061,0,.122,0,.183h5.15a.744.744,0,0,1,.1-.032,1.068,1.068,0,0,0,.9-.9.757.757,0,0,1,.032-.1V1.05a1.185,1.185,0,0,1-.033-.119" fill="#fefefe"/>
  </g>
</svg>
