<svg id="flooring-hardwood-01" xmlns="http://www.w3.org/2000/svg" width="39" height="39" viewBox="0 0 39 39">
  <path id="Path" d="M1.724,5.563A13.847,13.847,0,0,0,1.889.626C1.867.428,1.846.217,1.819,0H.976Q.993.317.993.626a14.083,14.083,0,0,1-.339,3.25,31.754,31.754,0,0,0,0,12.854C1.131,19.362,2.642,22.94,4.1,26.4c.813,1.942,1.663,3.935,2.3,5.731V28.02c-1.855-5-5.178-14.156-5.1-18.614a19.638,19.638,0,0,1,.414-3.843Z" transform="translate(8.961 1.102)" fill="none"/>
  <path id="Path-2" data-name="Path" d="M.818,16.773a32.017,32.017,0,0,1,0-12.927A13.482,13.482,0,0,0,1.151.626V0H0V19.557a44.814,44.814,0,0,0,2.026,5.555A43.134,43.134,0,0,1,5.14,34.78a11.012,11.012,0,0,1,.111,1.389V36.8H6.757V32.709c-.661-1.915-1.582-4.1-2.475-6.229C2.817,23.015,1.3,19.427.818,16.773Z" transform="translate(8.613 1.102)" fill="none"/>
  <path id="Path-3" data-name="Path" d="M1.852,4.921C1.138,3.177.447,1.5,0,0V4.6a22.482,22.482,0,0,1,.758,9.409,11.278,11.278,0,0,0-.187,1.9v.626h.934c0-.209-.022-.414-.027-.626V15.53c0-2.094.428-4.333,1.221-4.333s1.219,2.229,1.219,4.333v.379a4.836,4.836,0,0,1-.027.626H5.065v-.626a10.625,10.625,0,0,0-.111-1.354A42.944,42.944,0,0,0,1.852,4.921Z" transform="translate(8.613 21.366)" fill="none"/>
  <path id="Path-4" data-name="Path" d="M1.024,0C.542,0,0,1.687,0,4.122V4.5c0,.211.016.42.03.626h2c.016-.209.022-.417.027-.626V4.122C2.056,1.687,1.511,0,1.024,0Z" transform="translate(10.292 32.771)" fill="none"/>
  <path id="Path-5" data-name="Path" d="M0,1.376a23.625,23.625,0,0,0,1.555,8.813V0H.032C.011.455,0,.915,0,1.376Z" transform="translate(6.308 19.879)" fill="none"/>
  <path id="Path-6" data-name="Path" d="M1.277,5.56c.672,0,1.221-1.292,1.2-2.8S1.87,0,1.2,0h0C.884,0,.583.29.356.813a4.8,4.8,0,0,0-.352,2A4.875,4.875,0,0,0,.413,4.8C.651,5.289.954,5.576,1.277,5.56Z" transform="translate(19.472 20.608)" fill="none"/>
  <path id="Path-7" data-name="Path" d="M.574,8.621A21.961,21.961,0,0,0,0,0V11.18H.39v-.626A11.1,11.1,0,0,1,.574,8.621Z" transform="translate(8.613 26.718)" fill="none"/>
  <path id="Path-8" data-name="Path" d="M.845,0C.444,0,0,1.5,0,3.64S.436,7.28.845,7.28s.845-1.5.845-3.64S1.238,0,.845,0Z" transform="translate(11.884 6.871)" fill="none"/>
  <path id="Path-9" data-name="Path" d="M3.7,8.772A10.177,10.177,0,0,0,1.579,2.9,15.167,15.167,0,0,1,0,0V5.866c1.565,1.406,2.018,3.25,2.622,5.715l.049.2c.049.2.1.414.154.626H4.035q-.068-.3-.122-.626A18.91,18.91,0,0,1,3.7,8.772Z" transform="translate(16.123 25.494)" fill="none"/>
  <path id="Path-10" data-name="Path" d="M.23,8.577c.057.39.127.769.206,1.132.046.217.1.422.152.626h.7V0c-.13.436-.271.84-.412,1.238A12.926,12.926,0,0,0,.23,8.577Z" transform="translate(21.597 27.563)" fill="none"/>
  <path id="Path-11" data-name="Path" d="M2.438,5.5C1.834,3.041,1.416,1.343,0,0V5.85c.068.144.135.287.2.431H2.638c-.054-.211-.106-.422-.154-.626A.875.875,0,0,1,2.438,5.5Z" transform="translate(16.125 31.617)" fill="none"/>
  <path id="Path-12" data-name="Path" d="M1.278,0H0A41.888,41.888,0,0,0,1.249,10.546a19.286,19.286,0,0,1,.726,6.847c-.019.209-.041.414-.068.626H2.99v-7.35A23.471,23.471,0,0,1,1.249,1.376C1.246.915,1.254.455,1.278,0Z" transform="translate(4.875 19.879)" fill="none"/>
  <path id="Path-13" data-name="Path" d="M.057.634A9.75,9.75,0,0,0,1.43,4.507c1.305,2.11,1.446,5.029.425,8.667-.848,3.025-.271,5.53.785,8.493V0H0A4.834,4.834,0,0,0,.057.634Z" transform="translate(12.729 1.094)" fill="none"/>
  <path id="Shape" d="M4.912,27.476C2.769,21.694-.072,13.531,0,9.411A19.467,19.467,0,0,1,.413,5.6,14.19,14.19,0,0,0,.581.625L.571.536C.552.364.533.185.51,0H2.082c.014.217.033.421.059.626A9.957,9.957,0,0,0,3.544,4.6c1.274,2.064,1.41,4.93.4,8.518-.868,3.1-.33,5.585.967,9.094v5.265ZM2.273,5.582c-.677,0-1.031,1.925-1.031,3.827,0,1.855.361,3.827,1.031,3.827S3.3,11.264,3.3,9.409C3.3,7.507,2.946,5.582,2.273,5.582Z" transform="translate(10.456 1.102)" fill="none"/>
  <path id="Path-14" data-name="Path" d="M.439.626A21.531,21.531,0,0,0,.71,5.051c.674,2.9,1.449,8.366-.71,12.97H1.869V0H.455C.45.211.441.423.439.626Z" transform="translate(5.985 1.102)" fill="none"/>
  <path id="Path-15" data-name="Path" d="M1.7,18.021H2.985A41.912,41.912,0,0,0,1.741,7.475,19.18,19.18,0,0,1,1.013.626c.016-.209.043-.414.07-.626H0V7.359a23.5,23.5,0,0,1,1.75,9.29C1.75,17.106,1.725,17.566,1.7,18.021Z" transform="translate(16.125 1.102)" fill="none"/>
  <path id="Path-16" data-name="Path" d="M.929,7.862c.439,0,.926-1.625.926-3.93S1.368,0,.929,0,0,1.625,0,3.932.49,7.862.929,7.862Z" transform="translate(3.808 7.161)" fill="none"/>
  <path id="Shape-2" data-name="Shape" d="M3.922,18.022h-1.9A42.3,42.3,0,0,0,.772,7.421,18.918,18.918,0,0,1,.054.626C.071.444.093.228.125,0H4.082c.106.19.208.395.311.626a9.388,9.388,0,0,1,.271,6.792,23.264,23.264,0,0,0-.742,10.6ZM1.806.642C1.159.716.991,2.776,1.2,4.726c.2,1.87.779,3.857,1.444,3.857h.038c.676-.075.816-2.161.6-4.084C3.082,2.629,2.505.642,1.842.642H1.806Z" transform="translate(17.273 1.102)" fill="none"/>
  <path id="Shape-3" data-name="Shape" d="M5.032,18.019H1.1C.98,17.808.875,17.6.783,17.392a8.741,8.741,0,0,1-.6-1.855,9.352,9.352,0,0,1,0-3.677A11.643,11.643,0,0,1,.5,10.606,23.321,23.321,0,0,0,1.232,0h1.9A42.075,42.075,0,0,0,4.382,10.6,18.889,18.889,0,0,1,5.1,17.392c-.016.209-.039.414-.068.626ZM2.521,9.434l-.037,0c-.679.076-.819,2.161-.607,4.084.206,1.87.781,3.857,1.444,3.857h.024a.417.417,0,0,0,.278-.171c.464-.577.5-2.434.339-3.916C3.757,11.42,3.182,9.433,2.521,9.434Z" transform="translate(1.554 19.879)" fill="none"/>
  <path id="Path-17" data-name="Path" d="M1.364,7.568c.4-.046.685-1.649.439-3.881S.928-.037.532,0-.156,1.647.091,3.876.96,7.617,1.364,7.568Z" transform="translate(18.572 1.933)" fill="none"/>
  <path id="Path-18" data-name="Path" d="M0,0V14.354a24.659,24.659,0,0,0,.98-7.18A24.692,24.692,0,0,0,0,0Z" transform="translate(23.63 22.723)" fill="none"/>
  <path id="Path-19" data-name="Path" d="M1.552,8.807A23.641,23.641,0,0,0,0,0V10.181H1.519C1.541,9.726,1.552,9.265,1.552,8.807Z" transform="translate(16.123 8.943)" fill="none"/>
  <path id="Path-20" data-name="Path" d="M.612,16.318a9.615,9.615,0,0,1,0-5.284c.043-.162.092-.322.141-.487A22.942,22.942,0,0,0,1.471,0H.355c.1.336.187.674.271,1.018a13.29,13.29,0,0,1,0,5.669c-.051.244-.114.482-.181.72C.3,7.922.141,8.52,0,9.146v8.872H1.322c-.106-.195-.206-.4-.3-.626a8.894,8.894,0,0,1-.406-1.075Z" transform="translate(1.116 19.879)" fill="none"/>
  <path id="Path-21" data-name="Path" d="M.55,0H.531C.127.043-.154,1.647.092,3.878s.872,3.74,1.273,3.689.685-1.649.441-3.878S.956,0,.55,0Z" transform="translate(3.513 29.502)" fill="none"/>
  <path id="Shape-4" data-name="Shape" d="M3.261,18.022H1.308A17.244,17.244,0,0,1,0,10.894,21.541,21.541,0,0,1,1.544,3.231,12.148,12.148,0,0,0,2.226.625c.036-.2.066-.413.089-.626H3.726C3.71.211,3.71.422,3.71.626A21.367,21.367,0,0,0,4,5.091c.663,2.867,1.448,8.359-.736,12.93ZM2.218,5.869C1.493,5.869,1.1,8,1.1,10s.391,4.109,1.116,4.109,1.116-2.122,1.116-4.119S2.942,5.869,2.218,5.869Z" transform="translate(2.519 1.102)" fill="none"/>
  <path id="Path-22" data-name="Path" d="M.626,5.631a12.949,12.949,0,0,0,0-3.521A13.626,13.626,0,0,0,.173,0H0V8.328c.089-.347.176-.674.271-.972A11.478,11.478,0,0,0,.626,5.631Z" transform="translate(1.102 19.879)" fill="none"/>
  <path id="Path-23" data-name="Path" d="M2.519,18.021c-1.8-4.2-1.712-9.972.271-14.866A12.206,12.206,0,0,0,3.456.626Q3.5.322,3.545,0h-2.1c-.032.211-.07.417-.106.626-.2,1.1-.439,2.186-.715,3.25C.433,4.607.228,5.319,0,6.012V18.021Z" transform="translate(1.102 1.102)" fill="none"/>
  <path id="Path-24" data-name="Path" d="M1.148.626Q1.205.314,1.254,0H0V5.379c.23-.739.436-1.506.626-2.286S1,1.457,1.148.626Z" transform="translate(1.102 1.102)" fill="none"/>
  <path id="Path-25" data-name="Path" d="M0,0V.731C2.911,3.962,4.287,11.565,3.87,17.39c-.016.211-.033.42-.051.626H5.173c0-.211.022-.422.032-.626.016-.355.032-.691.051-1C5.674,9.146,4.276,3.632,1.1,0Z" transform="translate(31.146 19.882)" fill="none"/>
  <path id="Path-26" data-name="Path" d="M4.014,5.257A34.369,34.369,0,0,1,2.66,0H0C3.123,3.681,4.5,9.187,4.087,16.41c-.016.3-.035.636-.051.986,0,.2-.022.414-.03.626H5.4V10.6c-.171-1.024-.39-1.95-.626-2.825S4.274,6.072,4.014,5.257Z" transform="translate(32.5 19.882)" fill="none"/>
  <path id="Path-27" data-name="Path" d="M1.048,1.763C.989,1.368.918.989.842.626.794.409.742.2.688,0H0V10.321C.127,9.894.271,9.509.412,9.1A12.983,12.983,0,0,0,1.048,1.763Z" transform="translate(31.146 1.102)" fill="none"/>
  <path id="Path-28" data-name="Path" d="M0,2.922c2.335,3.995,2.118,9.75,1.644,13.452-.027.217-.054.425-.084.626H3.629c.022-.206.038-.414.051-.626C4.095,10.687,2.787,3.277,0,0Z" transform="translate(31.146 20.911)" fill="none"/>
  <path id="Path-29" data-name="Path" d="M1.658,0H0A34.228,34.228,0,0,0,1.335,5.2c.2.612.39,1.238.58,1.882.228.78.441,1.6.626,2.492V4.6a17.138,17.138,0,0,1-.626-2.54C1.8,1.4,1.714.715,1.658,0Z" transform="translate(35.357 19.882)" fill="none"/>
  <path id="Path-30" data-name="Path" d="M0,0V13.693H1.373c.027-.2.057-.409.084-.626C1.912,9.487,2.134,3.941,0,0Z" transform="translate(31.146 24.204)" fill="none"/>
  <path id="Path-31" data-name="Path" d="M.119.626A14.165,14.165,0,0,0,0,2.5,10.008,10.008,0,0,0,1.175,7.675V0H.217Q.16.306.119.626Z" transform="translate(29.212 1.102)" fill="none"/>
  <path id="Path-32" data-name="Path" d="M0,0C.054.211.106.423.157.626A.751.751,0,0,0,.192.78,12.7,12.7,0,0,0,2.01,5.587a5.59,5.59,0,0,0,.628.7V.444L2.427,0Z" transform="translate(35.263 1.102)" fill="none"/>
  <path id="Path-33" data-name="Path" d="M3.418,5.885c-1.083-1.311-1.481-2.952-2-5.059L1.37.626C1.319.423,1.27.211,1.216,0H0C.041.2.076.409.108.626A25.269,25.269,0,0,1,.349,4.374a13.493,13.493,0,0,0,2.126,6.979c.325.6.653,1.2.951,1.839a13.433,13.433,0,0,1,.628,1.6v-4.6c-.07-.092-.152-.2-.238-.32l-.371-.542a.111.111,0,0,1-.019-.03c-.13-.187-.255-.4-.393-.62s-.271-.487-.425-.745A8.989,8.989,0,0,1,2.2,7.1a7.008,7.008,0,0,1-.363-.875c-.092-.3-.211-.6-.306-.9s-.171-.6-.236-.886-.125-.574-.173-.84-.087-.525-.116-.761C.945,2.375.9,1.98.875,1.7c0-.119-.024-.214-.027-.287a.054.054,0,0,1,0-.019V1.357h0V1.4h0v.027A2.656,2.656,0,0,0,.88,1.7c.03.271.073.669.144,1.14.035.233.079.487.127.756s.111.542.184.834.154.585.244.883a6.411,6.411,0,0,0,.317.9c.13.271.241.582.371.864s.271.555.414.813.271.509.431.739c.111.165.211.33.311.482.033.054.07.108.106.157.138.192.271.371.374.542l.149.19V6.543a5.958,5.958,0,0,1-.634-.658Z" transform="translate(33.854 1.102)" fill="none"/>
  <path id="Path-34" data-name="Path" d="M0,0C.019.236.038.469.068.7A18.958,18.958,0,0,0,.693,3.951V0Z" transform="translate(37.204 19.882)" fill="none"/>
  <path id="Shape-5" data-name="Shape" d="M1.939,6.471A1.448,1.448,0,0,1,.871,5.7,5.683,5.683,0,0,1,.08,3.45a5.721,5.721,0,0,1,.1-2.378A2.132,2.132,0,0,1,.541.319.813.813,0,0,1,1.048,0L1.1,0l.049,0A1.422,1.422,0,0,1,2.193.777,5.737,5.737,0,0,1,2.984,3a5.665,5.665,0,0,1-.1,2.381c-.187.655-.5,1.039-.869,1.083A.686.686,0,0,1,1.939,6.471ZM1.167,4.786h0c0,.01.006.019.028.066l.018.041c.019.044.042.1.075.162a1.7,1.7,0,0,0,.189.3.509.509,0,0,0,.4.224.347.347,0,0,0,.246-.122A.683.683,0,0,0,2.272,5.2a2.286,2.286,0,0,0,.122-.59V4.6a6.892,6.892,0,0,0,0-1.292A4.478,4.478,0,0,0,2.09,2.047a1.2,1.2,0,0,0-.355-.495.539.539,0,0,0-.542-.106.634.634,0,0,0-.317.333,1.37,1.37,0,0,0-.111.333.579.579,0,0,0-.035.22v.078c.005-.022.011-.046.016-.078s.009-.04.013-.065A1.044,1.044,0,0,1,.8,2.117,1.524,1.524,0,0,1,.928,1.8a.633.633,0,0,1,.3-.29.461.461,0,0,1,.455.112A1.216,1.216,0,0,1,2,2.09a4.286,4.286,0,0,1,.271,1.233A7.061,7.061,0,0,1,2.282,4.6a2.65,2.65,0,0,1-.094.569c-.045.16-.172.33-.317.33a.481.481,0,0,1-.361-.185,1.224,1.224,0,0,1-.2-.271A1.479,1.479,0,0,1,1.2,4.85Z" transform="translate(32.292 11.682)" fill="none"/>
  <path id="Shape-6" data-name="Shape" d="M6.771,18.022H0V11.061a16.868,16.868,0,0,1,.588-1.9l0-.006a13.1,13.1,0,0,0,.65-7.425c-.06-.389-.129-.761-.2-1.108C.989.4.94.2.888,0H2.514c.04.2.075.408.108.625a25.317,25.317,0,0,1,.241,3.749,13.616,13.616,0,0,0,2.143,7.055l.007.014c.476.85.825,1.53,1.13,2.2a11.626,11.626,0,0,1,.628,1.828v2.548ZM2.3,10.369a.842.842,0,0,0-.124.009c-.45.069-.812.5-1.021,1.209a5.9,5.9,0,0,0-.1,2.456,5.815,5.815,0,0,0,.812,2.324,1.58,1.58,0,0,0,1.2.861l.063,0,.062,0c.453-.068.815-.495,1.021-1.2a5.827,5.827,0,0,0,.109-2.473,5.872,5.872,0,0,0-.813-2.318A1.6,1.6,0,0,0,2.3,10.369Z" transform="translate(31.143 1.102)" fill="none"/>
  <path id="Path-35" data-name="Path" d="M2.332,17.263C.165,12.3.1,10.083.742,6.7A22.111,22.111,0,0,0,1.04.626C1.021.412.994.206.967,0H0V15.2c.171.669.406,1.441.672,2.3.961,3.125,2.275,7.41,2,12.225a40.563,40.563,0,0,1-.842,6.438c-.046.214-.095.42-.144.626h1.6c.043-.206.084-.412.125-.626C4.436,30.39,4.344,21.889,2.332,17.263Z" transform="translate(23.63 1.108)" fill="none"/>
  <path id="Path-36" data-name="Path" d="M.773.626a9.487,9.487,0,0,1,.252,6.849A22.977,22.977,0,0,0,.31,18.021H1.423a13.309,13.309,0,0,1-.07-7.407c.149-.515.3-1.113.441-1.739V0H.47A6.7,6.7,0,0,1,.773.626Z" transform="translate(21.086 1.102)" fill="none"/>
  <path id="Path-37" data-name="Path" d="M.5,1.641C.311,1.051.144.506,0,0V5.119a23.919,23.919,0,0,1,1.167,7.77A24.762,24.762,0,0,1,.141,20.25c-.046.141-.092.271-.141.409v.217H1.476c.049-.206.1-.412.146-.626A39.986,39.986,0,0,0,2.481,13.8C2.757,9.019,1.449,4.756.5,1.641Z" transform="translate(23.63 17.022)" fill="none"/>
  <path id="Path-38" data-name="Path" d="M.572,8.339H.748V0C.661.349.572.68.477.983A13.181,13.181,0,0,0,.572,8.339Z" transform="translate(22.132 10.785)" fill="none"/>
  <path id="Shape-7" data-name="Shape" d="M5.869,18.022H4.244c-.047-.192-.088-.4-.125-.626A18.627,18.627,0,0,1,3.9,14.389,10.26,10.26,0,0,0,1.756,8.443l-.02-.03,0,0A12.791,12.791,0,0,1,0,5.024V0H.813c.056.33.1.647.154,1V1A19.9,19.9,0,0,0,2.506,6.827c.7,1.513,1.358,2.281,1.971,2.281h.06c.546-.046,1-.71,1.354-1.972l-.178-.051c-.325,1.163-.738,1.8-1.192,1.837l-.049,0c-.523,0-1.144-.75-1.8-2.169A19.164,19.164,0,0,1,1.154.977C1.1.631,1.055.318,1,0H6.76V6.966a16.256,16.256,0,0,1-.588,1.9l0,.006a13.081,13.081,0,0,0-.648,7.423c.052.368.119.739.2,1.1.046.216.1.419.148.625ZM3.525,1.454h0A5.54,5.54,0,0,0,3.588,5.6c.274.568.641.88,1.032.88a.867.867,0,0,0,.621-.293A3.95,3.95,0,0,0,6,3.5C5.98,1.844,5.337.55,4.542.55c-.391.005-.742.321-1.016.913V1.454Z" transform="translate(16.12 19.876)" fill="none"/>
  <path id="Path-39" data-name="Path" d="M.412,0A.29.29,0,0,0,.344,0C.244.032.162.137.1.3A2.275,2.275,0,0,0,0,.961a7.112,7.112,0,0,0,.33,2.1C.823,4.712,1.617,5.73,2.012,5.611c.2-.06.33-.417.344-.956a7.22,7.22,0,0,0-.33-2.083C1.56,1,.826,0,.412,0Z" transform="translate(25.743 10.969)" fill="none"/>
  <path id="Shape-8" data-name="Shape" d="M4.231,36.79H2.893c.046-.227.085-.431.12-.625,1.012-5.662.976-14.237-1.084-18.977C-.208,12.272-.287,10.081.347,6.736A21.94,21.94,0,0,0,.653.625C.632.416.611.21.58,0H1.9c.038.2.073.4.108.626a12.611,12.611,0,0,1,.125,3.161,7.984,7.984,0,0,0,1.354,5.78,10.054,10.054,0,0,1,.664,1.083c.236.449.46.932.666,1.436a10.841,10.841,0,0,1,.174,4.648l-.005.049a22.029,22.029,0,0,0-.042,5.536A42.513,42.513,0,0,1,4.36,36.165c-.043.221-.082.42-.129.625ZM1.957,9.658a.445.445,0,0,0-.128.019c-.3.089-.464.481-.48,1.132a7.364,7.364,0,0,0,.338,2.166c.4,1.343,1.138,2.7,1.773,2.7a.561.561,0,0,0,.132-.016H3.6c.3-.09.46-.484.476-1.14a7.276,7.276,0,0,0-.336-2.167C3.344,11.015,2.6,9.658,1.957,9.658Z" transform="translate(24.207 1.108)" fill="none"/>
  <path id="Path-40" data-name="Path" d="M1.311.626q.041-.32.1-.626H.16C.176.206.193.414.2.626a24.394,24.394,0,0,1-.16,3.808c-.271,2.318,1.054,4.333,2.521,6.053V7.99A9.6,9.6,0,0,1,1.2,2.5,14.625,14.625,0,0,1,1.311.626Z" transform="translate(27.831 1.102)" fill="none"/>
  <path id="Path-41" data-name="Path" d="M1.389,4.417A25.093,25.093,0,0,0,1.555.626C1.555.409,1.53.2,1.511,0H0C.041.209.076.414.106.626A12.881,12.881,0,0,1,.228,3.808,7.9,7.9,0,0,0,1.56,9.458a10.636,10.636,0,0,1,.674,1.108,16,16,0,0,1,.677,1.462A10.972,10.972,0,0,1,3.1,16.756,22.008,22.008,0,0,0,3.052,22.3,42.935,42.935,0,0,1,2.465,36.17c-.038.209-.081.414-.13.626H4.1V10.776C2.549,9.005,1.108,6.882,1.389,4.417Z" transform="translate(26.29 1.097)" fill="none"/>
  <path id="Shape-9" data-name="Shape" d="M.728,39A.728.728,0,0,1,0,38.274V.725A.729.729,0,0,1,.728,0H38.272A.728.728,0,0,1,39,.725V38.274a.727.727,0,0,1-.728.725Z" fill="#4c586e"/>
  <path id="Shape-10" data-name="Shape" d="M0,4.133C0,2.123.392,0,1.116,0S2.232,2.126,2.232,4.122,1.839,8.241,1.116,8.241,0,6.142,0,4.133Z" transform="translate(3.621 6.971)" fill="#4c586e"/>
  <path id="Shape-11" data-name="Shape" d="M0,3.827C0,1.972.36,0,1.032,0S2.064,1.972,2.064,3.827,1.712,7.654,1.032,7.654,0,5.682,0,3.827Z" transform="translate(11.697 6.684)" fill="#4c586e"/>
  <path id="Shape-12" data-name="Shape" d="M1.533,7.943C.872,7.943.3,6.008.089,4.087S.019.076.693,0H.729c.655,0,1.238,1.942,1.446,3.859s.073,4.009-.6,4.084Z" transform="translate(18.387 1.744)" fill="#4c586e"/>
  <path id="Shape-13" data-name="Shape" d="M1.532,7.943C.871,7.943.294,6,.089,4.086S.015.077.7,0,1.968,1.94,2.174,3.858s.073,4.011-.607,4.084Z" transform="translate(3.332 29.316)" fill="#4c586e"/>
  <path id="Shape-14" data-name="Shape" d="M.338,3.317A7.339,7.339,0,0,1,0,1.151C.016.5.182.108.48.019c.666-.2,1.484,1.232,1.914,2.678A7.282,7.282,0,0,1,2.73,4.864C2.714,5.514,2.549,5.907,2.254,6a.508.508,0,0,1-.128.016C1.484,6.012.743,4.672.338,3.317Z" transform="translate(25.556 10.782)" fill="#4c586e"/>
  <path id="Shape-15" data-name="Shape" d="M2.1,6.858A1.573,1.573,0,0,1,.895,6,5.868,5.868,0,0,1,.082,3.673a5.949,5.949,0,0,1,.1-2.456C.394.5.754.074,1.206.009s.923.235,1.333.856a5.917,5.917,0,0,1,.807,2.329,5.855,5.855,0,0,1-.1,2.461c-.208.707-.569,1.135-1.021,1.2a.581.581,0,0,1-.125,0Z" transform="translate(32.104 11.483)" fill="#4c586e"/>
  <path id="Path-42" data-name="Path" d="M1.363.633a1.208,1.208,0,0,0-.355-.5A.542.542,0,0,0,.467.031.636.636,0,0,0,.15.364,1.354,1.354,0,0,0,.039.7C.017.79.012.868,0,.917A.2.2,0,0,0,0,1,.664.664,0,0,0,.02.917.786.786,0,0,1,.069.7,1.476,1.476,0,0,1,.2.386.626.626,0,0,1,.5.1.46.46,0,0,1,.957.207a1.205,1.205,0,0,1,.311.469,4.29,4.29,0,0,1,.271,1.232,6.979,6.979,0,0,1,.016,1.278,2.624,2.624,0,0,1-.095.569c-.057.163-.171.325-.317.33A.482.482,0,0,1,.784,3.9a1.251,1.251,0,0,1-.2-.271,1.584,1.584,0,0,1-.108-.195L.44,3.371a.122.122,0,0,0,.027.068c.027.035.049.119.092.2a1.649,1.649,0,0,0,.19.3.506.506,0,0,0,.4.225A.349.349,0,0,0,1.4,4.04a.68.68,0,0,0,.149-.249,2.31,2.31,0,0,0,.122-.59,6.923,6.923,0,0,0,0-1.3,4.482,4.482,0,0,0-.3-1.27Z" transform="translate(33.014 13.091)" fill="#4c586e"/>
  <path id="Shape-16" data-name="Shape" d="M.431,5.054A5.564,5.564,0,0,1,.369.913C.629.328.989,0,1.384,0c.8,0,1.427,1.3,1.452,2.955S2.251,5.934,1.453,5.934C1.062,5.934.7,5.625.431,5.054Z" transform="translate(19.288 20.421)" fill="#4c586e"/>
</svg>
