<svg id="floorplan-complete-01" xmlns="http://www.w3.org/2000/svg" width="39" height="39" viewBox="0 0 39 39">
  <path id="Shape" d="M5.541,39A5.549,5.549,0,0,1,0,33.458V5.541A5.55,5.55,0,0,1,5.541,0a.618.618,0,0,1,.615.615V4.927H38.385A.615.615,0,0,1,39,5.541V38.385a.615.615,0,0,1-.615.615Z" fill="#4c586e"/>
  <path id="Path" d="M.615,24.221h9.853a.615.615,0,0,0,0-1.23H9.441v-2.67a.617.617,0,0,0-1.232,0v2.67H1.227V12.726H8.209V15.4a.617.617,0,0,0,1.232,0V12.112a.615.615,0,0,0-.615-.615h-7.6V1.232H8.209V7.191a.617.617,0,0,0,.617.607h3.315a.615.615,0,1,0,0-1.23H9.433V1.232h7.02V8.816a.618.618,0,1,0,1.232,0V1.232h5.3V13.149h-5.92a.615.615,0,0,0-.615.607v3.282a.618.618,0,0,0,1.232,0V14.37h5.3v8.621h-5.3V21.965a.618.618,0,1,0-1.232,0v1.026H15.427a.615.615,0,0,0,0,1.23h8.179a.615.615,0,0,0,.615-.615V.618A.618.618,0,0,0,23.606,0H.615A.618.618,0,0,0,0,.618V23.606a.615.615,0,0,0,.615.615Z" transform="translate(9.877 9.807)" fill="#4c586e"/>
</svg>
