<svg id="Group_27" data-name="Group 27" xmlns="http://www.w3.org/2000/svg" xmlns:xlink="http://www.w3.org/1999/xlink" width="259.32" height="43.182" viewBox="0 0 259.32 43.182">
  <defs>
    <clipPath id="clip-path">
      <path id="Clip_20" data-name="Clip 20" d="M0,0H36.968V43.182H0Z" fill="none"/>
    </clipPath>
    <clipPath id="clip-path-2">
      <path id="Clip_25" data-name="Clip 25" d="M0,0H4.131V4.3H0Z" fill="none"/>
    </clipPath>
  </defs>
  <path id="Fill_1" data-name="Fill 1" d="M5.193,31.161H0V0H12.667a9.1,9.1,0,0,1,6.291,2.09C20.5,3.477,21.28,6.027,21.28,9.669c0,2.745-.49,4.776-1.456,6.038A7.923,7.923,0,0,1,16,18.409l6,12.75H16.72l-5.4-11.991c-1.741,0-3.8-.029-6.123-.085V31.16Zm0-26.474v10.3H11.78a4.181,4.181,0,0,0,3.145-1.161c.743-.771,1.12-2.17,1.12-4.159,0-1.9-.377-3.226-1.12-3.927A4.427,4.427,0,0,0,11.78,4.687Z" transform="translate(50.06 11.769)" fill="#fefefe"/>
  <path id="Fill_3" data-name="Fill 3" d="M9.922,23.137A13.781,13.781,0,0,1,4.032,22.1,6.182,6.182,0,0,1,.95,18.6,20.3,20.3,0,0,1,0,11.611,21.711,21.711,0,0,1,.908,4.518a5.965,5.965,0,0,1,3-3.5A13.879,13.879,0,0,1,9.795,0a16.671,16.671,0,0,1,5.278.675A4.9,4.9,0,0,1,17.9,3.019a10.121,10.121,0,0,1,.886,4.666c0,2.073-.6,3.579-1.795,4.475a8.6,8.6,0,0,1-5.214,1.352H5.151a10.1,10.1,0,0,0,.591,3.4,3.235,3.235,0,0,0,1.794,1.751,9.948,9.948,0,0,0,3.738.549h6.84v3.083c-1.521.282-2.892.495-4.075.634A35.643,35.643,0,0,1,9.922,23.137ZM9.795,3.8a5.7,5.7,0,0,0-2.807.571A3.3,3.3,0,0,0,5.552,6.333a13.988,13.988,0,0,0-.443,4.01h6.164a3.33,3.33,0,0,0,2.2-.59,2.665,2.665,0,0,0,.675-2.069,3.914,3.914,0,0,0-.971-3.04A5.23,5.23,0,0,0,9.795,3.8Z" transform="translate(74.886 20.002)" fill="#fefefe"/>
  <path id="Fill_5" data-name="Fill 5" d="M0,.38H4.264l.971,2.364A14.808,14.808,0,0,1,8.8.781,10.945,10.945,0,0,1,12.793,0q3.714,0,5.362,2.175A9.307,9.307,0,0,1,19.8,7.938V23.011H14.566V8.571a3.824,3.824,0,0,0-1.013-2.829,3.706,3.706,0,0,0-2.744-1.013,8.542,8.542,0,0,0-2.871.464,12.4,12.4,0,0,0-2.7,1.394V23.011H0Z" transform="translate(98.318 19.918)" fill="#fefefe"/>
  <path id="Fill_7" data-name="Fill 7" d="M8.106,32.468c-2.746,0-4.806-.9-6.123-2.681S0,25.09,0,21.11a23.782,23.782,0,0,1,.8-6.862,6.672,6.672,0,0,1,2.66-3.757,9.28,9.28,0,0,1,5.067-1.2,18.238,18.238,0,0,1,6.164,1.139V0h5.235V32.214H15.58l-.887-2.2a9.963,9.963,0,0,1-3,1.71A9.961,9.961,0,0,1,8.106,32.468Zm2.027-19.254a5.543,5.543,0,0,0-2.913.654,3.857,3.857,0,0,0-1.541,2.3,17.511,17.511,0,0,0-.486,4.686,16.631,16.631,0,0,0,.465,4.454A3.961,3.961,0,0,0,7.114,27.57a4.8,4.8,0,0,0,2.724.676,9.863,9.863,0,0,0,4.856-1.478V14.186c-.919-.315-1.693-.55-2.364-.718A9.157,9.157,0,0,0,10.133,13.215Z" transform="translate(122.679 10.714)" fill="#fefefe"/>
  <path id="Fill_9" data-name="Fill 9" d="M10.134,23.137a13.741,13.741,0,0,1-5.869-1.055,6.558,6.558,0,0,1-3.23-3.548A18.788,18.788,0,0,1,0,11.569,19.383,19.383,0,0,1,1.035,4.433,6.214,6.214,0,0,1,4.244.971,14.771,14.771,0,0,1,10.134,0a14.635,14.635,0,0,1,5.932.992A6.388,6.388,0,0,1,19.3,4.5a18.944,18.944,0,0,1,1.055,7.071,19.49,19.49,0,0,1-1.012,7.051,6.3,6.3,0,0,1-3.209,3.5A14.627,14.627,0,0,1,10.134,23.137Zm0-18.958a6.988,6.988,0,0,0-2.893.486A3.2,3.2,0,0,0,5.7,6.734a16.987,16.987,0,0,0-.506,4.793A17.174,17.174,0,0,0,5.7,16.361a3.285,3.285,0,0,0,1.542,2.09,6.728,6.728,0,0,0,2.893.507,6.855,6.855,0,0,0,2.934-.507,3.283,3.283,0,0,0,1.541-2.09,17.1,17.1,0,0,0,.508-4.834,16.912,16.912,0,0,0-.508-4.793,3.2,3.2,0,0,0-1.541-2.068A7.121,7.121,0,0,0,10.134,4.18Z" transform="translate(147.167 20.002)" fill="#fefefe"/>
  <path id="Fill_11" data-name="Fill 11" d="M10.134,23.137a13.741,13.741,0,0,1-5.869-1.055,6.558,6.558,0,0,1-3.23-3.548A18.788,18.788,0,0,1,0,11.569,19.383,19.383,0,0,1,1.035,4.433,6.214,6.214,0,0,1,4.244.971,14.771,14.771,0,0,1,10.134,0a14.635,14.635,0,0,1,5.932.992A6.388,6.388,0,0,1,19.3,4.5a18.944,18.944,0,0,1,1.055,7.071,19.49,19.49,0,0,1-1.012,7.051,6.3,6.3,0,0,1-3.209,3.5A14.627,14.627,0,0,1,10.134,23.137Zm0-18.958a6.988,6.988,0,0,0-2.893.486A3.2,3.2,0,0,0,5.7,6.734a16.987,16.987,0,0,0-.506,4.793A17.174,17.174,0,0,0,5.7,16.361a3.285,3.285,0,0,0,1.542,2.09,6.728,6.728,0,0,0,2.893.507,6.855,6.855,0,0,0,2.934-.507,3.283,3.283,0,0,0,1.541-2.09,17.1,17.1,0,0,0,.508-4.834,16.912,16.912,0,0,0-.508-4.793,3.2,3.2,0,0,0-1.541-2.068A7.121,7.121,0,0,0,10.134,4.18Z" transform="translate(171.486 20.002)" fill="#fefefe"/>
  <path id="Fill_13" data-name="Fill 13" d="M8.106,32.468c-2.746,0-4.806-.9-6.123-2.681S0,25.09,0,21.11a23.782,23.782,0,0,1,.8-6.862,6.672,6.672,0,0,1,2.66-3.757,9.28,9.28,0,0,1,5.067-1.2,18.238,18.238,0,0,1,6.164,1.139V0h5.235V32.214H15.58l-.887-2.2a9.963,9.963,0,0,1-3,1.71A9.961,9.961,0,0,1,8.106,32.468Zm2.027-19.254a5.543,5.543,0,0,0-2.913.654,3.857,3.857,0,0,0-1.541,2.3,17.511,17.511,0,0,0-.486,4.686,16.631,16.631,0,0,0,.465,4.454A3.961,3.961,0,0,0,7.114,27.57a4.8,4.8,0,0,0,2.724.676,9.863,9.863,0,0,0,4.856-1.478V14.186c-.919-.315-1.693-.55-2.364-.718A9.157,9.157,0,0,0,10.133,13.215Z" transform="translate(195.805 10.714)" fill="#fefefe"/>
  <path id="Fill_15" data-name="Fill 15" d="M1.647,30.547Q0,28.795,0,24.91V0H5.236V24.193a5.315,5.315,0,0,0,.633,3.018A2.784,2.784,0,0,0,7.9,28.246l1.9.253v3.8H6.713a6.644,6.644,0,0,1-5.066-1.752" transform="translate(220.968 10.714)" fill="#fefefe"/>
  <path id="Fill_17" data-name="Fill 17" d="M9.922,23.137A13.781,13.781,0,0,1,4.032,22.1,6.182,6.182,0,0,1,.95,18.6,20.3,20.3,0,0,1,0,11.611,21.711,21.711,0,0,1,.908,4.518a5.965,5.965,0,0,1,3-3.5A13.879,13.879,0,0,1,9.795,0a16.671,16.671,0,0,1,5.278.675A4.9,4.9,0,0,1,17.9,3.019a10.121,10.121,0,0,1,.886,4.666c0,2.073-.6,3.579-1.795,4.475a8.6,8.6,0,0,1-5.214,1.352H5.151a10.1,10.1,0,0,0,.591,3.4,3.235,3.235,0,0,0,1.794,1.751,9.948,9.948,0,0,0,3.738.549h6.84v3.083c-1.521.282-2.892.495-4.075.634A35.643,35.643,0,0,1,9.922,23.137ZM9.795,3.8a5.7,5.7,0,0,0-2.807.571A3.3,3.3,0,0,0,5.552,6.333a13.988,13.988,0,0,0-.443,4.01h6.164a3.33,3.33,0,0,0,2.2-.59,2.665,2.665,0,0,0,.675-2.069,3.914,3.914,0,0,0-.971-3.04A5.23,5.23,0,0,0,9.795,3.8Z" transform="translate(233.213 20.002)" fill="#fefefe"/>
  <g id="Group_21" data-name="Group 21">
    <path id="Clip_20-2" data-name="Clip 20" d="M0,0H36.968V43.182H0Z" fill="none"/>
    <g id="Group_21-2" data-name="Group 21" clip-path="url(#clip-path)">
      <path id="Fill_19" data-name="Fill 19" d="M18.859,19.716a.763.763,0,0,1-1-.061c-.288-.285-.7-.679-1.2-1.128-1.031-.919-3.952-.539-3.952-.539l-1.5,1.157a1.06,1.06,0,0,0-.4.7l-.125.973a1.053,1.053,0,0,1-.263.572.012.012,0,0,1-.005.005q-.029.033-.06.063a.951.951,0,0,1-.076.064L8.437,22.942a1.061,1.061,0,0,1-1.488-.192l-3.1-4.014a1.061,1.061,0,0,1,.191-1.488l1.766-1.363a1.052,1.052,0,0,1,.635-.221l1.606-.02a1.057,1.057,0,0,0,.5-.134l1.263-.7L11.1,12.311s3.763-3.869,7.82-4.859c1.79-.437,4.8-.143,7.6.321h0c1.039.159,1.939.332,2.72.509a17.758,17.758,0,0,1,3.63,1.169,3.91,3.91,0,0,1,1.173.737l-.125.117h0l-.221.207a.031.031,0,0,0-.01-.005l-.417.365.006,0-.028.023-.182.152h0l-.084.065a7.9,7.9,0,0,0-.858-.332h0a7.816,7.816,0,0,0-1.075-.272c-9.8-1.208-9.374,1.17-9.374,1.17a.715.715,0,0,0-.037.139.007.007,0,0,1,0,.005.05.05,0,0,1,0,.012.492.492,0,0,0,.005.255,1.528,1.528,0,0,0,.268.625h0a18.721,18.721,0,0,0,1.685,2.354.764.764,0,0,1-.127,1.087l-.386.3,5.256,6.593c3.055-1.411,8.611-4.871,8.633-11.388C37,.97,28.15.095,28.15.095L3.142.01.146,0,0,43.057l36.756.125L19.108,19.524Z" transform="translate(0)" fill="#fefefe"/>
    </g>
  </g>
  <path id="Fill_22" data-name="Fill 22" d="M3.489,0V.513H2.039V4.3H1.45V.513H0V0Z" transform="translate(251.179 15.614)" fill="#fefefe"/>
  <g id="Group_26" data-name="Group 26" transform="translate(255.189 15.614)">
    <path id="Clip_25-2" data-name="Clip 25" d="M0,0H4.131V4.3H0Z" fill="none"/>
    <g id="Group_26-2" data-name="Group 26" clip-path="url(#clip-path-2)">
      <path id="Fill_24" data-name="Fill 24" d="M0,0H.835L2.073,3.639,3.3,0h.829V4.3H3.574V1.764c0-.088,0-.234.006-.437s.006-.421.006-.653L2.357,4.3H1.779L.539.674V.806c0,.105,0,.266.009.482s.009.374.009.476V4.3H0Z" fill="#fefefe"/>
    </g>
  </g>
</svg>
