<svg id="heat-ac-01" xmlns="http://www.w3.org/2000/svg" width="125" height="101.215" viewBox="0 0 125 101.215">
  <path id="Shape" d="M9.626,56.233a1.737,1.737,0,0,1-1.562-1.025L.139,36.719A1.67,1.67,0,0,1,0,36.111V1.736A1.737,1.737,0,0,1,1.736,0H123.264A1.736,1.736,0,0,1,125,1.7V36.05a1.587,1.587,0,0,1-.14.669l-7.925,18.489a1.736,1.736,0,0,1-1.562,1.025Z" transform="translate(0 0)" fill="#4c586e"/>
  <path id="Path" d="M0,1.736V12.309a1.736,1.736,0,0,0,3.394,0V3.429H89.878v8.88a1.736,1.736,0,0,0,3.4,0V1.736A1.736,1.736,0,0,0,91.545,0H1.7A1.736,1.736,0,0,0,0,1.736Z" transform="translate(15.859 36.979)" fill="#4c586e"/>
  <path id="Path-2" data-name="Path" d="M1.37,3.394H9.3A1.736,1.736,0,0,0,9.3,0H1.37a1.736,1.736,0,0,0,0,3.394Z" transform="translate(13.543 10.582)" fill="#4c586e"/>
  <path id="Path-3" data-name="Path" d="M8.142,3.175A1.736,1.736,0,1,0,5.694.822c-9.062,9.462-5.312,14.531-2.3,18.6C6.111,23.1,8.264,26,2.942,32.663a1.7,1.7,0,0,0,1.328,2.76A1.684,1.684,0,0,0,5.6,34.781c6.944-8.681,3.229-13.715.521-17.361C3.185,13.461,1.059,10.571,8.142,3.175Z" transform="translate(32.11 65.792)" fill="#4c586e"/>
  <path id="Path-4" data-name="Path" d="M8.142,2.859A1.736,1.736,0,0,0,8.09.454a1.736,1.736,0,0,0-2.4.052C-3.368,9.968.382,15.037,3.394,19.1c2.726,3.681,4.87,6.589-.443,13.247a1.675,1.675,0,0,0-.365,1.25,1.736,1.736,0,0,0,1.736,1.5,1.667,1.667,0,0,0,1.319-.634c6.944-8.681,3.238-13.715.521-17.361C3.185,13.145,1.067,10.246,8.142,2.859Z" transform="translate(50.486 66.108)" fill="#4c586e"/>
  <path id="Path-5" data-name="Path" d="M8.147,2.874A1.736,1.736,0,0,0,8.1.47,1.649,1.649,0,0,0,6.88,0,1.675,1.675,0,0,0,5.691.522C-3.363,9.984.378,15.053,3.39,19.116,6.116,22.8,8.269,25.7,2.948,32.362a1.736,1.736,0,0,0-.356,1.25,1.675,1.675,0,0,0,.625,1.137,1.736,1.736,0,0,0,1.059.365A1.675,1.675,0,0,0,5.6,34.48c6.944-8.681,3.229-13.715.521-17.361C3.182,13.161,1.064,10.262,8.147,2.874Z" transform="translate(68.866 66.092)" fill="#4c586e"/>
  <path id="Path-6" data-name="Path" d="M8.142,2.875A1.736,1.736,0,0,0,8.09.47,1.623,1.623,0,0,0,6.883,0,1.658,1.658,0,0,0,5.694.522C-3.368,9.984.382,15.053,3.394,19.116,6.111,22.8,8.264,25.7,2.942,32.362a1.736,1.736,0,0,0,.269,2.387A1.714,1.714,0,0,0,5.6,34.48c6.944-8.681,3.238-13.715.521-17.361C3.185,13.161,1.059,10.262,8.142,2.875Z" transform="translate(87.248 66.092)" fill="#4c586e"/>
</svg>
