<svg id="Group_6" data-name="Group 6" xmlns="http://www.w3.org/2000/svg" xmlns:xlink="http://www.w3.org/1999/xlink" width="25.02" height="19.911" viewBox="0 0 25.02 19.911">
  <defs>
    <clipPath id="clip-path">
      <path id="Clip_4" data-name="Clip 4" d="M0,0H25.019V11.718H0Z" transform="translate(0 0.001)" fill="none"/>
    </clipPath>
  </defs>
  <path id="Fill_1" data-name="Fill 1" d="M8.938,0,.015,7.357A.2.2,0,0,1,.008,7.4.227.227,0,0,0,0,7.45V14.9a.951.951,0,0,0,.295.7.952.952,0,0,0,.7.3H6.952V9.932h3.974v5.96h5.958a1.009,1.009,0,0,0,.994-.993V7.45a.216.216,0,0,0-.016-.093Z" transform="translate(3.572 4.019)" fill="#3e3e3b"/>
  <path id="Clip_4-2" data-name="Clip 4" d="M0,0H25.019V11.718H0Z" transform="translate(0 0.001)" fill="none"/>
  <path id="Fill_3" data-name="Fill 3" d="M24.847,9.7l-3.4-2.825V.544a.488.488,0,0,0-.14-.358.487.487,0,0,0-.357-.139H17.973a.487.487,0,0,0-.357.139.488.488,0,0,0-.14.358V3.57L13.69.4a1.922,1.922,0,0,0-2.358,0L.173,9.7A.451.451,0,0,0,0,10.033a.508.508,0,0,0,.109.366l.962,1.147a.528.528,0,0,0,.325.171.579.579,0,0,0,.374-.108L12.51,2.654l10.739,8.955a.48.48,0,0,0,.326.108h.047a.53.53,0,0,0,.326-.171L24.91,10.4a.5.5,0,0,0,.108-.365.451.451,0,0,0-.171-.333" fill="#3e3e3b"/>
</svg>
