<svg xmlns="http://www.w3.org/2000/svg" width="214.491" height="214.492" viewBox="0 0 214.491 214.492">
  <g id="Group_7" data-name="Group 7" transform="translate(2 2)">
    <path id="Stroke_1" data-name="Stroke 1" d="M48.584,71.913a18.544,18.544,0,0,1,5.22-4.445l.06-.035.06-.034a17.894,17.894,0,0,1,13.288-2l2.208.547L76.143,54.3l-1.574-1.635a17.921,17.921,0,0,1-4.91-12.531v-.159A17.834,17.834,0,0,1,74.568,27.5l1.575-1.637L69.42,14.218l-2.205.546a17.841,17.841,0,0,1-13.257-1.986l-.137-.079a17.93,17.93,0,0,1-8.4-10.518L44.794,0H31.348l-.63,2.185a17.9,17.9,0,0,1-8.379,10.507l-.06.034-.06.035a17.9,17.9,0,0,1-13.289,2l-2.207-.546L0,25.862,1.574,27.5a17.925,17.925,0,0,1,4.91,12.531v.158A17.843,17.843,0,0,1,1.575,52.661L0,54.3,6.723,65.942,8.928,65.4a17.837,17.837,0,0,1,13.257,1.986l.136.079a18.665,18.665,0,0,1,4.846,3.987" transform="translate(67.174 51.803)" fill="none" stroke="#4c586e" stroke-linecap="round" stroke-linejoin="round" stroke-miterlimit="10" stroke-width="4"/>
    <path id="Stroke_3" data-name="Stroke 3" d="M6.19,46.633V20.817A12.135,12.135,0,0,1,5.621,0V5.779a4.6,4.6,0,0,0,2.3,3.982,8.457,8.457,0,0,0,8.458,0h0a4.6,4.6,0,0,0,2.3-3.982V0a12.134,12.134,0,0,1-.569,20.817V46.633h0v10.8a12.135,12.135,0,0,1,.569,20.817V72.467a4.6,4.6,0,0,0-2.3-3.983,8.46,8.46,0,0,0-8.457,0h0a4.6,4.6,0,0,0-2.3,3.982v5.778a12.134,12.134,0,0,1,.569-20.817Z" transform="translate(93.096 80.443)" fill="none" stroke="#4c586e" stroke-linecap="round" stroke-linejoin="round" stroke-miterlimit="10" stroke-width="4"/>
    <path id="Stroke_5" data-name="Stroke 5" d="M210.491,105.246A105.245,105.245,0,1,1,105.245,0,105.246,105.246,0,0,1,210.491,105.246Z" fill="none" stroke="#4c586e" stroke-linecap="round" stroke-linejoin="round" stroke-miterlimit="10" stroke-width="4"/>
  </g>
</svg>
