<svg xmlns="http://www.w3.org/2000/svg" width="214.491" height="214.492" viewBox="0 0 214.491 214.492">
  <g id="Group_15" data-name="Group 15" transform="translate(2 2)">
    <path id="Stroke_1" data-name="Stroke 1" d="M210.491,105.246A105.245,105.245,0,1,1,105.245,0,105.246,105.246,0,0,1,210.491,105.246Z" fill="none" stroke="#4c586e" stroke-linecap="round" stroke-linejoin="round" stroke-miterlimit="10" stroke-width="4"/>
    <path id="Fill_3" data-name="Fill 3" d="M2.156,24.209a2.158,2.158,0,0,0,2.156-2.156v-4.4A10.11,10.11,0,0,1,9.187,9.008L17.34,3.994A2.157,2.157,0,0,0,16.71.06a2.129,2.129,0,0,0-1.629.262L6.928,5.336A14.391,14.391,0,0,0,0,17.656v4.4a2.159,2.159,0,0,0,2.156,2.156" transform="translate(77.583 55.564)" fill="#4c586e"/>
    <path id="Fill_5" data-name="Fill 5" d="M1.025,3.994,9.178,9.008a10.111,10.111,0,0,1,4.874,8.648v4.4a2.156,2.156,0,0,0,4.313,0v-4.4a14.391,14.391,0,0,0-6.928-12.32L3.284.322a2.151,2.151,0,0,0-2.965.706,2.158,2.158,0,0,0,.706,2.966" transform="translate(114.021 55.564)" fill="#4c586e"/>
    <path id="Fill_7" data-name="Fill 7" d="M2.156,25.884a2.158,2.158,0,0,0,2.156-2.156V4.783a.492.492,0,0,1,.51-.471H9.875a.492.492,0,0,1,.51.471V23.728a2.156,2.156,0,1,0,4.312,0V4.783A4.808,4.808,0,0,0,9.875,0H4.822A4.808,4.808,0,0,0,0,4.783V23.728a2.158,2.158,0,0,0,2.156,2.156" transform="translate(97.636 51.304)" fill="#4c586e"/>
    <path id="Fill_9" data-name="Fill 9" d="M4.312,11.876V2.155A2.156,2.156,0,0,0,0,2.155v9.721a2.156,2.156,0,0,0,4.312,0" transform="translate(76.53 87.433)" fill="#4c586e"/>
    <path id="Fill_11" data-name="Fill 11" d="M0,2.156v9.721a2.156,2.156,0,1,0,4.312,0V2.156A2.156,2.156,0,0,0,0,2.156" transform="translate(129.127 87.432)" fill="#4c586e"/>
    <path id="Fill_13" data-name="Fill 13" d="M36.522,79.571c-.727,0-1.45-.028-2.211-.086a21.464,21.464,0,0,1-8.267-1.766l-.112-.047L7.368,69.507a2.382,2.382,0,0,1-.358-.2l-5.7-2.52A2.2,2.2,0,0,1,0,64.773V57.2C0,49.232,5.99,46.579,6.245,46.47l12.629-6.188V32.529c-.283-.358-.527-.694-.746-1.027L14.44,25.9a13.791,13.791,0,0,1-2.279-7.6V4.313H6.66A2.156,2.156,0,1,1,6.66,0h57.9a2.156,2.156,0,0,1,0,4.313h-5.5V18.3a13.779,13.779,0,0,1-2.278,7.6L53.1,31.5c-.222.333-.468.672-.752,1.034l0,7.491L65.586,46.51A10.355,10.355,0,0,1,68.8,49,11.954,11.954,0,0,1,71.742,57.2v7.568a2.2,2.2,0,0,1-1.3,2.009L47.185,77.222c-.082.033-.527.21-1.257.454A22.688,22.688,0,0,1,36.522,79.571ZM18.874,45.189,8.087,50.472c-.15.068-3.68,1.734-3.68,6.733v6.134L27.737,73.65a27.638,27.638,0,0,0,7.13,1.436c.133,0,.269,0,.4,0A30.223,30.223,0,0,0,44.4,73.54L67.336,63.347V57.2c0-5-3.461-6.633-3.608-6.7L52.348,44.934V47.41a1.21,1.21,0,0,1-.012.164,2.192,2.192,0,0,1-.587,2.03c-4.914,4.915-10.255,7.407-15.874,7.407l-.412-.005c-9.3-.2-15.785-7.174-16.057-7.471a2.2,2.2,0,0,1-.522-1.971,1.263,1.263,0,0,1-.01-.154Zm4.312-8.835V41.24a2.15,2.15,0,0,1,0,.857v4.981c1.736,1.621,6.42,5.405,12.4,5.524l.273,0c4.186,0,8.283-1.869,12.176-5.556v-10.7A15.757,15.757,0,0,1,39.911,38.6h-8.6A15.768,15.768,0,0,1,23.186,36.354ZM16.474,4.313V18.3a9.485,9.485,0,0,0,1.569,5.231l3.686,5.6a11.445,11.445,0,0,0,9.581,5.162h8.6a11.442,11.442,0,0,0,9.581-5.162l3.686-5.6A9.484,9.484,0,0,0,54.747,18.3V4.313Z" transform="translate(69.374 81.329)" fill="#4c586e"/>
  </g>
</svg>
