<svg xmlns="http://www.w3.org/2000/svg" xmlns:xlink="http://www.w3.org/1999/xlink" width="40" height="40" viewBox="0 0 40 40">
  <defs>
    <filter id="Oval_Copy_2" x="0" y="0" width="40" height="40" filterUnits="userSpaceOnUse">
      <feOffset dy="1" input="SourceAlpha"/>
      <feGaussianBlur stdDeviation="1.5" result="blur"/>
      <feFlood flood-opacity="0.251"/>
      <feComposite operator="in" in2="blur"/>
      <feComposite in="SourceGraphic"/>
    </filter>
    <clipPath id="clip-path">
      <path id="Clip_2" data-name="Clip 2" d="M0,0H3.279V13H0Z" fill="none"/>
    </clipPath>
  </defs>
  <g id="in3" transform="translate(4.5 -76.5)">
    <g transform="matrix(1, 0, 0, 1, -4.5, 76.5)" filter="url(#Oval_Copy_2)">
      <circle id="Oval_Copy_2-2" data-name="Oval Copy 2" cx="15.5" cy="15.5" r="15.5" transform="translate(4.5 3.5)" fill="#fff"/>
    </g>
    <g id="Group_6" data-name="Group 6" transform="translate(9 89)">
      <g id="Group_3" data-name="Group 3">
        <path id="Clip_2-2" data-name="Clip 2" d="M0,0H3.279V13H0Z" fill="none"/>
        <g id="Group_3-2" data-name="Group 3" clip-path="url(#clip-path)">
          <path id="Fill_1" data-name="Fill 1" d="M3.088,13H.173V4.228H3.088V13ZM1.63,3.031H1.611A1.52,1.52,0,1,1,1.65,0a1.52,1.52,0,1,1-.02,3.031Z" transform="translate(0)" fill="#a1aab1"/>
        </g>
      </g>
      <path id="Fill_4" data-name="Fill 4" d="M0,8.977H2.915v-4.9a1.994,1.994,0,0,1,.1-.711A1.6,1.6,0,0,1,4.507,2.3c1.055,0,1.477.8,1.477,1.984V8.977H8.9V3.948C8.9,1.254,7.461,0,5.543,0A2.9,2.9,0,0,0,2.9,1.478h.019V.206H0c.038.823,0,8.772,0,8.772" transform="translate(4.701 4.023)" fill="#a1aab1"/>
    </g>
  </g>
</svg>
