<svg xmlns="http://www.w3.org/2000/svg" width="125" height="121.519" viewBox="0 0 125 121.519">
  <g id="insulation-011" transform="translate(0)">
    <path id="Shape" d="M5.37,31.221a18.274,18.274,0,1,1,12.914,5.34A18.279,18.279,0,0,1,5.37,31.221Z" transform="translate(28.019 28.054)" fill="#4c586e"/>
    <path id="Path" d="M4.279,0A4.271,4.271,0,1,0,8.541,4.262,4.271,4.271,0,0,0,4.279,0Z" transform="translate(42.028 42.063)" fill="#4c586e"/>
    <path id="Path-2" data-name="Path" d="M122.994,74.648H46.3A28.255,28.255,0,1,1,69.43,62.739a1.984,1.984,0,0,0,1.944,3.116,1.953,1.953,0,0,0,1.285-.807A32.281,32.281,0,1,0,46.3,78.623h74.708V88.657H46.3A42.3,42.3,0,1,1,85.176,63.1a1.944,1.944,0,0,0,0,1.528,1.985,1.985,0,0,0,3.663.052A46.316,46.316,0,1,0,46.307,92.632H123a2,2,0,0,0,1.988-1.988V76.635A2,2,0,0,0,122.994,74.648Z" transform="translate(0.01 0)" fill="#4c586e"/>
    <path id="Shape-2" data-name="Shape" d="M1.988,23.644A1.988,1.988,0,0,1,0,21.631V1.988A2,2,0,0,1,1.988,0H123a2,2,0,0,1,1.987,1.988V21.657A1.988,1.988,0,0,1,123,23.644Z" transform="translate(0 97.875)" fill="#4c586e"/>
  </g>
</svg>
