<svg id="interior-01" xmlns="http://www.w3.org/2000/svg" width="170" height="112" viewBox="0 0 170 112">
  <path id="Shape" d="M.545,37A.545.545,0,0,1,0,36.455V.545A.545.545,0,0,1,.545,0h63.91A.545.545,0,0,1,65,.545V36.455a.545.545,0,0,1-.545.545Z" transform="translate(86 59)" fill="#4c586e"/>
  <path id="Shape-2" data-name="Shape" d="M.543,37A.557.557,0,0,1,0,36.453V.548A.546.546,0,0,1,.543,0h59.9a.54.54,0,0,1,.392.157A.549.549,0,0,1,61,.548v35.9a.557.557,0,0,1-.555.547Z" transform="translate(22 58)" fill="#4c586e"/>
  <rect id="Rectangle" width="2" height="17" rx="0.46" transform="translate(90 69)" fill="#4c586e"/>
  <rect id="Rectangle-2" data-name="Rectangle" width="21" height="2" rx="0.46" transform="translate(42 63)" fill="#4c586e"/>
  <rect id="Rectangle-3" data-name="Rectangle" width="21" height="2" rx="0.46" transform="translate(42 80)" fill="#4c586e"/>
  <path id="Shape-3" data-name="Shape" d="M.544,35A.558.558,0,0,1,0,34.44V.56A.558.558,0,0,1,.544,0h68.91a.544.544,0,0,1,.39.165A.551.551,0,0,1,70,.56V34.44a.551.551,0,0,1-.156.4.544.544,0,0,1-.39.165Z" transform="translate(82 5)" fill="#4c586e"/>
  <path id="Shape-4" data-name="Shape" d="M.877,112A.876.876,0,0,1,0,111.136v-1.067a.876.876,0,0,1,.877-.864H17.357l1.185-9.085h-2.9a.865.865,0,0,1-.865-.865v-45.2a.865.865,0,0,1,.865-.865H46.1l-.983-.556a9.6,9.6,0,0,1-4.941-6.467v-.248H38.732a.6.6,0,0,1-.415-.178.565.565,0,0,1-.166-.4V41.55a.58.58,0,0,1,.581-.58H51.15v-.663h-.261a2.79,2.79,0,0,1-1.185-.688,17.353,17.353,0,0,1-2.37-2.44c-1.682-2.108-2.464-4.181-2.18-4.405s.959.225,1.47.639a16.916,16.916,0,0,1,2.37,2.452,17.691,17.691,0,0,1,1.646,2.369l.5.852.084-4.868h-.226c-.948-.225-2.63-2.061-3.483-3.115-1.682-2.108-2.631-4.1-2.18-4.406s2.132,1,3.815,3.068A18.721,18.721,0,0,1,50.7,31.991l.534.913.071-4.3h-.225c-.949-.237-2.631-2.073-3.484-3.127-1.682-2.1-2.464-4.157-2.18-4.395s.959.213,1.469.628a17.537,17.537,0,0,1,2.37,2.452,20.223,20.223,0,0,1,1.552,2.227l.663.971V25.8l-.083-.095a8.188,8.188,0,0,1-1-4.5c0-2.392.64-4.927,1.3-4.927s1.327,2.488,1.327,4.927c0,1.978-.439,3.92-1.02,4.513l-.095.094v2.3l.545-.936A16.916,16.916,0,0,1,54.064,24.8a17.488,17.488,0,0,1,2.37-2.452c.521-.415,1.2-.877,1.481-.64s-.013.983-.309,1.575a16.439,16.439,0,0,1-1.884,2.831c-.9,1.077-2.618,2.961-3.554,3.127h-.249v4.3l.534-.912A19.967,19.967,0,0,1,54,30.428c1.683-2.1,3.519-3.328,3.815-3.091s0,.983-.3,1.575a17.164,17.164,0,0,1-1.884,2.831c-.841,1.042-2.512,2.878-3.471,3.115l-.225.059.012,4.655.533-.924a18.7,18.7,0,0,1,1.552-2.215,17.537,17.537,0,0,1,2.37-2.452c.521-.415,1.2-.877,1.48-.64s-.012.984-.308,1.576A16.449,16.449,0,0,1,55.7,37.748a17.9,17.9,0,0,1-2.606,2.641l-.723.533H64.313a.581.581,0,0,1,.58.581v3.79a.569.569,0,0,1-.58.581H62.868v.237a9.005,9.005,0,0,1-3.223,5.342,11.224,11.224,0,0,1-1.73,1.184l-.984.556H95.154V49.379a.58.58,0,0,1,.58-.581H114.1V44.914H76.9a.876.876,0,0,1-.877-.865V.865A.876.876,0,0,1,76.9,0h79.123a.878.878,0,0,1,.878.865V44.049a.878.878,0,0,1-.878.865H119.111V48.8h18.626a.58.58,0,0,1,.58.581v3.813h18.839a.865.865,0,0,1,.865.865v45.2a.865.865,0,0,1-.865.865h-2.583l1.185,9.085h13.365a.876.876,0,0,1,.877.864v1.067a.876.876,0,0,1-.877.864Z" fill="#4c586e"/>
</svg>
