<svg id="kitchen-01" xmlns="http://www.w3.org/2000/svg" width="125" height="125" viewBox="0 0 125 125">
  <path id="Path" d="M1.354,2.5H9.479A1.25,1.25,0,1,0,9.479,0H1.354a1.25,1.25,0,1,0,0,2.491Z" transform="translate(32.691 53.121)" fill="#4c586e"/>
  <path id="Path-2" data-name="Path" d="M1.354,2.5H9.479A1.25,1.25,0,1,0,9.479,0H1.354a1.25,1.25,0,1,0,0,2.491Z" transform="translate(32.691 69.379)" fill="#4c586e"/>
  <path id="Shape" d="M.364,30.591A1.239,1.239,0,0,1,0,29.7V1.25A1.25,1.25,0,0,1,1.25,0H28.715a1.259,1.259,0,0,1,1.224,1.25V29.7a1.25,1.25,0,0,1-1.25,1.25H1.24A1.24,1.24,0,0,1,.364,30.591Z" transform="translate(88.16 88.689)" fill="#4c586e"/>
  <path id="Shape-2" data-name="Shape" d="M1.519,125A1.528,1.528,0,0,1,0,123.481V2.6A2.6,2.6,0,0,1,2.6,0H49.218a2.6,2.6,0,0,1,2.6,2.6v66.5h71.658A1.528,1.528,0,0,1,125,70.634v52.847A1.528,1.528,0,0,1,123.481,125Z" fill="#4c586e"/>
  <path id="Path-3" data-name="Path" d="M1.25,2.5H29.7a1.25,1.25,0,0,0,0-2.5H1.25a1.25,1.25,0,0,0,0,2.5Z" transform="translate(87.674 84.627)" fill="#4c586e"/>
  <path id="Shape-3" data-name="Shape" d="M0,3.281A3.281,3.281,0,1,1,3.281,6.563,3.281,3.281,0,0,1,0,3.281Z" transform="translate(110.035 75.477)" fill="#4c586e"/>
  <path id="Shape-4" data-name="Shape" d="M0,3.281A3.281,3.281,0,1,1,3.281,6.563,3.281,3.281,0,0,1,0,3.281Z" transform="translate(99.87 75.477)" fill="#4c586e"/>
  <path id="Shape-5" data-name="Shape" d="M.961,5.6a3.281,3.281,0,1,1,2.32.961A3.281,3.281,0,0,1,.961,5.6Z" transform="translate(89.705 75.477)" fill="#4c586e"/>
  <path id="Shape-6" data-name="Shape" d="M3.279,22.83v-.044A3.289,3.289,0,0,1,.137,18.559L2.4,11.016a1.241,1.241,0,0,1,1.2-.868H14.164V1.25A1.25,1.25,0,0,1,15.414,0H26.6a1.25,1.25,0,0,1,1.241,1.25v8.9H39.173A1.259,1.259,0,0,1,40.4,11.172L41.942,18.9a3.3,3.3,0,0,1-3.22,3.933Z" transform="translate(82.277 0.269)" fill="#4c586e"/>
  <path id="Path-4" data-name="Path" d="M1.25,2.5H5.313a1.25,1.25,0,0,0,0-2.5H1.25a1.25,1.25,0,0,0,0,2.5Z" transform="translate(87.674 14.497)" fill="#4c586e"/>
  <path id="Path-5" data-name="Path" d="M1.354,2.5H5.417A1.25,1.25,0,1,0,5.417,0H1.354a1.25,1.25,0,1,0,0,2.491Z" transform="translate(87.57 17.548)" fill="#4c586e"/>
  <path id="Shape-7" data-name="Shape" d="M.537,22.706a5.825,5.825,0,0,1,4.541-6.317V2.5H1.25a1.25,1.25,0,0,1,0-2.5h24.4a1.25,1.25,0,1,1,0,2.5H22.83V16.267h.711A2.334,2.334,0,0,1,25.868,18.6v7.041A1.249,1.249,0,0,1,24.6,26.892H18.525a1.258,1.258,0,0,1-1.25-1.249V18.6a2.334,2.334,0,0,1,2.344-2.335h.7V2.5H7.578V16.389A5.825,5.825,0,1,1,.537,22.706Z" transform="translate(57.188 36.858)" fill="#4c586e"/>
</svg>
