<svg id="Group_27" data-name="Group 27" xmlns="http://www.w3.org/2000/svg" xmlns:xlink="http://www.w3.org/1999/xlink" width="180" height="30.001" viewBox="0 0 180 30.001">
  <defs>
    <clipPath id="clip-path">
      <path id="Clip_20" data-name="Clip 20" d="M0,0H26V30H0Z" fill="none"/>
    </clipPath>
    <clipPath id="clip-path-2">
      <path id="Clip_25" data-name="Clip 25" d="M0,0H3V3H0Z" fill="none"/>
    </clipPath>
  </defs>
  <path id="Fill_1" data-name="Fill 1" d="M3.542,22H0V0H8.638a6.072,6.072,0,0,1,4.289,1.476c1.05.979,1.583,2.779,1.583,5.351a7.269,7.269,0,0,1-.994,4.263A5.412,5.412,0,0,1,10.912,13L15,22H11.4L7.717,13.534c-1.185,0-2.59-.02-4.175-.06V22Zm0-18.691v7.274H8.033a2.8,2.8,0,0,0,2.145-.82,4.348,4.348,0,0,0,.763-2.937,3.881,3.881,0,0,0-.763-2.773,2.956,2.956,0,0,0-2.145-.744Z" transform="translate(35 8)" fill="#4c586e"/>
  <path id="Fill_3" data-name="Fill 3" d="M6.865,16a9.54,9.54,0,0,1-4.075-.715A4.276,4.276,0,0,1,.657,12.861,14.052,14.052,0,0,1,0,8.03,15.007,15.007,0,0,1,.628,3.124,4.129,4.129,0,0,1,2.7.7,9.622,9.622,0,0,1,6.778,0a11.525,11.525,0,0,1,3.651.467,3.386,3.386,0,0,1,1.958,1.621A6.988,6.988,0,0,1,13,5.314a3.64,3.64,0,0,1-1.241,3.1,5.951,5.951,0,0,1-3.607.934H3.564a6.962,6.962,0,0,0,.41,2.35,2.236,2.236,0,0,0,1.241,1.212,6.886,6.886,0,0,0,2.586.379h4.732v2.132c-1.045.193-1.993.34-2.819.438A24.805,24.805,0,0,1,6.865,16ZM6.778,2.628a3.956,3.956,0,0,0-1.943.394,2.281,2.281,0,0,0-.994,1.357,9.721,9.721,0,0,0-.306,2.774H7.8a2.3,2.3,0,0,0,1.519-.409,1.842,1.842,0,0,0,.467-1.431,2.707,2.707,0,0,0-.671-2.1A3.621,3.621,0,0,0,6.778,2.628Z" transform="translate(52 14)" fill="#4c586e"/>
  <path id="Fill_5" data-name="Fill 5" d="M0,.264H3.015L3.7,1.908A10.523,10.523,0,0,1,6.224.543,7.852,7.852,0,0,1,9.045,0a4.487,4.487,0,0,1,3.791,1.512A6.4,6.4,0,0,1,14,5.519V16H10.3V5.96a2.633,2.633,0,0,0-.716-1.967,2.647,2.647,0,0,0-1.941-.7,6.13,6.13,0,0,0-2.029.323A8.825,8.825,0,0,0,3.7,4.58V16H0Z" transform="translate(68 14)" fill="#4c586e"/>
  <path id="Fill_7" data-name="Fill 7" d="M5.694,23a5,5,0,0,1-4.3-1.9C.469,19.841,0,17.774,0,14.954a16.963,16.963,0,0,1,.563-4.861A4.731,4.731,0,0,1,2.432,7.432a6.484,6.484,0,0,1,3.56-.852,12.716,12.716,0,0,1,4.331.807V0H14V22.82H10.945l-.623-1.555a7,7,0,0,1-2.106,1.211A6.968,6.968,0,0,1,5.694,23ZM7.118,9.362a3.863,3.863,0,0,0-2.046.463,2.73,2.73,0,0,0-1.083,1.63,12.508,12.508,0,0,0-.342,3.321,11.883,11.883,0,0,0,.327,3.154A2.813,2.813,0,0,0,5,19.53a3.349,3.349,0,0,0,1.913.479,6.9,6.9,0,0,0,3.411-1.047V10.049c-.644-.222-1.188-.389-1.661-.509A6.323,6.323,0,0,0,7.118,9.362Z" transform="translate(85 7)" fill="#4c586e"/>
  <path id="Fill_9" data-name="Fill 9" d="M6.971,16a9.414,9.414,0,0,1-4.038-.73A4.525,4.525,0,0,1,.711,12.818,13.076,13.076,0,0,1,0,8,13.487,13.487,0,0,1,.711,3.065,4.292,4.292,0,0,1,2.919.671,10.123,10.123,0,0,1,6.971,0a10.014,10.014,0,0,1,4.081.686A4.409,4.409,0,0,1,13.274,3.11,13.166,13.166,0,0,1,14,8a13.532,13.532,0,0,1-.7,4.876A4.345,4.345,0,0,1,11.1,15.3,10,10,0,0,1,6.971,16Zm0-13.109a4.786,4.786,0,0,0-1.99.336A2.211,2.211,0,0,0,3.92,4.657a11.821,11.821,0,0,0-.347,3.315,11.948,11.948,0,0,0,.347,3.343,2.272,2.272,0,0,0,1.061,1.445,4.605,4.605,0,0,0,1.99.351,4.687,4.687,0,0,0,2.018-.351,2.269,2.269,0,0,0,1.06-1.445A11.871,11.871,0,0,0,10.4,7.971a11.745,11.745,0,0,0-.349-3.315,2.208,2.208,0,0,0-1.06-1.43A4.871,4.871,0,0,0,6.971,2.891Z" transform="translate(102 14)" fill="#4c586e"/>
  <path id="Fill_11" data-name="Fill 11" d="M6.971,16a9.414,9.414,0,0,1-4.038-.73A4.525,4.525,0,0,1,.711,12.818,13.076,13.076,0,0,1,0,8,13.487,13.487,0,0,1,.711,3.065,4.292,4.292,0,0,1,2.919.671,10.123,10.123,0,0,1,6.971,0a10.014,10.014,0,0,1,4.081.686A4.409,4.409,0,0,1,13.274,3.11,13.166,13.166,0,0,1,14,8a13.532,13.532,0,0,1-.7,4.876A4.345,4.345,0,0,1,11.1,15.3,10,10,0,0,1,6.971,16Zm0-13.109a4.786,4.786,0,0,0-1.99.336A2.211,2.211,0,0,0,3.92,4.657a11.821,11.821,0,0,0-.347,3.315,11.948,11.948,0,0,0,.347,3.343,2.272,2.272,0,0,0,1.061,1.445,4.605,4.605,0,0,0,1.99.351,4.687,4.687,0,0,0,2.018-.351,2.269,2.269,0,0,0,1.06-1.445A11.871,11.871,0,0,0,10.4,7.971a11.745,11.745,0,0,0-.349-3.315,2.208,2.208,0,0,0-1.06-1.43A4.871,4.871,0,0,0,6.971,2.891Z" transform="translate(119 14)" fill="#4c586e"/>
  <path id="Fill_13" data-name="Fill 13" d="M5.694,23a5,5,0,0,1-4.3-1.9C.469,19.841,0,17.774,0,14.954a16.963,16.963,0,0,1,.563-4.861A4.731,4.731,0,0,1,2.432,7.432a6.484,6.484,0,0,1,3.56-.852,12.716,12.716,0,0,1,4.331.807V0H14V22.82H10.945l-.623-1.555a7,7,0,0,1-2.106,1.211A6.968,6.968,0,0,1,5.694,23ZM7.118,9.362a3.863,3.863,0,0,0-2.046.463,2.73,2.73,0,0,0-1.083,1.63,12.508,12.508,0,0,0-.342,3.321,11.883,11.883,0,0,0,.327,3.154A2.813,2.813,0,0,0,5,19.53a3.349,3.349,0,0,0,1.913.479,6.9,6.9,0,0,0,3.411-1.047V10.049c-.644-.222-1.188-.389-1.661-.509A6.323,6.323,0,0,0,7.118,9.362Z" transform="translate(136 7)" fill="#4c586e"/>
  <path id="Fill_15" data-name="Fill 15" d="M1.177,20.807A5.311,5.311,0,0,1,0,16.967V0H3.742V16.479a3.484,3.484,0,0,0,.452,2.056,2.021,2.021,0,0,0,1.448.7L7,19.412V22H4.8a4.887,4.887,0,0,1-3.62-1.193" transform="translate(153 8)" fill="#4c586e"/>
  <path id="Fill_17" data-name="Fill 17" d="M6.865,16a9.54,9.54,0,0,1-4.075-.715A4.276,4.276,0,0,1,.657,12.861,14.052,14.052,0,0,1,0,8.03,15.007,15.007,0,0,1,.628,3.124,4.129,4.129,0,0,1,2.7.7,9.622,9.622,0,0,1,6.778,0a11.525,11.525,0,0,1,3.651.467,3.386,3.386,0,0,1,1.958,1.621A6.988,6.988,0,0,1,13,5.314a3.64,3.64,0,0,1-1.241,3.1,5.951,5.951,0,0,1-3.607.934H3.564a6.962,6.962,0,0,0,.41,2.35,2.236,2.236,0,0,0,1.241,1.212,6.886,6.886,0,0,0,2.586.379h4.732v2.132c-1.045.193-1.993.34-2.819.438A24.805,24.805,0,0,1,6.865,16ZM6.778,2.628a3.956,3.956,0,0,0-1.943.394,2.281,2.281,0,0,0-.994,1.357,9.721,9.721,0,0,0-.306,2.774H7.8a2.3,2.3,0,0,0,1.519-.409,1.842,1.842,0,0,0,.467-1.431,2.707,2.707,0,0,0-.671-2.1A3.621,3.621,0,0,0,6.778,2.628Z" transform="translate(162 14)" fill="#4c586e"/>
  <g id="Group_21" data-name="Group 21">
    <path id="Clip_20-2" data-name="Clip 20" d="M0,0H26V30H0Z" fill="none"/>
    <g id="Group_21-2" data-name="Group 21" clip-path="url(#clip-path)">
      <path id="Fill_19" data-name="Fill 19" d="M13.264,13.7a.541.541,0,0,1-.706-.042c-.2-.2-.491-.472-.845-.784-.725-.638-2.779-.374-2.779-.374l-1.054.8a.734.734,0,0,0-.284.489l-.088.676a.728.728,0,0,1-.185.4l0,0q-.02.023-.042.044a.667.667,0,0,1-.053.044l-1.289.984a.752.752,0,0,1-1.047-.133l-2.18-2.789a.731.731,0,0,1,.134-1.034l1.242-.947a.746.746,0,0,1,.447-.154l1.13-.014a.751.751,0,0,0,.354-.093l.888-.489.906-1.733a13.912,13.912,0,0,1,5.5-3.376,15.94,15.94,0,0,1,5.342.223h0c.731.11,1.363.231,1.913.354a12.6,12.6,0,0,1,2.553.812,2.752,2.752,0,0,1,.825.512l-.088.081h0L23.7,7.3l-.007,0-.293.254,0,0-.02.016-.128.106h0l-.059.045a5.6,5.6,0,0,0-.6-.231h0a5.553,5.553,0,0,0-.756-.189c-6.9-.839-6.593.813-6.593.813a.492.492,0,0,0-.026.1.005.005,0,0,1,0,0,.035.035,0,0,1,0,.008.338.338,0,0,0,0,.177,1.056,1.056,0,0,0,.188.434h0a13.01,13.01,0,0,0,1.185,1.635.527.527,0,0,1-.089.755l-.271.207,3.7,4.58C22.077,15.034,25.985,12.63,26,8.1,26.025.674,19.8.066,19.8.066L2.21.007.1,0,0,29.913,25.851,30,13.439,13.564Z" transform="translate(0)" fill="#4c586e"/>
    </g>
  </g>
  <path id="Fill_22" data-name="Fill 22" d="M2,0V.358H1.169V3H.831V.358H0V0Z" transform="translate(175 11)" fill="#4c586e"/>
  <g id="Group_26" data-name="Group 26" transform="translate(177 11)">
    <path id="Clip_25-2" data-name="Clip 25" d="M0,0H3V3H0Z" fill="none"/>
    <g id="Group_26-2" data-name="Group 26" clip-path="url(#clip-path-2)">
      <path id="Fill_24" data-name="Fill 24" d="M0,0H.606l.9,2.536L2.4,0H3V3H2.6V1.23c0-.061,0-.163,0-.3s0-.293,0-.455L1.712,3h-.42L.391.47V.562C.391.635.394.747.4.9S.4,1.158.4,1.23V3H0Z" fill="#4c586e"/>
    </g>
  </g>
</svg>
