<svg xmlns="http://www.w3.org/2000/svg" width="64.81" height="65" viewBox="0 0 64.81 65">
  <g id="other-1-01" transform="translate(0 0)">
    <path id="Shape" d="M58.887,65c-.908-.1-4.5-.635-4.992-1.13L41.033,51.007h-.068l-4.757-.953-.236-.068c-.486-.2-.849-.345-1.815-5.065l-.136-.649,1.629-1.648-2.482-2.482L33,40.3,11.324,61.973a6.5,6.5,0,0,1-4.561,1.893,5.807,5.807,0,0,1-3.935-1.484,5.985,5.985,0,0,1-.191-8.655L24.681,31.642l-.159-.159c-4.67-4.675-9.167-9.167-10.234-10.229l-.041-.04H14.2c-6.618-2.156-6.812-2.228-7.044-2.569L0,5.895,5.637.291,6.481.74c11.822,6.639,12.286,6.9,12.426,7.4l.036.128c.073.245.282.853.526,1.607.517,1.584,1.239,3.808,1.508,4.62v.05L31.384,24.953,40.2,16.121l-.037-.128A10.971,10.971,0,0,1,42.83,4.928l1.815-1.815A11.363,11.363,0,0,1,57.87,1.338l1.507.768L51.929,9.581,55.2,12.875,62.658,5.41,63.426,6.9A11.362,11.362,0,0,1,61.682,20.2l-1.815,1.815a10.991,10.991,0,0,1-11.042,2.65l-.127-.036-.1.091-5.75,5.746-2.977,2.982,2.478,2.478,1.52-1.511H44.4A42.741,42.741,0,0,1,48.87,35.5c.7.1.726.109,1.87,5.741v.068L55.22,45.8c8.36,8.356,8.687,8.682,8.751,9.077l.84,4.747-.382.454C63.344,61.342,59.922,65,58.982,65Z" fill="#4c586e"/>
    <path id="Path" d="M1.67,0A1.647,1.647,0,0,0,.49.49a1.67,1.67,0,0,0,0,2.365,1.706,1.706,0,0,0,2.36,0A1.67,1.67,0,0,0,2.85.49,1.647,1.647,0,0,0,1.67,0Z" transform="translate(5.95 55.66)" fill="#4c586e"/>
  </g>
</svg>
