<svg id="other-1-011" xmlns="http://www.w3.org/2000/svg" width="124.634" height="125" viewBox="0 0 124.634 125">
  <path id="Shape" d="M113.244,125c-1.746-.192-8.65-1.222-9.6-2.174L78.908,98.092h-.131l-9.147-1.832-.454-.131c-.933-.384-1.632-.663-3.491-9.74l-.262-1.248,3.134-3.168L63.783,77.2l-.314.305L21.776,119.179A12.493,12.493,0,0,1,13,122.818a11.155,11.155,0,0,1-7.566-2.854,11.512,11.512,0,0,1-.367-16.644L47.462,60.85l-.306-.305c-8.981-8.99-17.63-17.63-19.681-19.672l-.078-.079h-.1c-12.725-4.145-13.1-4.285-13.546-4.94L0,11.337,10.84.558l1.624.864C35.2,14.191,36.09,14.689,36.36,15.648l.07.245c.139.472.541,1.641,1.012,3.09.995,3.046,2.382,7.322,2.9,8.885v.1L60.353,47.985,77.312,31l-.07-.245A21.1,21.1,0,0,1,82.364,9.478l3.491-3.491c6.467-6.467,16.706-7.837,25.433-3.413l2.9,1.475L99.864,18.424l6.293,6.337L120.5,10.4l1.475,2.872c4.5,8.78,3.16,19.053-3.352,25.564l-3.491,3.491a21.137,21.137,0,0,1-21.235,5.1l-.245-.069-.183.175L82.409,58.581l-5.726,5.734,4.766,4.765,2.924-2.906h1c.366.009.751.078,8.606,2.1,1.344.2,1.4.21,3.6,11.041v.131l8.615,8.632c16.077,16.068,16.7,16.7,16.827,17.456l1.615,9.13-.733.873c-2.085,2.426-8.666,9.461-10.473,9.461Z" fill="#4c586e"/>
  <path id="Path" d="M3.212,0A3.168,3.168,0,0,0,.943.943a3.212,3.212,0,0,0,0,4.547,3.282,3.282,0,0,0,4.538,0,3.212,3.212,0,0,0,0-4.547A3.168,3.168,0,0,0,3.212,0Z" transform="translate(11.442 107.038)" fill="#4c586e"/>
</svg>
