<svg xmlns="http://www.w3.org/2000/svg" width="95.073" height="125" viewBox="0 0 95.073 125">
  <g id="painting-01" transform="translate(0)">
    <path id="Shape" d="M44.161,125c-11.444,0-22.227-1.043-30.317-2.929C4.537,119.905.01,117.038.01,113.31V43.021a3.141,3.141,0,0,1,0-.5,44.186,44.186,0,0,1,88.312.06,3.041,3.041,0,0,1,0,.444v1.034a1.851,1.851,0,0,1-3.7,0V42.881c-.608-2.737-14.911-7.82-40.468-7.82S4.3,40.109,3.695,42.881v.252c.5,2.772,14.659,7.873,40.467,7.873,2.068,0,4.145-.035,6.169-.1a1.843,1.843,0,0,1,1.8,1.191h.243V74.955a5.066,5.066,0,0,1-5.066,5.057,1.357,1.357,0,0,0-1.355,1.364v4.275a6.022,6.022,0,1,1-12.044,0V71.992a1.26,1.26,0,0,0-2.511,0v6.56a6.318,6.318,0,0,1-12.635,0V52.727c-1.772-.3-3.432-.643-4.953-.99A36.109,36.109,0,0,1,3.686,48.1v65.171c0,2.2,12.443,7.986,40.476,7.986a152.39,152.39,0,0,0,24.062-1.738,1.865,1.865,0,0,1,2.129,1.529,1.851,1.851,0,0,1-1.529,2.129A155.884,155.884,0,0,1,45.079,125Z" transform="translate(0)" fill="#4c586e"/>
    <path id="Shape-2" data-name="Shape" d="M10.34,69.846V42.822A5.875,5.875,0,0,0,6.726,37.39l-1.99-.868A7.692,7.692,0,0,1,0,29.4V1.495A1.53,1.53,0,0,1,1.529,0H29.64a1.53,1.53,0,0,1,1.478,1.495V29.4a7.693,7.693,0,0,1-4.745,7.117l-1.99.868a5.875,5.875,0,0,0-3.615,5.432V69.846a5.214,5.214,0,1,1-10.427,0Z" transform="translate(63.956 49.642)" fill="#4c586e"/>
  </g>
</svg>
