<svg id="patio-011" xmlns="http://www.w3.org/2000/svg" width="127.692" height="125" viewBox="0 0 127.692 125">
  <path id="Shape" d="M23.894,114.962h-5.4a1.394,1.394,0,0,1-1.394-1.394v-3.437H6.727V112.8a1.395,1.395,0,0,1-2.789,0V86.9c0-4.964-3.721-19.13-3.881-19.734a1.386,1.386,0,0,1,1.35-1.777h5.7a1.387,1.387,0,0,1,1.386,1.226l2.282,18.882H17.1V76.47a1.4,1.4,0,0,1,1.394-1.394H48.23v-34.6H3.511a1.4,1.4,0,0,1-1.394-1.394V28.155a1.31,1.31,0,0,1,0-.222,1.4,1.4,0,0,1,.089-.319l.115-.213a1.234,1.234,0,0,1,.16-.2,1.111,1.111,0,0,1,.186-.169l.1-.071L48.949.106l.1-.044L49.19,0h.1l.177.009h.427L50.175.1,50.4.142,96.581,26.991l.151.106.106.089a.833.833,0,0,1,.089.089l.1.124.08.133.053.106v.222a.953.953,0,0,1,0,.124c0,.057,0,.113,0,.169V39.079a1.385,1.385,0,0,1-1.386,1.43H51.063V75.076H80.754a1.394,1.394,0,0,1,1.394,1.394v9.005h4.086l2.273-18.864a1.4,1.4,0,0,1,1.43-1.235h5.71a1.385,1.385,0,0,1,1.341,1.777c-.035.142-3.881,14.735-3.881,19.735V112.8a1.395,1.395,0,0,1-2.789,0v-2.665H82.184v3.437a1.394,1.394,0,0,1-1.4,1.394h-5.4A1.394,1.394,0,0,1,74,113.568v-3.437H59.368V112.8a1.394,1.394,0,1,1-2.78,0V86.889a1.4,1.4,0,0,1,1.385-1.395H73.959V83.264H53.807V113.55a1.386,1.386,0,0,1-1.385,1.4H46.835a1.4,1.4,0,0,1-1.394-1.4V83.264H25.306v2.229H39.065a1.4,1.4,0,0,1,1.394,1.395V112.8a1.395,1.395,0,0,1-2.789,0v-2.665H25.306v3.419a1.392,1.392,0,0,1-1.392,1.412Z" transform="translate(16.208 10.037)" fill="#4c586e"/>
  <path id="Shape-2" data-name="Shape" d="M1.131,6.6A3.863,3.863,0,1,1,3.865,7.727,3.864,3.864,0,0,1,1.131,6.6Z" transform="translate(109.041 10.792)" fill="#4c586e"/>
  <path id="Shape-3" data-name="Shape" d="M13.278,27.924v-3.97a1.5,1.5,0,0,1,.2-.728A8.64,8.64,0,0,1,9.6,21.619a1.486,1.486,0,0,1-.382.657L6.413,25.082A1.479,1.479,0,1,1,4.316,23l2.806-2.806a1.414,1.414,0,0,1,.658-.382A8.525,8.525,0,0,1,6.173,15.97a1.477,1.477,0,0,1-.729.186H1.474a1.474,1.474,0,0,1,0-2.948h3.97a1.4,1.4,0,0,1,.729.2A8.556,8.556,0,0,1,7.781,9.522a1.477,1.477,0,0,1-.658-.373l-2.8-2.842a1.482,1.482,0,0,1,0-2.1,1.528,1.528,0,0,1,2.087,0L9.237,7.026a1.38,1.38,0,0,1,.382.648,8.732,8.732,0,0,1,3.873-1.607,1.5,1.5,0,0,1-.2-.728V1.369a1.483,1.483,0,0,1,2.957,0v4a1.485,1.485,0,0,1-.2.728,8.619,8.619,0,0,1,3.873,1.616,1.455,1.455,0,0,1,.382-.657l2.806-2.815a1.529,1.529,0,0,1,2.088,0,1.472,1.472,0,0,1,.435,1.048,1.5,1.5,0,0,1-.427,1.048L22.4,9.149a1.483,1.483,0,0,1-.684.346,8.643,8.643,0,0,1,1.616,3.873,1.358,1.358,0,0,1,.728-.2h4a1.474,1.474,0,0,1,0,2.948h-3.97a1.432,1.432,0,0,1-.728-.186,8.685,8.685,0,0,1-1.616,3.872,1.411,1.411,0,0,1,.657.382l2.78,2.771a1.466,1.466,0,0,1,0,2.087,1.51,1.51,0,0,1-2.087,0L20.285,22.24a1.548,1.548,0,0,1-.382-.657,8.627,8.627,0,0,1-3.864,1.643,1.475,1.475,0,0,1,.2.728v3.97a1.483,1.483,0,0,1-2.957,0Z" transform="translate(98.161 0)" fill="#4c586e"/>
  <path id="Shape-4" data-name="Shape" d="M6.13,22.179a6.368,6.368,0,0,1,0-12.727h.284a11.093,11.093,0,0,1,22.062,1.421,5.872,5.872,0,0,1-2.211,11.306Z" transform="translate(0 4.04)" fill="#4c586e"/>
</svg>
