<svg id="paving-asphalt-01" xmlns="http://www.w3.org/2000/svg" width="125" height="125" viewBox="0 0 125 125">
  <path id="Shape" d="M87.124,124.442,71.159,108.475,55.193,124.442a1.96,1.96,0,0,1-2.692,0L36.535,108.475,20.561,124.442a1.9,1.9,0,0,1-2.683,0L.562,107.124a1.9,1.9,0,0,1,0-2.684L16.527,88.465.562,72.5a1.895,1.895,0,0,1,0-2.693L16.527,53.839.562,37.872a1.895,1.895,0,0,1,0-2.693L35.185.553a1.958,1.958,0,0,1,2.692,0L53.842,16.52,69.807.553a1.959,1.959,0,0,1,2.693,0L88.465,16.52,104.44.553a1.9,1.9,0,0,1,2.683,0l17.316,17.318a1.9,1.9,0,0,1,0,2.693L108.473,36.53,124.438,52.5a1.895,1.895,0,0,1,0,2.693L108.473,71.157l15.965,15.966a1.9,1.9,0,0,1,0,2.693L89.816,124.442a1.9,1.9,0,0,1-2.692,0Z" fill="#4c586e"/>
</svg>
