<svg id="plumbing-01" xmlns="http://www.w3.org/2000/svg" width="106.574" height="125" viewBox="0 0 106.574 125">
  <path id="Shape" d="M1.468,21.145a7.624,7.624,0,0,1-1.192-6.75c1.261-5.54,5.706-12.568,5.9-12.873L7.139,0,8.1,1.531c.2.3,4.731,7.567,5.915,12.838.748,3.4-.261,5.567-1.236,6.776a7.393,7.393,0,0,1-11.307,0Z" transform="translate(7.169 101.227)" fill="#4c586e"/>
  <path id="Shape-2" data-name="Shape" d="M6.715,46.22A6.724,6.724,0,0,1,0,39.514V6.715A6.724,6.724,0,0,1,6.715,0h5.61V46.22Z" transform="translate(94.249 36.167)" fill="#4c586e"/>
  <path id="Path" d="M58.653,10.2h-.1L42.771,12.013l-.122-.426a5.027,5.027,0,0,0-2.722-3.218l-.313-.148V6.482a6.723,6.723,0,0,0-13.438,0V8.073l-.357.13A5.019,5.019,0,0,0,22.7,11.561l-.122.452L7.1,10.2A6.9,6.9,0,0,0,0,17.319a6.9,6.9,0,0,0,7.132,7.115h.1l15.5-1.783.148.357a4.993,4.993,0,0,0,2.905,2.748l.365.13v7.88h3.14V22.929H27.515a1.853,1.853,0,0,1-1.853-1.809v-1.4L24.279,19.6a12.7,12.7,0,0,0-2.3,0L7.127,21.337a3.8,3.8,0,0,1-3.94-3.975,3.784,3.784,0,0,1,3.862-3.984l14.943,1.74a14.282,14.282,0,0,0,2.279,0l1.426-.13V12.909a1.861,1.861,0,0,1,1.818-1.844h1.8V6.473a3.575,3.575,0,1,1,7.15,0v4.5l1.479.087a1.861,1.861,0,0,1,1.74,1.853v1.983l1.392.157a14.491,14.491,0,0,0,2.609.061l15.021-1.74a3.784,3.784,0,0,1,3.94,3.975,3.775,3.775,0,0,1-3.862,3.975L43.675,19.58a14.456,14.456,0,0,0-2.609.061l-1.339.122V21.12a1.844,1.844,0,0,1-1.74,1.792L36.508,23V33.784h3.149V25.756l.313-.148A4.932,4.932,0,0,0,42.484,23l.148-.348h.818l15.273,1.74a6.889,6.889,0,0,0,7.1-7.115,6.9,6.9,0,0,0-7.167-7.08Z" transform="translate(26.907)" fill="#4c586e"/>
  <path id="Path-2" data-name="Path" d="M70.922,5.775a8.446,8.446,0,0,0,8.437,8.437H92.092v-3.14H79.367a5.3,5.3,0,0,1-5.3-5.3V3.688A3.627,3.627,0,0,0,70.443.061H67.069L62.841,0H52.535l-3.8.061A3.636,3.636,0,0,0,45.1,3.688V5.775a5.3,5.3,0,0,1-5.3,5.3H20.666A18.735,18.735,0,0,0,1.957,29.79V49.917l-.261.157A5.3,5.3,0,0,0,0,54.126v1.209c0,2.174,1.444,3.879,3.288,3.879H25.354c1.844,0,3.288-1.74,3.288-3.879V53.918a4.819,4.819,0,0,0-1.74-3.844l-.252-.157V35.826H42.671l.165.287c2.148,4.349,8.889,7.315,16.761,7.315s14.595-2.922,16.743-7.315l.148-.3h15.6V32.686h-18l-.27,1.226c-.7,3.149-6.21,6.393-14.238,6.393s-13.542-3.244-14.238-6.393l-.27-1.226H26.807a3.279,3.279,0,0,0-3.288,3.279V52.491a.3.3,0,0,0,.3.3h1.54l.087.444v2.14a1.383,1.383,0,0,1,0,.3l-.087.444H3.236l-.1-.435a1.8,1.8,0,0,1,0-.3V53.509a1.74,1.74,0,0,1,0-.3l.1-.435H4.766a.3.3,0,0,0,.3-.3V29.79A15.586,15.586,0,0,1,20.649,14.212H39.784a8.446,8.446,0,0,0,8.437-8.437V3.166h22.7Z" transform="translate(0 35.837)" fill="#4c586e"/>
</svg>
