<svg xmlns="http://www.w3.org/2000/svg" width="100.858" height="95.001" viewBox="0 0 100.858 95.001">
  <g id="repair-01" transform="translate(0 0)">
    <path id="Shape" d="M14.167,94.294,2.322,82.449a2.613,2.613,0,0,1-.381-3.021c.755-1.821,3.494-4.722,5.746-5a.382.382,0,0,0,.205-.105L25.264,56.981l2.922-.417a.329.329,0,0,0,.2-.1l6.353-6.353a.34.34,0,0,0,.106-.247.343.343,0,0,0-.106-.248L19.715,34.583a.329.329,0,0,0-.141-.085c-9.113-2.972-9.381-3.071-9.691-3.529L0,13.413,7.7,5.684l1.108.628C24.791,15.284,25.751,15.792,25.942,16.5c.042.077.325.939.706,2.118.72,2.2,1.793,5.485,2.174,6.656a.435.435,0,0,0,.085.141L43.927,40.442a.374.374,0,0,0,.5,0L54.657,30.178a.352.352,0,0,0,0-.494L54.4,29.43l-.176-4.518,3.035-3.049a.318.318,0,0,0,.106-.24c.028-1.715-.939-3.932-2.731-6.226-3.24-4.186-8.294-7.468-11.767-7.715a4.07,4.07,0,0,1-4-3.353A3.373,3.373,0,0,1,41.422.8,19.567,19.567,0,0,1,47.174,0c5.245,0,15.8,1.758,27.593,13.547L87.135,25.922l-.777,1.122a5.357,5.357,0,0,0,.339,6.868,5.47,5.47,0,0,0,7.059.176l1.143-.854,5.774,5.774.184,4.518L86.472,57.912l-4.518-.184-5.817-5.817,1.017-1.157a5.138,5.138,0,0,0-6.961-7.56l-1.165.882-1.948-1.94a.338.338,0,0,0-.494,0L56.358,52.364a.343.343,0,0,0-.106.248.34.34,0,0,0,.106.247l1.758,1.765a.375.375,0,0,0,.255.106.359.359,0,0,0,.247-.106l1.842-1.87h.707c.254,0,.515.049,6.162,1.5.939.121.974.121,2.548,7.885a.353.353,0,0,0,.092.184l6.07,6.107C87.332,79.738,88.01,80.41,88.1,80.946l1.179,6.565-.515.6c-1.482,1.736-6.191,6.769-7.469,6.769H81.17c-1.539-.141-6.225-.889-6.882-1.552L56.641,75.68a.347.347,0,0,0-.184-.092c-1.68-.347-6.557-1.32-6.557-1.32l-.325-.092c-.65-.261-1.165-.466-2.5-6.96l-.177-.868,2.033-2.04a.352.352,0,0,0,0-.494l-1.765-1.765a.36.36,0,0,0-.5,0L40.116,68.6a.333.333,0,0,0-.1.2L39.65,71.4,22.292,88.753a.333.333,0,0,0-.1.212,4.534,4.534,0,0,1-.614,1.7C20.732,92.134,18.1,95,15.854,95A2.37,2.37,0,0,1,14.167,94.294Z" fill="#4c586e"/>
  </g>
</svg>
