<svg xmlns="http://www.w3.org/2000/svg" width="125.003" height="125" viewBox="0 0 125.003 125">
  <g id="roofing-accessories-01" transform="translate(0)">
    <path id="Shape" d="M27.588,124.419l-8.75-10.209a1.625,1.625,0,0,1-.4-1.076v-6.78l-1.181.33a1.658,1.658,0,1,1-.868-3.195l2.075-.572V94.722l-1.18.321a1.649,1.649,0,0,1-1.893-2.4,1.606,1.606,0,0,1,1-.781l2.075-.581V83.082l-1.18.329a1.683,1.683,0,0,1-2.048-1.154,1.657,1.657,0,0,1,1.154-2.04l2.075-.581V71.441l-1.18.329a1.658,1.658,0,1,1-.868-3.194L18.464,68V59.809l-1.18.33a1.658,1.658,0,1,1-.868-3.194l2.075-.573V30.078H1.66a1.666,1.666,0,0,1-1.2-.512A1.686,1.686,0,0,1,0,28.342c.356-7.283,5.886-12.829,9.653-13.967l3.689-13.16A1.658,1.658,0,0,1,14.941,0H42.857a1.658,1.658,0,0,1,1.6,1.215l3.689,13.16c3.767,1.138,9.3,6.684,9.653,13.967a1.64,1.64,0,0,1-.451,1.224,1.736,1.736,0,0,1-1.207.512H39.359V50.573l1.658-.46a1.659,1.659,0,0,1,2.04,1.155,1.63,1.63,0,0,1-.148,1.258,1.669,1.669,0,0,1-1,.781l-2.552.712v8.194l1.658-.46a1.658,1.658,0,0,1,.868,3.194l-2.552.7V73.82l1.658-.461a1.658,1.658,0,0,1,.868,3.195l-2.552.7v8.238l1.658-.46a1.658,1.658,0,0,1,.868,3.186l-2.552.712v8.2l1.659-.469a1.658,1.658,0,0,1,.868,3.195l-2.552.712v12.56a1.625,1.625,0,0,1-.4,1.076l-8.75,10.209a1.668,1.668,0,0,1-2.518,0Z" fill="#4c586e"/>
    <path id="Shape-2" data-name="Shape" d="M27.347,123.924l-7.266-19.358a1.661,1.661,0,0,1-.1-.581V15.911H1.651a1.732,1.732,0,0,1-1.2-.512A1.663,1.663,0,0,1,0,14.167C.41,5.825,12.294,0,28.9,0c16.346,0,28.49,5.963,28.9,14.167a1.674,1.674,0,0,1-.46,1.224,1.637,1.637,0,0,1-1.2.52H37.815v88.073a1.682,1.682,0,0,1-.1.581l-7.266,19.358A1.65,1.65,0,0,1,28.9,125,1.675,1.675,0,0,1,27.347,123.924Z" transform="translate(67.204)" fill="#4c586e"/>
  </g>
</svg>
