<svg xmlns="http://www.w3.org/2000/svg" width="124.999" height="125" viewBox="0 0 124.999 125">
  <g id="roofing-underlayment-01" transform="translate(0 0)">
    <path id="Shape" d="M67.213,125H1.8A1.8,1.8,0,0,1,0,123.22V102.934a1.846,1.846,0,0,1,.122-.643H.183c.2-.686,1.032-2.856,3.923-10.338l21.5-55.694a1.806,1.806,0,0,1,1.675-1.147H60.356a1.8,1.8,0,0,1,0,3.594H28.516l-24.1,62.413H58.75a17.742,17.742,0,0,1-7.1-14.227,21.771,21.771,0,0,1,1.389-7.665l25.5-66.918c.009-.035.061-.157.061-.157A21.7,21.7,0,0,1,98.159,0,26.91,26.91,0,0,1,125,26.841a33.12,33.12,0,0,1-1.1,8.489,1.284,1.284,0,0,1-.051.174L98.836,101.71A32.984,32.984,0,0,1,67.308,125Z" fill="#4c586e"/>
    <path id="Path" d="M18.305.115a1.806,1.806,0,0,0-2.318,1.042L.137,42.823a1.788,1.788,0,0,0,0,1.372,1.823,1.823,0,0,0,1.007.946,1.736,1.736,0,0,0,.634.113A1.806,1.806,0,0,0,3.461,44.1L19.347,2.433a1.788,1.788,0,0,0,0-1.372A1.823,1.823,0,0,0,18.305.115Z" transform="translate(73.188 13.427)" fill="#4c586e"/>
  </g>
</svg>
