<svg id="shingles-01" xmlns="http://www.w3.org/2000/svg" width="125" height="84.289" viewBox="0 0 125 84.289">
  <path id="Shape" d="M96.251,77.041a1.182,1.182,0,0,1-.557-1.106V69.676H87.934A1.172,1.172,0,0,1,86.762,68.5V54.728H83.9V68.46a1.181,1.181,0,0,1-1.181,1.181H80.174v6.294a1.181,1.181,0,1,1-2.353,0V69.641H74.957v6.294a1.181,1.181,0,1,1-2.353,0V69.676H64.826A1.181,1.181,0,0,1,63.654,68.5V54.728H60.79V68.46a1.18,1.18,0,0,1-1.172,1.181H57.066v6.294a1.181,1.181,0,1,1-2.353,0V69.641H51.849v6.294a1.172,1.172,0,1,1-2.344,0V69.676H41.745A1.181,1.181,0,0,1,40.564,68.5V54.728H37.7V68.46a1.172,1.172,0,0,1-1.173,1.181H33.976v6.294a1.172,1.172,0,1,1-2.344,0V69.641H28.768v6.294a1.181,1.181,0,1,1-2.353,0V69.676H18.654A1.172,1.172,0,0,1,17.483,68.5V54.728H14.618V68.5a1.181,1.181,0,0,1-1.18,1.146H10.895v6.294a1.181,1.181,0,1,1-2.353,0V69.641H5.677v6.294a1.172,1.172,0,0,1-2.344,0V69.676H1.172a1.181,1.181,0,0,1,0-2.353H12.265v-12.6H4.505a1.172,1.172,0,0,1-1.172-1.172V39.78H1.172a1.172,1.172,0,0,1,0-2.344h5.9v-12.6h-5.9a1.181,1.181,0,0,1,0-2.353H16.007V9.928H8.238A1.172,1.172,0,0,1,7.066,8.756V1.282a1.172,1.172,0,1,1,2.344,0V7.575H24.948V1.282a1.172,1.172,0,0,1,2.344,0V8.721A1.172,1.172,0,0,1,26.12,9.893H23.567v12.6H39.1V9.928h-7.76a1.181,1.181,0,0,1-1.181-1.172V1.282a1.181,1.181,0,1,1,2.353,0V7.575H48.029V1.282a1.181,1.181,0,1,1,2.353,0V8.721A1.18,1.18,0,0,1,49.21,9.893H46.658v12.6H62.179V9.928H54.419a1.181,1.181,0,0,1-1.172-1.172V1.282a1.181,1.181,0,1,1,2.353,0V7.575H71.12V1.282a1.181,1.181,0,1,1,2.353,0V8.721a1.18,1.18,0,0,1-1.181,1.172H69.748v12.6H85.269V9.928h-7.76a1.172,1.172,0,0,1-1.172-1.172V1.282a1.172,1.172,0,1,1,2.344,0V7.575H94.175V1.282a1.172,1.172,0,1,1,2.344,0V8.721a1.172,1.172,0,0,1-1.172,1.172H92.83v12.6h15.538V9.928H100.6a1.181,1.181,0,0,1-1.181-1.172V1.282a1.181,1.181,0,1,1,2.353,0V7.54h14.878a1.181,1.181,0,0,1,0,2.353h-.686V22.523h.686a1.18,1.18,0,0,1,0,2.352h-1.858a1.172,1.172,0,0,1-.868-.347,1.192,1.192,0,0,1-.347-.868V9.893H110.7V23.66a1.171,1.171,0,0,1-1.172,1.181h-2.551v12.6h9.661a1.172,1.172,0,1,1,0,2.344h-.686V53.556a1.181,1.181,0,0,1-1.172,1.172h-2.552V67.367h4.41a1.181,1.181,0,0,1,0,2.353h-5.582a1.172,1.172,0,0,1-.868-.347,1.136,1.136,0,0,1-.347-.868V54.728h-2.865V68.46a1.172,1.172,0,0,1-1.172,1.181h-2.552v6.294a1.172,1.172,0,1,1-2.344,0V69.641H98.047v6.294a1.181,1.181,0,0,1-1.8,1.106Z" transform="translate(3.611 3.536)" fill="#4c586e"/>
  <path id="Path" d="M1.079,9.935H2.937A1.181,1.181,0,0,0,4.109,8.763V1.323a1.181,1.181,0,1,0-2.344,0V7.617H1.079a1.181,1.181,0,0,0,0,2.352Z" transform="translate(3.704 3.494)" fill="#4c586e"/>
  <path id="Shape-2" data-name="Shape" d="M1.172,84.289A1.172,1.172,0,0,1,0,83.116V1.172A1.172,1.172,0,0,1,1.172,0H123.828A1.172,1.172,0,0,1,125,1.172V83.116a1.172,1.172,0,0,1-1.172,1.173Z" fill="#4c586e"/>
</svg>
