<svg id="siding-01" xmlns="http://www.w3.org/2000/svg" width="125" height="103.571" viewBox="0 0 125 103.571">
  <path id="Shape" d="M3.04,1.729H.435A.434.434,0,0,1,0,1.294V.721A.434.434,0,0,1,.435.287H3.04A.992.992,0,0,1,3.736,0a1.008,1.008,0,0,1,0,2.015A.991.991,0,0,1,3.04,1.729Z" transform="translate(105.335 86.275)" fill="#4c586e"/>
  <path id="Shape-2" data-name="Shape" d="M9.392,103.571a1.454,1.454,0,0,1-.33-.052,1.086,1.086,0,0,1-1.025-1.077,1.059,1.059,0,0,1,.226-.652.215.215,0,0,0,0-.131V47.485a.244.244,0,0,0,0-.13.487.487,0,0,1-.087-.131.227.227,0,0,0-.157-.1.2.2,0,0,0-.148.061L6.593,48.45a2.335,2.335,0,0,1-1.668.687,2.4,2.4,0,0,1-1.651-.67L.738,46.035A2.4,2.4,0,0,1,0,44.3a2.434,2.434,0,0,1,.73-1.738L42.021,2.9l.157-.157L43.61,1.382l.2-.174L44.4.652A2.379,2.379,0,0,1,46.034,0a2.344,2.344,0,0,1,1.651.669L74.572,26.445a.238.238,0,0,0,.235,0,.21.21,0,0,0,.14-.2v-.869a1.085,1.085,0,0,1,1.076-1.085h1.355a.217.217,0,0,0,.218-.217V14.43a1.085,1.085,0,0,1,1.085-1.085h3.049a1.086,1.086,0,0,1,1.086,1.085v9.644a.217.217,0,0,0,.217.217h1.408a1.085,1.085,0,0,1,1.085,1.085V36.808a.2.2,0,0,0,.07.157L87.334,38.7l3.684,3.475a1.064,1.064,0,0,1,.1.148v.069l.052.061a2.38,2.38,0,0,1,.13,3.318l-1.468,1.633a.2.2,0,0,0-.052.191.226.226,0,0,0,.139.157L123.8,60.568l.1.052h.13l.052.078a.353.353,0,0,0,.131,0h.208a1.06,1.06,0,0,1,.565.825,1.079,1.079,0,0,1-.139.73,1.153,1.153,0,0,1-1.042.695h-1.737a.217.217,0,0,0-.218.218v39.275a1.086,1.086,0,0,1-1.085,1.086H14.777a1.021,1.021,0,0,1-.26.043Z" fill="#4c586e"/>
  <path id="Shape-3" data-name="Shape" d="M.652,22.361A.651.651,0,0,1,0,21.71V.652A.651.651,0,0,1,.652,0H12.562a.651.651,0,0,1,.652.652V21.71a.651.651,0,0,1-.652.652Z" transform="translate(52.472 58.014)" fill="#4c586e"/>
  <path id="Shape-4" data-name="Shape" d="M12.553,22.361H.652A.642.642,0,0,1,0,21.71V.652A.642.642,0,0,1,.652,0h11.9A.642.642,0,0,1,13.2.652V21.71a.642.642,0,0,1-.642.652Z" transform="translate(26.279 58.014)" fill="#4c586e"/>
</svg>
