<svg xmlns="http://www.w3.org/2000/svg" width="146.999" height="75.215" viewBox="0 0 146.999 75.215">
  <g id="trim-01" transform="translate(0)">
    <path id="Shape" d="M144.683,75.215H60.648a2.318,2.318,0,0,1-2.317-2.308V71.887a2.306,2.306,0,0,0-2.307-2.307H54.5A2.318,2.318,0,0,1,52.216,67.6L52,66.181C48.857,44.937,28.748,24.521,8.024,21.458l-1.418-.214a2.318,2.318,0,0,1-1.981-2.287V17.426a2.307,2.307,0,0,0-2.307-2.308A2.317,2.317,0,0,1,0,12.75V2.307A2.308,2.308,0,0,1,2.318,0H144.683A2.306,2.306,0,0,1,147,2.307v70.6a2.306,2.306,0,0,1-2.306,2.308Z" fill="#4c586e"/>
  </g>
</svg>
