<svg id="trustpilot_logo" data-name="trustpilot logo" xmlns="http://www.w3.org/2000/svg" width="149" height="36" viewBox="0 0 149 36">
  <path id="Shape" d="M63.954,23H60.978V5.008H63.8V6.787h.053A3.624,3.624,0,0,1,65.6,5.148a5.886,5.886,0,0,1,2.436-.5,6.41,6.41,0,0,1,2.778.551,5.42,5.42,0,0,1,1.976,1.5,6.46,6.46,0,0,1,1.172,2.228,9.135,9.135,0,0,1,.4,2.714A9.231,9.231,0,0,1,74,14.2a6.832,6.832,0,0,1-1.066,2.2,5.18,5.18,0,0,1-1.817,1.524,5.493,5.493,0,0,1-2.595.576,7.539,7.539,0,0,1-1.3-.115,5.833,5.833,0,0,1-1.251-.372,4.506,4.506,0,0,1-1.105-.653,4.085,4.085,0,0,1-.856-.922h-.053V23Zm3.687-16.06A3.324,3.324,0,0,0,64.81,8.209a5.532,5.532,0,0,0-.949,3.38,6.25,6.25,0,0,0,.251,1.844,4.073,4.073,0,0,0,.751,1.461,3.541,3.541,0,0,0,1.184.96,3.811,3.811,0,0,0,3.332-.051,3.613,3.613,0,0,0,1.158-1.05A4.306,4.306,0,0,0,71.2,13.28a8.044,8.044,0,0,0,.185-1.691,6.432,6.432,0,0,0-.238-1.729,4.587,4.587,0,0,0-.711-1.485A3.6,3.6,0,0,0,69.26,7.338,3.368,3.368,0,0,0,67.641,6.941ZM44.124,18.531a9.31,9.31,0,0,1-2.371-.282,5.859,5.859,0,0,1-1.883-.846,4.223,4.223,0,0,1-1.251-1.421,4.579,4.579,0,0,1-.487-2.023h3v-.026a2.231,2.231,0,0,0,.988,1.78,4.09,4.09,0,0,0,2.067.512,8.828,8.828,0,0,0,.948-.064,4.022,4.022,0,0,0,1-.243,1.917,1.917,0,0,0,.777-.526,1.242,1.242,0,0,0,.276-.9,1.215,1.215,0,0,0-.421-.909,2.975,2.975,0,0,0-1-.576,10.178,10.178,0,0,0-1.4-.372c-.394-.076-.779-.159-1.188-.246l-.114-.024-.292-.063a15.409,15.409,0,0,1-1.606-.436,5,5,0,0,1-1.382-.691,3.073,3.073,0,0,1-.975-1.1,3.36,3.36,0,0,1-.368-1.664,2.933,2.933,0,0,1,.54-1.794,4.069,4.069,0,0,1,1.356-1.165,6.369,6.369,0,0,1,1.83-.628A11.483,11.483,0,0,1,44.1,4.649a9.258,9.258,0,0,1,2,.218,5.275,5.275,0,0,1,1.724.7A4.22,4.22,0,0,1,49.1,6.826a4.3,4.3,0,0,1,.644,1.87H46.639a1.812,1.812,0,0,0-.974-1.4A4.094,4.094,0,0,0,43.9,6.941a5.694,5.694,0,0,0-.751.051,4.209,4.209,0,0,0-.816.193,1.764,1.764,0,0,0-.645.41.97.97,0,0,0-.264.7,1.077,1.077,0,0,0,.382.859,3.2,3.2,0,0,0,.987.551,10.139,10.139,0,0,0,1.4.371c.421.083.85.172,1.264.259l.175.036.18.038c.582.124,1.132.29,1.594.436a4.846,4.846,0,0,1,1.4.691,3.439,3.439,0,0,1,.988,1.089,3.233,3.233,0,0,1,.382,1.626,3.459,3.459,0,0,1-.553,1.985,4.337,4.337,0,0,1-1.423,1.318,6.742,6.742,0,0,1-1.948.742A10.042,10.042,0,0,1,44.124,18.531ZM94.37,18.5a7.579,7.579,0,0,1-2.884-.525,6.392,6.392,0,0,1-2.146-1.435,6.237,6.237,0,0,1-1.331-2.19,8.267,8.267,0,0,1-.46-2.792A8.2,8.2,0,0,1,88.01,8.8a6.238,6.238,0,0,1,1.331-2.19,6.077,6.077,0,0,1,2.146-1.434,8.173,8.173,0,0,1,5.767,0A6.4,6.4,0,0,1,99.4,6.608a6.221,6.221,0,0,1,1.33,2.19,8.2,8.2,0,0,1,.461,2.767,8.267,8.267,0,0,1-.461,2.792,6.221,6.221,0,0,1-1.33,2.19,6.084,6.084,0,0,1-2.146,1.435A7.572,7.572,0,0,1,94.37,18.5Zm0-11.564a3.523,3.523,0,0,0-1.724.41,3.747,3.747,0,0,0-1.2,1.049,4.585,4.585,0,0,0-.7,1.486,6.438,6.438,0,0,0,0,3.368,4.443,4.443,0,0,0,.7,1.486,3.65,3.65,0,0,0,1.2,1.063,3.407,3.407,0,0,0,1.724.409,3.524,3.524,0,0,0,1.724-.409,3.65,3.65,0,0,0,1.2-1.063,4.672,4.672,0,0,0,.7-1.486,6.438,6.438,0,0,0,0-3.368,4.317,4.317,0,0,0-.7-1.486,3.577,3.577,0,0,0-1.2-1.049A3.523,3.523,0,0,0,94.37,6.941ZM29.245,18.5a5.057,5.057,0,0,1-3.858-1.281,5.586,5.586,0,0,1-1.184-3.88V5.008h2.975v8.055a3.488,3.488,0,0,0,.685,2.446,2.51,2.51,0,0,0,1.909.716,3.745,3.745,0,0,0,1.567-.282,2.615,2.615,0,0,0,1.014-.755,2.878,2.878,0,0,0,.566-1.127,5.362,5.362,0,0,0,.171-1.422V5.02h2.976V18.147H33.143V16.315h-.053A3.978,3.978,0,0,1,31.457,17.9,4.585,4.585,0,0,1,29.245,18.5Zm78.834-.205a6.878,6.878,0,0,1-1.9-.217,2.46,2.46,0,0,1-1.12-.641,2.185,2.185,0,0,1-.554-1.05,7.672,7.672,0,0,1-.17-1.447V7.2h-2.252V5.008h2.225V1.063h2.975V5.008h2.687V7.171h-2.687v7.018a7.046,7.046,0,0,0,.04.794,1.457,1.457,0,0,0,.184.563.839.839,0,0,0,.435.346,2.162,2.162,0,0,0,.79.115c.207,0,.421,0,.632-.013a3.5,3.5,0,0,0,.632-.089v2.241c-.129.015-.267.029-.445.047s-.355.035-.515.056A7.978,7.978,0,0,1,108.078,18.3Zm-51.1,0a6.869,6.869,0,0,1-1.9-.217,2.458,2.458,0,0,1-1.119-.641,2.179,2.179,0,0,1-.553-1.05,7.741,7.741,0,0,1-.171-1.447V7.2H50.984V5.008H53.21V1.063h2.975V5.008h2.686V7.171H56.185v7.018a6.857,6.857,0,0,0,.04.794,1.428,1.428,0,0,0,.185.563.837.837,0,0,0,.435.346,2.159,2.159,0,0,0,.789.115c.207,0,.421,0,.632-.013a3.505,3.505,0,0,0,.633-.089v2.241c-.129.015-.267.029-.446.047s-.351.034-.517.056A7.969,7.969,0,0,1,56.975,18.3Zm28.27-.153H82.27V0h2.975V18.146Zm-5.636,0H76.634V5.008h2.975V18.146Zm-70.432,0H5.912V2.741H0V0H15.116v2.74H9.177V18.146Zm8.257-.013H14.458V5.008h2.8V7.543h.053a2.957,2.957,0,0,1,.514-1.038,4.666,4.666,0,0,1,.908-.922,4.859,4.859,0,0,1,1.185-.679,3.713,3.713,0,0,1,1.329-.257c.295,0,.566.01.725.026.057.005.113.013.173.022l.013,0,.03,0c.062.009.126.018.193.024V7.518c-.2-.037-.4-.063-.645-.09a5.53,5.53,0,0,0-.645-.039,3.591,3.591,0,0,0-1.422.294,3.29,3.29,0,0,0-1.159.859,4.315,4.315,0,0,0-.789,1.408,5.782,5.782,0,0,0-.29,1.934v6.248ZM79.609,2.74H76.634V0h2.975V2.739Z" transform="translate(39 13)"/>
  <path id="Path" d="M36,12.612H22.253L18.007,0l-4.26,12.612L0,12.6l11.133,7.8L6.874,33l11.133-7.79L29.126,33,24.88,20.4Z" fill="#00b67a"/>
  <path id="Path-2" data-name="Path" d="M8,2.965,7.024,0,0,5Z" transform="translate(18 21)" fill="#005128"/>
</svg>
