<svg id="Group_3" data-name="Group 3" xmlns="http://www.w3.org/2000/svg" xmlns:xlink="http://www.w3.org/1999/xlink" width="24.61" height="20" viewBox="0 0 24.61 20">
  <defs>
    <clipPath id="clip-path">
      <path id="Clip_2" data-name="Clip 2" d="M0,0H24.61V20H0Z" fill="none"/>
    </clipPath>
  </defs>
  <path id="Clip_2-2" data-name="Clip 2" d="M0,0H24.61V20H0Z" fill="none"/>
  <g id="Group_3-2" data-name="Group 3" clip-path="url(#clip-path)">
    <path id="Fill_1" data-name="Fill 1" d="M24.61,2.367a10.093,10.093,0,0,1-2.9.8A5.065,5.065,0,0,0,23.93.369a10.11,10.11,0,0,1-3.206,1.225A5.054,5.054,0,0,0,12.12,6.2,14.334,14.334,0,0,1,1.713.924,5.054,5.054,0,0,0,3.276,7.665,5.029,5.029,0,0,1,.989,7.033c0,.021,0,.042,0,.064a5.052,5.052,0,0,0,4.05,4.951,5.061,5.061,0,0,1-2.28.087,5.054,5.054,0,0,0,4.717,3.506A10.13,10.13,0,0,1,1.2,17.8,10.242,10.242,0,0,1,0,17.731,14.29,14.29,0,0,0,7.74,20,14.268,14.268,0,0,0,22.105,5.634q0-.328-.015-.653A10.257,10.257,0,0,0,24.61,2.367" fill="#fefefe"/>
  </g>
</svg>
