<svg id="Group_3" data-name="Group 3" xmlns="http://www.w3.org/2000/svg" xmlns:xlink="http://www.w3.org/1999/xlink" width="28.387" height="20" viewBox="0 0 28.387 20">
  <defs>
    <clipPath id="clip-path">
      <path id="Clip_2" data-name="Clip 2" d="M0,0H28.387V20H0Z" fill="none"/>
    </clipPath>
  </defs>
  <path id="Clip_2-2" data-name="Clip 2" d="M0,0H28.387V20H0Z" fill="none"/>
  <g id="Group_3-2" data-name="Group 3" clip-path="url(#clip-path)">
    <path id="Fill_1" data-name="Fill 1" d="M14.193,20c-.089,0-8.9-.007-11.09-.6a3.564,3.564,0,0,1-2.51-2.526A37.622,37.622,0,0,1,0,10,37.628,37.628,0,0,1,.593,3.123,3.567,3.567,0,0,1,3.1.6c2.188-.59,11-.6,11.09-.6s8.9.007,11.091.6a3.57,3.57,0,0,1,2.51,2.526A37.628,37.628,0,0,1,28.387,10a37.622,37.622,0,0,1-.593,6.877,3.567,3.567,0,0,1-2.51,2.526C23.1,19.993,14.282,20,14.193,20ZM11.29,5.779v8.442L18.709,10Z" transform="translate(0 0)" fill="#fff"/>
  </g>
</svg>
