<svg id="_1" data-name="1" xmlns="http://www.w3.org/2000/svg" width="54.718" height="39" viewBox="0 0 54.718 39">
  <path id="Shape" d="M.135,5.885A.457.457,0,0,1,0,5.56l0-5.1A.458.458,0,0,1,.461,0h2.7a.458.458,0,0,1,.462.461v5.1a.458.458,0,0,1-.458.458H.457A.458.458,0,0,1,.135,5.885Z" transform="translate(18.562 24.034)" fill="#4c586e"/>
  <path id="Shape-2" data-name="Shape" d="M.461,6.018A.461.461,0,0,1,0,5.56V.457A.461.461,0,0,1,.461,0h2.7a.461.461,0,0,1,.462.461v5.1a.462.462,0,0,1-.462.458Z" transform="translate(22.637 24.034)" fill="#4c586e"/>
  <path id="Shape-3" data-name="Shape" d="M.457,6.018A.458.458,0,0,1,0,5.56V.457A.458.458,0,0,1,.457,0h2.7a.458.458,0,0,1,.458.461v5.1a.458.458,0,0,1-.458.458Z" transform="translate(29.188 24.034)" fill="#4c586e"/>
  <path id="Shape-4" data-name="Shape" d="M.457,6.018A.458.458,0,0,1,0,5.56V.457A.458.458,0,0,1,.457,0H3.145A.458.458,0,0,1,3.6.461v5.1a.458.458,0,0,1-.458.458Z" transform="translate(33.267 24.034)" fill="#4c586e"/>
  <path id="Shape-5" data-name="Shape" d="M.457,6.022A.458.458,0,0,1,0,5.557V.461A.461.461,0,0,1,.457,0h2.7a.461.461,0,0,1,.458.461v5.1a.458.458,0,0,1-.458.457Z" transform="translate(18.566 17.635)" fill="#4c586e"/>
  <path id="Shape-6" data-name="Shape" d="M.461,6.022A.462.462,0,0,1,0,5.557V.461A.461.461,0,0,1,.461,0h2.7a.461.461,0,0,1,.462.461v5.1a.462.462,0,0,1-.462.457Z" transform="translate(22.637 17.635)" fill="#4c586e"/>
  <path id="Shape-7" data-name="Shape" d="M.457,6.022A.458.458,0,0,1,0,5.557V.461A.461.461,0,0,1,.457,0h2.7a.461.461,0,0,1,.458.461v5.1a.458.458,0,0,1-.458.457Z" transform="translate(29.188 17.635)" fill="#4c586e"/>
  <path id="Shape-8" data-name="Shape" d="M.457,6.022A.458.458,0,0,1,0,5.557V.461A.461.461,0,0,1,.457,0H3.146A.461.461,0,0,1,3.6.461v5.1a.458.458,0,0,1-.457.457Z" transform="translate(33.267 17.635)" fill="#4c586e"/>
  <path id="Shape-9" data-name="Shape" d="M0,2.385A2.385,2.385,0,1,1,2.385,4.771,2.386,2.386,0,0,1,0,2.385Z" transform="translate(25.333 7.459)" fill="#4c586e"/>
  <path id="Path" d="M.6,0A.6.6,0,0,0,0,.6V20.583a.6.6,0,0,0,.6.6H25.3a.6.6,0,0,0,.6-.6V.6a.6.6,0,1,0-1.2,0V19.982H1.2V.6A.6.6,0,0,0,.6,0Z" transform="translate(14.775 14.441)" fill="#4c586e"/>
  <path id="Path-2" data-name="Path" d="M.151,16.614A.6.6,0,0,0,1,16.652L17.593,1.414l16.6,15.238A.6.6,0,0,0,35,15.767L17.993.156a.609.609,0,0,0-.813,0L.2,15.767a.6.6,0,0,0-.053.847Z" transform="translate(10.125)" fill="#4c586e"/>
  <path id="Path-3" data-name="Path" d="M49.621,0a.6.6,0,0,0-.6.6v1.38H1.2V.6A.6.6,0,0,0,0,.6V2.586a.6.6,0,0,0,.6.6h49.02a.6.6,0,0,0,.612-.6V.6a.6.6,0,0,0-.612-.6Z" transform="translate(2.055 35.813)" fill="#4c586e"/>
  <path id="Path-4" data-name="Path" d="M.6,7.212a.6.6,0,0,0,.6-.6V1.2h2.34V2.843a.6.6,0,1,0,1.2,0V.6a.6.6,0,0,0-.6-.6H.6A.6.6,0,0,0,0,.6v6.01a.6.6,0,0,0,.6.6Z" transform="translate(15.886 1.104)" fill="#4c586e"/>
  <path id="Path-5" data-name="Path" d="M.6,0a.552.552,0,1,0,0,1.1h7.56a.552.552,0,1,0,0-1.1Z" transform="translate(4.126 34.099)" fill="#4c586e"/>
  <path id="Path-6" data-name="Path" d="M6.517,1.1a.552.552,0,1,0,0-1.1H.6a.552.552,0,1,0,0,1.1Z" transform="translate(43.095 34.099)" fill="#4c586e"/>
  <path id="Path-7" data-name="Path" d="M5.185,17.821v5.13a.627.627,0,0,0,1.251,0V17.632h.03a5.077,5.077,0,0,0,4.464-8.94.593.593,0,1,0-.726.937,3.878,3.878,0,0,1-2.332,6.993,3.8,3.8,0,0,1-1.217-.2.59.59,0,0,0-.378,0,3.8,3.8,0,0,1-1.217.2,3.878,3.878,0,0,1-2.733-6.63.6.6,0,0,0,.151-.6A3.886,3.886,0,0,1,5.124,4.523a.6.6,0,0,0,.416-.662,2.381,2.381,0,0,1-.023-.3,2.355,2.355,0,0,1,4.4-1.172.586.586,0,0,0,.378.28.6.6,0,0,0,.677-.877A3.553,3.553,0,0,0,4.33,3.518,5.08,5.08,0,0,0,1.257,9.4a5.08,5.08,0,0,0,3.8,8.426Z" transform="translate(0 9.211)" fill="#4c586e"/>
  <path id="Path-8" data-name="Path" d="M11.7,9.392A5.08,5.08,0,0,0,8.62,3.518,3.553,3.553,0,0,0,1.982,1.79a.6.6,0,1,0,1.04.6A2.348,2.348,0,0,1,7.395,3.862a.6.6,0,0,0,.431.654,3.886,3.886,0,0,1,2.646,4.869.6.6,0,0,0,.151.6,3.878,3.878,0,0,1-2.733,6.63,3.8,3.8,0,0,1-1.217-.2.59.59,0,0,0-.378,0,3.8,3.8,0,0,1-1.217.2A3.878,3.878,0,0,1,2.745,9.641a.6.6,0,1,0-.726-.956A5.077,5.077,0,0,0,5,17.814v5.13a.627.627,0,0,0,1.251,0V17.674a2.269,2.269,0,0,0,.231-.057,5.077,5.077,0,0,0,5.228-8.226Z" transform="translate(41.745 9.218)" fill="#4c586e"/>
</svg>
