<svg xmlns="http://www.w3.org/2000/svg" width="40.723" height="39" viewBox="0 0 40.723 39">
  <g id="_3" data-name="3" transform="translate(0 0)">
    <path id="Shape" d="M5.147,38.714.278,33.848a1.046,1.046,0,0,1-.151-1.21,3.843,3.843,0,0,1,2.336-2.033.175.175,0,0,0,.105-.051L9.7,23.423l1.193-.168a.184.184,0,0,0,.1-.051L21.8,12.406a.178.178,0,0,0,0-.25l-.1-.1-.071-1.829,1.238-1.238a.186.186,0,0,0,.051-.123,4.585,4.585,0,0,0-1.141-2.581C20.453,4.573,18.355,3.2,16.928,3.1a1.643,1.643,0,0,1-1.615-1.349A1.352,1.352,0,0,1,16.343.329,8.012,8.012,0,0,1,18.7,0c2.154,0,6.472.711,11.322,5.56l5.065,5.066-.308.445a2.232,2.232,0,0,0,.143,2.866,2.287,2.287,0,0,0,2.947.077l.447-.342,2.336,2.344.074,1.832-5.893,5.89L33,23.667l-2.359-2.359.4-.454A2.149,2.149,0,0,0,28.127,17.7l-.447.342-.779-.779a.179.179,0,0,0-.251,0L15.77,28.152a.179.179,0,0,0-.051.1L15.57,29.31,8.439,36.441a.177.177,0,0,0-.051.106,1.739,1.739,0,0,1-.248.687C7.794,37.831,6.727,39,5.818,39A.936.936,0,0,1,5.147,38.714Z" fill="#4c586e"/>
  </g>
</svg>
