<svg xmlns="http://www.w3.org/2000/svg" width="125" height="115.886" viewBox="0 0 125 115.886">
  <g id="aluminum-door" transform="translate(0 0)">
    <path id="Shape" d="M73.875,115.886a1.1,1.1,0,0,1-.408-.078,1.209,1.209,0,0,1-.347-.234L52.956,95.41H28.366a1.1,1.1,0,0,1-.408-.078,1.209,1.209,0,0,1-.347-.234L.312,67.8a1.062,1.062,0,0,1,1.5-1.5L27.307,91.782V83.415L.312,56.42a1.062,1.062,0,0,1,1.5-1.5L28.809,81.913H73.58L.312,8.645a1.062,1.062,0,1,1,1.5-1.5L75.082,80.411V44.736L32.168,1.814a1.062,1.062,0,1,1,1.5-1.5L76.592,43.226h8.367L43.547,1.814a1.062,1.062,0,1,1,1.5-1.5L88.284,43.538a.944.944,0,0,1,.235.347,1.116,1.116,0,0,1,.077.408V94.342a1.066,1.066,0,0,1-1.067,1.067H67.339l6.97,6.97h35.674L93.6,85.992a1.062,1.062,0,0,1,1.5-1.5l16.388,16.387V56.107L57.192,1.814a1.062,1.062,0,0,1,1.5-1.5L113,54.606h8.367L68.572,1.814a1.062,1.062,0,1,1,1.5-1.5l54.606,54.606a.931.931,0,0,1,.234.347,1.327,1.327,0,0,1,.087.408v59.145a1.067,1.067,0,0,1-1.067,1.067Z" fill="#4c586e"/>
  </g>
</svg>
