<svg xmlns="http://www.w3.org/2000/svg" width="124.989" height="125" viewBox="0 0 124.989 125">
  <g id="basement-01" transform="translate(-0.001)">
    <path id="Shape" d="M1.919,85.851A1.918,1.918,0,0,1,0,83.941V54.43a1.918,1.918,0,0,1,1.918-1.953H18.81a.946.946,0,0,0,.946-.946V2.056a1.927,1.927,0,1,1,3.845,0V37.374a.946.946,0,0,0,.946.946h75.9a.947.947,0,0,0,.947-.946V2.091a1.927,1.927,0,1,1,3.845,0V51.566a.946.946,0,0,0,.946.946h16.891a1.918,1.918,0,0,1,1.918,1.91V83.932a1.919,1.919,0,0,1-1.918,1.919Z" transform="translate(0 39.149)" fill="#4c586e"/>
    <path id="Path" d="M2.783,33.515,61.805,4.282a.955.955,0,0,1,.868,0L121.7,33.515a1.941,1.941,0,1,0,1.736-3.472L63.1.211a1.892,1.892,0,0,0-1.736,0L1.073,30.069a1.941,1.941,0,0,0,1.736,3.472Z" transform="translate(0.264)" fill="#4c586e"/>
    <path id="Shape-2" data-name="Shape" d="M1.918,27.324A1.918,1.918,0,0,1,0,25.406V1.927A1.927,1.927,0,0,1,1.918,0H21.986A1.927,1.927,0,0,1,23.9,1.927V25.406a1.918,1.918,0,0,1-1.918,1.918Z" transform="translate(50.543 39.279)" fill="#4c586e"/>
    <path id="Path-2" data-name="Path" d="M1.8,3.845H7.874A1.927,1.927,0,0,0,7.874,0H1.8a1.927,1.927,0,0,0,0,3.845Z" transform="translate(35.969 91.644)" fill="#4c586e"/>
    <path id="Path-3" data-name="Path" d="M1.8,3.845H7.874A1.927,1.927,0,0,0,7.874,0H1.8a1.927,1.927,0,0,0,0,3.845Z" transform="translate(57.668 91.644)" fill="#4c586e"/>
    <path id="Path-4" data-name="Path" d="M1.8,3.845H7.874A1.927,1.927,0,0,0,7.874,0H1.8a1.927,1.927,0,0,0,0,3.845Z" transform="translate(79.368 91.644)" fill="#4c586e"/>
  </g>
</svg>
