<svg xmlns="http://www.w3.org/2000/svg" width="147" height="118.398" viewBox="0 0 147 118.398">
  <g id="bathroom-01" transform="translate(0 0)">
    <path id="Shape" d="M145.377,118.393H3.785a1.5,1.5,0,1,1,0-2.988H9.741v-4.549a10.89,10.89,0,0,0-3.509-7.578,1.452,1.452,0,0,1-.255-.357A15.757,15.757,0,0,1,0,90.681v-.1C0,88.57,1.52,86.754,4.284,85.4c-.857-4.529-1.815-9.955-1.968-12.382-.1-1.836-.1-3.662,1.071-4.9s3.029-1.377,4.325-1.377h7.14V64.9a1.49,1.49,0,0,1,.449-2.918h2.091A1.49,1.49,0,0,1,17.85,64.9v1.867h8c1.264,0,3.182.132,4.324,1.387s1.132,3.029,1.02,4.885c-.142,2.428-1.1,7.854-1.958,12.383,2.774,1.366,4.283,3.141,4.283,5.181v.1a15.819,15.819,0,0,1-6.854,12.923,10.708,10.708,0,0,0-3.2,7.283v4.549H34.526v-6.324a5.283,5.283,0,0,1,3.785-5.038v-8.16a1.5,1.5,0,0,1,3,0v8.16a5.271,5.271,0,0,1,3.784,5.018v6.324H66.074v-3.284A29.836,29.836,0,0,1,50,103.828c-6.772-6.977-7.9-15.871-8.078-19.38a4.595,4.595,0,1,1,.418-9.18h2.152V27.248a12.178,12.178,0,0,1,24.255-1.58,9.812,9.812,0,0,1,10.985,4.7l.561-.214a1.5,1.5,0,1,1,1.02,2.805L62.035,40.2a1.451,1.451,0,0,1-.531.1,1.5,1.5,0,0,1-.53-2.907l.561-.2a9.813,9.813,0,0,1,4.274-10.261,9.181,9.181,0,0,0-18.36.316v48.02H92.91V8.063a1.5,1.5,0,0,1,1.5-1.5h2.039V2.993H36.933a1.5,1.5,0,1,1,0-2.988H145.306a1.5,1.5,0,1,1,0,2.988H134.82v3.57h2.04a1.5,1.5,0,0,1,1.5,1.5V97.474a5.1,5.1,0,0,1-8.629,3.591,5.008,5.008,0,0,1-5.885.887c-4.07,5.109-9.781,8.465-16.922,10.036v3.448h38.453v-.031a1.5,1.5,0,1,1,.125,2.993Q145.44,118.4,145.377,118.393Z" fill="#4c586e"/>
  </g>
</svg>
