<svg id="drywall-01" xmlns="http://www.w3.org/2000/svg" width="75.202" height="65" viewBox="0 0 75.202 65">
  <path id="Path" d="M.479.957A.479.479,0,1,0,0,.494.473.473,0,0,0,.479.957Z" transform="translate(47.961 24.643)" fill="#4c586e"/>
  <circle id="Oval" cx="0.473" cy="0.473" r="0.473" transform="translate(50.78 24.648)" fill="#4c586e"/>
  <path id="Path-2" data-name="Path" d="M.428.954A.479.479,0,1,0,0,.479.479.479,0,0,0,.428.954Z" transform="translate(53.638 24.646)" fill="#4c586e"/>
  <path id="Path-3" data-name="Path" d="M.479.957A.479.479,0,1,0,0,.479.473.473,0,0,0,.479.957Z" transform="translate(56.407 24.643)" fill="#4c586e"/>
  <path id="Path-4" data-name="Path" d="M.428.954A.479.479,0,1,0,0,.479.479.479,0,0,0,.428.954Z" transform="translate(59.26 24.646)" fill="#4c586e"/>
  <path id="Path-5" data-name="Path" d="M.428.954A.479.479,0,1,0,0,.479.479.479,0,0,0,.428.954Z" transform="translate(62.084 24.646)" fill="#4c586e"/>
  <path id="Path-6" data-name="Path" d="M.479.957A.479.479,0,1,0,0,.479.473.473,0,0,0,.479.957Z" transform="translate(64.853 24.643)" fill="#4c586e"/>
  <path id="Path-7" data-name="Path" d="M.428.954A.479.479,0,1,0,0,.479.479.479,0,0,0,.428.954Z" transform="translate(67.716 24.646)" fill="#4c586e"/>
  <circle id="Oval-2" data-name="Oval" cx="0.473" cy="0.473" r="0.473" transform="translate(70.485 24.648)" fill="#4c586e"/>
  <path id="Path-8" data-name="Path" d="M.529.954A.479.479,0,1,0,.073.732.479.479,0,0,0,.529.954Z" transform="translate(47.911 61.285)" fill="#4c586e"/>
  <path id="Path-9" data-name="Path" d="M.529.954A.479.479,0,1,0,.073.732.479.479,0,0,0,.529.954Z" transform="translate(50.746 61.285)" fill="#4c586e"/>
  <path id="Path-10" data-name="Path" d="M.473.957A.479.479,0,1,0,0,.484.473.473,0,0,0,.473.957Z" transform="translate(53.593 61.282)" fill="#4c586e"/>
  <path id="Path-11" data-name="Path" d="M.529.954A.479.479,0,1,0,.073.732.479.479,0,0,0,.529.954Z" transform="translate(56.357 61.285)" fill="#4c586e"/>
  <path id="Path-12" data-name="Path" d="M.473.957A.479.479,0,1,0,0,.484.473.473,0,0,0,.473.957Z" transform="translate(59.215 61.282)" fill="#4c586e"/>
  <path id="Path-13" data-name="Path" d="M.473.957A.479.479,0,1,0,0,.484.473.473,0,0,0,.473.957Z" transform="translate(62.039 61.282)" fill="#4c586e"/>
  <path id="Path-14" data-name="Path" d="M.529.954A.479.479,0,1,0,.073.732.479.479,0,0,0,.529.954Z" transform="translate(64.803 61.285)" fill="#4c586e"/>
  <path id="Path-15" data-name="Path" d="M.473.957A.479.479,0,1,0,0,.484.473.473,0,0,0,.473.957Z" transform="translate(67.671 61.282)" fill="#4c586e"/>
  <path id="Path-16" data-name="Path" d="M.479,0A.479.479,0,1,0,.957.479.473.473,0,0,0,.479,0Z" transform="translate(21.919 61.287)" fill="#4c586e"/>
  <path id="Path-17" data-name="Path" d="M.529,0A.479.479,0,1,0,.957.479.479.479,0,0,0,.529,0Z" transform="translate(24.688 61.285)" fill="#4c586e"/>
  <path id="Path-18" data-name="Path" d="M.484,0A.479.479,0,1,0,.957.479.473.473,0,0,0,.484,0Z" transform="translate(27.546 61.287)" fill="#4c586e"/>
  <path id="Path-19" data-name="Path" d="M.479,0A.479.479,0,1,0,.957.479.473.473,0,0,0,.479,0Z" transform="translate(30.365 61.287)" fill="#4c586e"/>
  <path id="Path-20" data-name="Path" d="M.529.954A.479.479,0,1,0,.073.732.479.479,0,0,0,.529.954Z" transform="translate(33.134 61.285)" fill="#4c586e"/>
  <path id="Path-21" data-name="Path" d="M.473.957A.479.479,0,1,0,0,.484.473.473,0,0,0,.473.957Z" transform="translate(36.002 61.282)" fill="#4c586e"/>
  <path id="Path-22" data-name="Path" d="M.473.957A.479.479,0,1,0,0,.484.473.473,0,0,0,.473.957Z" transform="translate(38.816 61.282)" fill="#4c586e"/>
  <path id="Path-23" data-name="Path" d="M.529.954A.479.479,0,1,0,.073.732.479.479,0,0,0,.529.954Z" transform="translate(47.911 47.207)" fill="#4c586e"/>
  <path id="Path-24" data-name="Path" d="M.479.957A.479.479,0,1,0,0,.479.473.473,0,0,0,.479.957Z" transform="translate(47.961 44.39)" fill="#4c586e"/>
  <path id="Path-25" data-name="Path" d="M.529.954A.479.479,0,1,0,.073.732.479.479,0,0,0,.529.954Z" transform="translate(47.911 41.574)" fill="#4c586e"/>
  <path id="Path-26" data-name="Path" d="M.529.954A.479.479,0,1,0,.073.732.479.479,0,0,0,.529.954Z" transform="translate(47.911 38.761)" fill="#4c586e"/>
  <path id="Path-27" data-name="Path" d="M.479.957A.479.479,0,1,0,0,.479.473.473,0,0,0,.479.957Z" transform="translate(47.961 35.945)" fill="#4c586e"/>
  <path id="Path-28" data-name="Path" d="M.529.954A.479.479,0,1,0,.073.732.479.479,0,0,0,.529.954Z" transform="translate(47.911 33.123)" fill="#4c586e"/>
  <path id="Path-29" data-name="Path" d="M.529.954A.479.479,0,1,0,.073.732.479.479,0,0,0,.529.954Z" transform="translate(47.911 30.315)" fill="#4c586e"/>
  <path id="Path-30" data-name="Path" d="M.479.957A.479.479,0,1,0,0,.479.473.473,0,0,0,.479.957Z" transform="translate(47.961 27.499)" fill="#4c586e"/>
  <path id="Path-31" data-name="Path" d="M.529.954A.479.479,0,1,0,.073.732.479.479,0,0,0,.529.954Z" transform="translate(47.911 58.466)" fill="#4c586e"/>
  <path id="Path-32" data-name="Path" d="M.529.954A.479.479,0,1,0,.073.732.479.479,0,0,0,.529.954Z" transform="translate(47.911 55.652)" fill="#4c586e"/>
  <path id="Path-33" data-name="Path" d="M.529.954A.479.479,0,1,0,.073.732.479.479,0,0,0,.529.954Z" transform="translate(47.911 52.839)" fill="#4c586e"/>
  <path id="Path-34" data-name="Path" d="M.529.954A.479.479,0,1,0,.073.732.479.479,0,0,0,.529.954Z" transform="translate(47.911 50.02)" fill="#4c586e"/>
  <path id="Path-35" data-name="Path" d="M.473.957A.479.479,0,1,0,0,.484.473.473,0,0,0,.473.957Z" transform="translate(70.485 47.204)" fill="#4c586e"/>
  <circle id="Oval-3" data-name="Oval" cx="0.473" cy="0.473" r="0.473" transform="translate(70.485 44.396)" fill="#4c586e"/>
  <circle id="Oval-4" data-name="Oval" cx="0.473" cy="0.473" r="0.473" transform="translate(70.485 41.582)" fill="#4c586e"/>
  <circle id="Oval-5" data-name="Oval" cx="0.473" cy="0.473" r="0.473" transform="translate(70.485 38.769)" fill="#4c586e"/>
  <path id="Path-36" data-name="Path" d="M.428.954A.479.479,0,1,0,0,.479.479.479,0,0,0,.428.954Z" transform="translate(70.53 35.947)" fill="#4c586e"/>
  <path id="Path-37" data-name="Path" d="M.473.957A.479.479,0,1,0,0,.484.473.473,0,0,0,.473.957Z" transform="translate(70.485 33.121)" fill="#4c586e"/>
  <path id="Path-38" data-name="Path" d="M.473.957A.479.479,0,1,0,0,.484.479.479,0,0,0,.473.957Z" transform="translate(70.485 30.312)" fill="#4c586e"/>
  <path id="Path-39" data-name="Path" d="M.428.954A.479.479,0,1,0,0,.479.479.479,0,0,0,.428.954Z" transform="translate(70.53 27.501)" fill="#4c586e"/>
  <path id="Path-40" data-name="Path" d="M.473.957A.479.479,0,1,0,0,.484.473.473,0,0,0,.473.957Z" transform="translate(70.485 61.282)" fill="#4c586e"/>
  <circle id="Oval-6" data-name="Oval" cx="0.473" cy="0.473" r="0.473" transform="translate(70.485 58.474)" fill="#4c586e"/>
  <path id="Path-41" data-name="Path" d="M.473.957A.479.479,0,1,0,0,.484.473.473,0,0,0,.473.957Z" transform="translate(70.485 55.65)" fill="#4c586e"/>
  <path id="Path-42" data-name="Path" d="M.473.957A.479.479,0,1,0,0,.484.479.479,0,0,0,.473.957Z" transform="translate(70.485 52.836)" fill="#4c586e"/>
  <path id="Path-43" data-name="Path" d="M.473.957A.479.479,0,1,0,0,.484.473.473,0,0,0,.473.957Z" transform="translate(70.485 50.017)" fill="#4c586e"/>
  <path id="Path-44" data-name="Path" d="M.479.957A.479.479,0,1,0,0,.479.473.473,0,0,0,.479.957Z" transform="translate(47.961 7.178)" fill="#4c586e"/>
  <path id="Path-45" data-name="Path" d="M.479.957A.479.479,0,1,0,0,.479.473.473,0,0,0,.479.957Z" transform="translate(47.961 15.624)" fill="#4c586e"/>
  <path id="Path-46" data-name="Path" d="M.479.957A.479.479,0,1,0,0,.479.473.473,0,0,0,.479.957Z" transform="translate(47.961 12.811)" fill="#4c586e"/>
  <path id="Path-47" data-name="Path" d="M.479.957A.479.479,0,1,0,0,.479.473.473,0,0,0,.479.957Z" transform="translate(47.961 9.981)" fill="#4c586e"/>
  <path id="Path-48" data-name="Path" d="M.473,0A.473.473,0,0,0,0,.473H0a.479.479,0,0,0,.952,0h0A.473.473,0,0,0,.473,0Z" transform="translate(19.111 55.639)" fill="#4c586e"/>
  <path id="Path-49" data-name="Path" d="M.479,0A.479.479,0,1,0,.957.479.473.473,0,0,0,.479,0Z" transform="translate(19.106 52.841)" fill="#4c586e"/>
  <path id="Path-50" data-name="Path" d="M.479,0A.479.479,0,1,0,.957.479.473.473,0,0,0,.479,0Z" transform="translate(19.106 50.023)" fill="#4c586e"/>
  <path id="Path-51" data-name="Path" d="M.479,0A.479.479,0,1,0,.957.479.473.473,0,0,0,.479,0Z" transform="translate(19.106 47.225)" fill="#4c586e"/>
  <path id="Path-52" data-name="Path" d="M.473,0A.473.473,0,0,0,0,.473H0a.479.479,0,0,0,.952,0h0A.473.473,0,0,0,.473,0Z" transform="translate(19.111 61.271)" fill="#4c586e"/>
  <path id="Path-53" data-name="Path" d="M.428,0A.479.479,0,1,0,.884.225.479.479,0,0,0,.428,0Z" transform="translate(19.156 58.45)" fill="#4c586e"/>
  <path id="Path-54" data-name="Path" d="M.479.9A.473.473,0,0,0,.952.428h0A.479.479,0,0,0,0,.428H0A.473.473,0,0,0,.479.9Z" transform="translate(41.629 55.705)" fill="#4c586e"/>
  <path id="Path-55" data-name="Path" d="M.529.954A.479.479,0,1,0,.073.732.479.479,0,0,0,.529.954Z" transform="translate(41.579 52.839)" fill="#4c586e"/>
  <path id="Path-56" data-name="Path" d="M.529.954A.479.479,0,1,0,.073.732.479.479,0,0,0,.529.954Z" transform="translate(41.579 50.02)" fill="#4c586e"/>
  <path id="Path-57" data-name="Path" d="M.529.954A.479.479,0,1,0,.073.732.479.479,0,0,0,.529.954Z" transform="translate(41.579 47.207)" fill="#4c586e"/>
  <path id="Path-58" data-name="Path" d="M.479.9A.473.473,0,0,0,.952.428h0A.479.479,0,0,0,0,.428H0A.473.473,0,0,0,.479.9Z" transform="translate(41.629 61.337)" fill="#4c586e"/>
  <path id="Path-59" data-name="Path" d="M.479.957A.479.479,0,1,0,0,.479.473.473,0,0,0,.479.957Z" transform="translate(41.629 58.447)" fill="#4c586e"/>
  <path id="Path-60" data-name="Path" d="M.473.957A.479.479,0,1,0,0,.484.473.473,0,0,0,.473.957Z" transform="translate(70.485 4.36)" fill="#4c586e"/>
  <circle id="Oval-7" data-name="Oval" cx="0.473" cy="0.473" r="0.473" transform="translate(70.485 15.629)" fill="#4c586e"/>
  <circle id="Oval-8" data-name="Oval" cx="0.473" cy="0.473" r="0.473" transform="translate(70.485 12.816)" fill="#4c586e"/>
  <circle id="Oval-9" data-name="Oval" cx="0.473" cy="0.473" r="0.473" transform="translate(70.485 9.997)" fill="#4c586e"/>
  <path id="Path-61" data-name="Path" d="M.428.954A.479.479,0,1,0,0,.479.479.479,0,0,0,.428.954Z" transform="translate(70.53 7.181)" fill="#4c586e"/>
  <path id="Path-62" data-name="Path" d="M.479.947A.473.473,0,1,0,.14.81.473.473,0,0,0,.479.947Z" transform="translate(47.961 18.464)" fill="#4c586e"/>
  <path id="Path-63" data-name="Path" d="M.479.947A.473.473,0,1,0,.14.81.473.473,0,0,0,.479.947Z" transform="translate(50.796 18.464)" fill="#4c586e"/>
  <path id="Path-64" data-name="Path" d="M.473.947A.473.473,0,1,0,0,.473.473.473,0,0,0,.473.947Z" transform="translate(53.593 18.464)" fill="#4c586e"/>
  <path id="Path-65" data-name="Path" d="M.479.947A.473.473,0,1,0,.14.81.473.473,0,0,0,.479.947Z" transform="translate(56.407 18.464)" fill="#4c586e"/>
  <path id="Path-66" data-name="Path" d="M.473.947A.473.473,0,1,0,0,.473.473.473,0,0,0,.473.947Z" transform="translate(59.215 18.464)" fill="#4c586e"/>
  <path id="Path-67" data-name="Path" d="M.473.947A.473.473,0,1,0,.139.808.473.473,0,0,0,.473.947Z" transform="translate(62.039 18.464)" fill="#4c586e"/>
  <path id="Path-68" data-name="Path" d="M.479.947A.473.473,0,1,0,.14.81.473.473,0,0,0,.479.947Z" transform="translate(64.853 18.464)" fill="#4c586e"/>
  <path id="Path-69" data-name="Path" d="M.473.947A.473.473,0,1,0,0,.473.473.473,0,0,0,.473.947Z" transform="translate(67.672 18.464)" fill="#4c586e"/>
  <path id="Path-70" data-name="Path" d="M.473.947A.473.473,0,1,0,0,.473.473.473,0,0,0,.473.947Z" transform="translate(70.485 18.464)" fill="#4c586e"/>
  <path id="Path-71" data-name="Path" d="M.529.954A.479.479,0,1,0,.073.732.479.479,0,0,0,.529.954Z" transform="translate(47.911 4.362)" fill="#4c586e"/>
  <path id="Path-72" data-name="Path" d="M.529.954A.479.479,0,1,0,.073.732.479.479,0,0,0,.529.954Z" transform="translate(50.746 4.362)" fill="#4c586e"/>
  <path id="Path-73" data-name="Path" d="M.473.957A.479.479,0,1,0,0,.484.473.473,0,0,0,.473.957Z" transform="translate(53.593 4.36)" fill="#4c586e"/>
  <path id="Path-74" data-name="Path" d="M.529.954A.479.479,0,1,0,.073.732.479.479,0,0,0,.529.954Z" transform="translate(56.357 4.362)" fill="#4c586e"/>
  <path id="Path-75" data-name="Path" d="M.473.957A.479.479,0,1,0,0,.484.473.473,0,0,0,.473.957Z" transform="translate(59.215 4.36)" fill="#4c586e"/>
  <path id="Path-76" data-name="Path" d="M.473.957A.479.479,0,1,0,0,.484.473.473,0,0,0,.473.957Z" transform="translate(62.039 4.36)" fill="#4c586e"/>
  <path id="Path-77" data-name="Path" d="M.529.954A.479.479,0,1,0,.073.732.479.479,0,0,0,.529.954Z" transform="translate(64.803 4.362)" fill="#4c586e"/>
  <path id="Path-78" data-name="Path" d="M.473.957A.479.479,0,1,0,0,.484.473.473,0,0,0,.473.957Z" transform="translate(67.671 4.36)" fill="#4c586e"/>
  <path id="Path-79" data-name="Path" d="M.428,0A.479.479,0,1,0,.884.225.479.479,0,0,0,.428,0Z" transform="translate(19.156 44.393)" fill="#4c586e"/>
  <path id="Path-80" data-name="Path" d="M.428,0A.479.479,0,1,0,.884.225.479.479,0,0,0,.428,0Z" transform="translate(21.969 44.393)" fill="#4c586e"/>
  <path id="Path-81" data-name="Path" d="M.484,0A.479.479,0,1,0,.957.473.473.473,0,0,0,.484,0Z" transform="translate(24.733 44.396)" fill="#4c586e"/>
  <circle id="Oval-10" data-name="Oval" cx="0.473" cy="0.473" r="0.473" transform="translate(27.557 44.396)" fill="#4c586e"/>
  <path id="Path-82" data-name="Path" d="M.428,0A.479.479,0,1,0,.884.225.479.479,0,0,0,.428,0Z" transform="translate(30.415 44.393)" fill="#4c586e"/>
  <path id="Path-83" data-name="Path" d="M.479.957A.479.479,0,1,0,0,.479.473.473,0,0,0,.479.957Z" transform="translate(33.184 44.39)" fill="#4c586e"/>
  <path id="Path-84" data-name="Path" d="M.428.954A.479.479,0,1,0,0,.479.479.479,0,0,0,.428.954Z" transform="translate(36.047 44.393)" fill="#4c586e"/>
  <path id="Path-85" data-name="Path" d="M.428.954A.479.479,0,1,0,0,.479.479.479,0,0,0,.428.954Z" transform="translate(38.861 44.393)" fill="#4c586e"/>
  <circle id="Oval-11" data-name="Oval" cx="0.473" cy="0.473" r="0.473" transform="translate(41.635 44.396)" fill="#4c586e"/>
  <path id="Shape" d="M0,65V0H75.2V65Z" transform="translate(0 0)" fill="#4c586e"/>
</svg>
