<svg xmlns="http://www.w3.org/2000/svg" width="93.576" height="125" viewBox="0 0 93.576 125">
  <g id="electrical-011" transform="translate(0 0)">
    <path id="Path" d="M28.469,1.679A1.731,1.731,0,0,0,26.737,0L2.1.182a1.731,1.731,0,1,0,0,3.384l24.7-.182A1.731,1.731,0,0,0,28.469,1.679Z" transform="translate(14.8 48.833)" fill="#4c586e"/>
    <path id="Path-2" data-name="Path" d="M1.357,3.566h0l24.65-.182a1.731,1.731,0,0,0,0-3.384L1.366.182a1.731,1.731,0,0,0,0,3.384Z" transform="translate(15.513 40.619)" fill="#4c586e"/>
    <path id="Shape" d="M90.876,124.7a1.731,1.731,0,0,1-.722-1.8V54.866a13.848,13.848,0,1,0-27.7,0v46.677a17.259,17.259,0,0,1-34.509,0V82.778C18.783,82.527,16.8,79.316,16.8,76.72l-.052-7.478a20.221,20.221,0,0,1-4.76-3.011A18.388,18.388,0,0,1,5.644,52.165L5.575,41.909.555,36.967a1.73,1.73,0,0,1-.5-1.194L0,27.593A1.689,1.689,0,0,1,1.68,25.861l8.266-.06L9.8,6.76a6.535,6.535,0,0,1,13.07-.1l.139,19.041,12.117-.086L34.986,6.578a6.539,6.539,0,0,1,13.078-.1L48.2,25.516l9.841-.069a1.626,1.626,0,0,1,1.2.519,1.725,1.725,0,0,1,.527,1.211L59.584,34a1.727,1.727,0,0,1-.485,1.151l-6.31,6.4L52.9,51.81c.051,6.811-3.921,12.611-10.845,15.952l.068,8.776c.026,2.605-1.843,5.773-10.75,6.215v18.8a13.848,13.848,0,0,0,27.7,0V54.866a17.233,17.233,0,1,1,34.465,0V122.9a1.731,1.731,0,0,1-2.662,1.8Z" transform="translate(0)" fill="#4c586e"/>
  </g>
</svg>
