<svg xmlns="http://www.w3.org/2000/svg" xmlns:xlink="http://www.w3.org/1999/xlink" width="40" height="40" viewBox="0 0 40 40">
  <defs>
    <filter id="Oval" x="0" y="0" width="40" height="40" filterUnits="userSpaceOnUse">
      <feOffset dy="1" input="SourceAlpha"/>
      <feGaussianBlur stdDeviation="1.5" result="blur"/>
      <feFlood flood-opacity="0.251"/>
      <feComposite operator="in" in2="blur"/>
      <feComposite in="SourceGraphic"/>
    </filter>
    <clipPath id="clip-path">
      <path id="Clip_2" data-name="Clip 2" d="M0,0H6.781V13H0Z" fill="none"/>
    </clipPath>
  </defs>
  <g id="fb3" transform="translate(4.5 3.5)">
    <g transform="matrix(1, 0, 0, 1, -4.5, -3.5)" filter="url(#Oval)">
      <circle id="Oval-2" data-name="Oval" cx="15.5" cy="15.5" r="15.5" transform="translate(4.5 3.5)" fill="#fff"/>
    </g>
    <g id="Group_3" data-name="Group 3" transform="translate(12 9)">
      <path id="Clip_2-2" data-name="Clip 2" d="M0,0H6.781V13H0Z" fill="none"/>
      <g id="Group_3-2" data-name="Group 3" clip-path="url(#clip-path)">
        <path id="Fill_1" data-name="Fill 1" d="M2,13c0-.032,0-.064,0-.1q0-2.88,0-5.76V7.071H.087C0,7.071,0,7.071,0,6.989,0,6.27,0,5.552,0,4.833c0-.066.02-.082.083-.082.612,0,1.225,0,1.837,0h.086c0-.025,0-.047,0-.069,0-.6,0-1.2,0-1.792a3.261,3.261,0,0,1,.309-1.382A2.505,2.505,0,0,1,3.66.241,3.154,3.154,0,0,1,4.928,0c.5.008,1,.03,1.5.048.093,0,.186.019.279.024.052,0,.069.022.069.074,0,.3,0,.6,0,.893,0,.351,0,.7,0,1.053,0,.061-.017.08-.079.079-.381,0-.761-.007-1.142,0a2.716,2.716,0,0,0-.517.06.723.723,0,0,0-.583.611,2.15,2.15,0,0,0-.042.4c0,.487,0,.974,0,1.461,0,.015,0,.029,0,.051H6.607c.092,0,.093,0,.082.087-.05.383-.1.766-.15,1.148q-.062.48-.119.96c-.015.122-.012.123-.134.123H4.416v.092q0,2.848,0,5.7c0,.047,0,.094,0,.14Z" transform="translate(0 0)" fill="#a1aab1"/>
      </g>
    </g>
  </g>
</svg>
