<svg xmlns="http://www.w3.org/2000/svg" width="146.999" height="123.48" viewBox="0 0 146.999 123.48">
  <g id="fence-01" transform="translate(-0.001)">
    <path id="Shape" d="M105.09,123.48a4.934,4.934,0,0,1-4.924-4.935v-9.539H91.038v9.539A4.935,4.935,0,0,1,86.1,123.48H60.9a4.934,4.934,0,0,1-4.934-4.935v-9.539H46.835v9.539a4.934,4.934,0,0,1-4.924,4.935H16.747a4.934,4.934,0,0,1-4.924-4.935v-9.539H1.841A1.84,1.84,0,0,1,0,107.177V94.614a1.84,1.84,0,0,1,1.84-1.891h9.982V45.683H1.841A1.849,1.849,0,0,1,0,43.834V31.282A1.84,1.84,0,0,1,1.841,29.4h9.982V21.177a5.031,5.031,0,0,1,1.028-3.022L25.412,1.913a4.915,4.915,0,0,1,7.782,0L45.807,18.155a4.96,4.96,0,0,1,1.028,3.022V29.4h9.19V21.177a4.955,4.955,0,0,1,1.029-3.022L69.605,1.913a4.924,4.924,0,0,1,7.791,0L90.01,18.155a5.006,5.006,0,0,1,1.028,3.022V29.4h9.129V21.177a4.96,4.96,0,0,1,1.028-3.022l12.6-16.2a4.925,4.925,0,0,1,7.792,0L134.2,18.2a5.029,5.029,0,0,1,1.028,3.022v8.223h9.931a1.84,1.84,0,0,1,1.84,1.84V43.834a1.849,1.849,0,0,1-1.84,1.849H135.23V92.775h9.931a1.839,1.839,0,0,1,1.84,1.84v12.551a1.839,1.839,0,0,1-1.84,1.84H135.23v9.539a4.934,4.934,0,0,1-4.924,4.935Z" fill="#4c586e"/>
  </g>
</svg>
