<svg id="flooring-01" xmlns="http://www.w3.org/2000/svg" width="90" height="49.638" viewBox="0 0 90 49.638">
  <path id="Shape" d="M1.212,49.638C.187,49.638,0,48.781,0,47.762V39.169a1.869,1.869,0,0,1,.25-.944L22.156.925A1.839,1.839,0,0,1,23.75,0h42.5a1.876,1.876,0,0,1,1.625.925l21.874,37.3a1.869,1.869,0,0,1,.25.944v8.593c0,1.05-.193,1.876-1.212,1.876Z" fill="#4c586e"/>
  <path id="Shape-2" data-name="Shape" d="M1.7,10.03A1.042,1.042,0,0,1,.84,9.405,8.6,8.6,0,0,1,.046,6.611,2.328,2.328,0,0,1,.509,4.7,7.8,7.8,0,0,1,2.383,3.3a10.829,10.829,0,0,0,1.45-.975,8.678,8.678,0,0,0,.838-.887A7.718,7.718,0,0,1,5.3.761,2.954,2.954,0,0,1,8.033.1a1.031,1.031,0,0,1,.781.769L8.8.861a4.088,4.088,0,0,1-.325,1.957l-.087.274C8.146,3.78,7.9,4.5,7.62,5.2a6.369,6.369,0,0,1-.894,1.663A13.234,13.234,0,0,1,3.6,9.405a3.188,3.188,0,0,1-1.7.625Z" transform="translate(17.286 13.183)" fill="#4c586e"/>
</svg>
