<svg id="flooring-concrete-011" xmlns="http://www.w3.org/2000/svg" width="125" height="125" viewBox="0 0 125 125">
  <path id="Path" d="M2.043,4A2,2,0,1,1,4,1.991,1.974,1.974,0,0,1,2.043,4Z" transform="translate(31 103)" fill="#4c586e"/>
  <path id="Path-2" data-name="Path" d="M2.043,4A2,2,0,1,1,4,2.008,2,2,0,0,1,2.043,4Z" transform="translate(38 61)" fill="#4c586e"/>
  <path id="Path-3" data-name="Path" d="M2.034,4A2,2,0,1,1,4,2.008,1.974,1.974,0,0,1,2.034,4Z" transform="translate(8 34)" fill="#4c586e"/>
  <path id="Path-4" data-name="Path" d="M2,4A2.065,2.065,0,0,1,0,2,2.065,2.065,0,0,1,2,0,2.065,2.065,0,0,1,4,2,2.065,2.065,0,0,1,2,4Z" transform="translate(30 43)" fill="#4c586e"/>
  <path id="Path-5" data-name="Path" d="M2.051,4A2,2,0,1,1,4,2.025,1.974,1.974,0,0,1,2.051,4Z" transform="translate(67 97)" fill="#4c586e"/>
  <path id="Path-6" data-name="Path" d="M2.034,4A2,2,0,1,1,4,2.017,1.974,1.974,0,0,1,2.034,4Z" transform="translate(18 13)" fill="#4c586e"/>
  <path id="Path-7" data-name="Path" d="M2.043,4A2,2,0,1,1,4,2.008,2,2,0,0,1,2.043,4Z" transform="translate(81 107)" fill="#4c586e"/>
  <path id="Path-8" data-name="Path" d="M1.992,4A2,2,0,1,1,4,2.023,2,2,0,0,1,1.992,4Z" transform="translate(49 87)" fill="#4c586e"/>
  <path id="Path-9" data-name="Path" d="M2.043,4A2,2,0,1,1,4,2,1.957,1.957,0,0,1,2.043,4Z" transform="translate(12 61)" fill="#4c586e"/>
  <path id="Path-10" data-name="Path" d="M2.034,4A2,2,0,1,1,4,2,1.974,1.974,0,0,1,2.034,4Z" transform="translate(92 63)" fill="#4c586e"/>
  <path id="Path-11" data-name="Path" d="M2.043,4A2,2,0,1,1,4,2,1.957,1.957,0,0,1,2.043,4Z" transform="translate(110 54)" fill="#4c586e"/>
  <path id="Path-12" data-name="Path" d="M2,4a1.983,1.983,0,1,1,1.419-.581A2,2,0,0,1,2,4Z" transform="translate(88 33)" fill="#4c586e"/>
  <path id="Path-13" data-name="Path" d="M2,4a1.983,1.983,0,1,1,1.419-.581A2,2,0,0,1,2,4Z" transform="translate(61 17)" fill="#4c586e"/>
  <path id="Path-14" data-name="Path" d="M2,4a1.983,1.983,0,1,1,1.419-.581A2,2,0,0,1,2,4Z" transform="translate(55 33)" fill="#4c586e"/>
  <path id="Path-15" data-name="Path" d="M2.043,4A2,2,0,1,1,4,2,1.957,1.957,0,0,1,2.043,4Z" transform="translate(88 8)" fill="#4c586e"/>
  <path id="Path-16" data-name="Path" d="M2.008,4a1.983,1.983,0,1,1,1.417-.587A2,2,0,0,1,2.008,4Z" transform="translate(102 17)" fill="#4c586e"/>
  <path id="Path-17" data-name="Path" d="M2.051,4A2,2,0,1,1,4,2,1.974,1.974,0,0,1,2.051,4Z" transform="translate(67 69)" fill="#4c586e"/>
  <path id="Path-18" data-name="Path" d="M2.043,4A2,2,0,1,1,4,2,2,2,0,0,1,2.043,4Z" transform="translate(88 81)" fill="#4c586e"/>
  <path id="Path-19" data-name="Path" d="M2.052,4A2,2,0,1,1,4,2,2,2,0,0,1,2.052,4Z" transform="translate(113 88)" fill="#4c586e"/>
  <path id="Path-20" data-name="Path" d="M2.017,4a1.983,1.983,0,1,1,1.411-.59A2,2,0,0,1,2.017,4Z" transform="translate(113 34)" fill="#4c586e"/>
  <path id="Path-21" data-name="Path" d="M2.017,4A2,2,0,1,1,4,1.974,1.974,1.974,0,0,1,2.017,4Z" transform="translate(49 113)" fill="#4c586e"/>
  <path id="Path-22" data-name="Path" d="M2.051,4A2,2,0,1,1,4,1.991,2,2,0,0,1,2.051,4Z" transform="translate(11 113)" fill="#4c586e"/>
  <path id="Path-23" data-name="Path" d="M2.051,4A2,2,0,1,1,4,2,2,2,0,0,1,2.051,4Z" transform="translate(19 87)" fill="#4c586e"/>
  <path id="Path-24" data-name="Path" d="M2.043,4A2,2,0,1,1,4,2.008,1.974,1.974,0,0,1,2.043,4Z" transform="translate(105 112)" fill="#4c586e"/>
  <path id="Path-25" data-name="Path" d="M2.051,4a1.983,1.983,0,1,1,1.4-.611A2,2,0,0,1,2.051,4Z" transform="translate(68 48)" fill="#4c586e"/>
  <path id="Path-26" data-name="Path" d="M2.043,4A2,2,0,1,1,4,2.008,2,2,0,0,1,2.043,4Z" transform="translate(38 22)" fill="#4c586e"/>
  <path id="Shape" d="M1.736,125A1.736,1.736,0,0,1,0,123.307V1.736A1.737,1.737,0,0,1,1.736,0H123.35A1.736,1.736,0,0,1,125,1.736V123.35a1.737,1.737,0,0,1-1.693,1.65Z" fill="#4c586e"/>
</svg>
