<svg xmlns="http://www.w3.org/2000/svg" width="145" height="79.971" viewBox="0 0 145 79.971">
  <g id="flooring-011" transform="translate(0)">
    <path id="Shape" d="M1.954,79.971C.3,79.971,0,78.592,0,76.951V63.105a3.017,3.017,0,0,1,.4-1.521L35.7,1.49A2.962,2.962,0,0,1,38.264,0h68.473a3.022,3.022,0,0,1,2.618,1.49L144.6,61.584a3.026,3.026,0,0,1,.4,1.521V76.951c0,1.691-.312,3.02-1.953,3.02Z" fill="#4c586e"/>
    <path id="Shape-2" data-name="Shape" d="M2.742,16.16a1.682,1.682,0,0,1-1.39-1.007,13.885,13.885,0,0,1-1.279-4.5A3.754,3.754,0,0,1,.819,7.57a12.556,12.556,0,0,1,3.02-2.246,17.435,17.435,0,0,0,2.336-1.57,13.692,13.692,0,0,0,1.349-1.43,12.358,12.358,0,0,1,1.007-1.1A4.761,4.761,0,0,1,12.942.159,1.661,1.661,0,0,1,14.2,1.4l-.031-.01a6.564,6.564,0,0,1-.523,3.152l-.141.443c-.382,1.108-.775,2.265-1.228,3.393a10.277,10.277,0,0,1-1.44,2.678,21.3,21.3,0,0,1-5.035,4.1A5.14,5.14,0,0,1,3.065,16.16Z" transform="translate(27.849 21.239)" fill="#4c586e"/>
  </g>
</svg>
