<svg id="floor-plan-01" xmlns="http://www.w3.org/2000/svg" width="232" height="232" viewBox="0 0 232 232">
  <path id="Path" d="M228.778,0H3.222A3.222,3.222,0,0,0,0,3.222V228.778A3.222,3.222,0,0,0,3.222,232H131.37a3.222,3.222,0,1,0,0-6.444h-87.1V178.978a3.222,3.222,0,1,0-6.444,0v46.577H6.444V156.439H139.216a3.222,3.222,0,1,0,0-6.444H119.222V91.189a3.222,3.222,0,1,0-6.444,0v58.757H6.444V6.444H112.778V59.079a3.222,3.222,0,0,0,6.444,0V6.444H225.556V149.833H172.872a3.222,3.222,0,1,0,0,6.444h52.683v69.278H168.893a3.222,3.222,0,0,0,0,6.444h59.885A3.222,3.222,0,0,0,232,228.778V3.222A3.222,3.222,0,0,0,228.778,0Z" fill="#4c586e"/>
</svg>
