<svg id="foundation-01" xmlns="http://www.w3.org/2000/svg" width="90.99" height="125" viewBox="0 0 90.99 125">
  <rect id="Rectangle" width="22.084" height="11.042" transform="translate(12.369 90.548)" fill="#fff"/>
  <rect id="Rectangle-2" data-name="Rectangle" width="22.084" height="11.042" transform="translate(56.537 90.548)" fill="#e8ebed"/>
  <rect id="Rectangle-3" data-name="Rectangle" width="22.084" height="11.042" transform="translate(12.369 112.633)" fill="#e8ebed"/>
  <rect id="Rectangle-4" data-name="Rectangle" width="22.084" height="11.042" transform="translate(34.453 112.633)" fill="#e8ebed"/>
  <rect id="Rectangle-5" data-name="Rectangle" width="22.084" height="11.042" transform="translate(56.537 112.633)" fill="#fff"/>
  <rect id="Rectangle-6" data-name="Rectangle" width="22.084" height="11.042" transform="translate(45.495 101.591)" fill="#fff"/>
  <rect id="Rectangle-7" data-name="Rectangle" width="22.084" height="11.042" transform="translate(23.411 101.591)" fill="#e8ebed"/>
  <rect id="Rectangle-8" data-name="Rectangle" width="11.042" height="11.042" transform="translate(12.369 101.591)" fill="#fff"/>
  <rect id="Rectangle-9" data-name="Rectangle" width="11.042" height="11.042" transform="translate(67.579 101.591)" fill="#fff"/>
  <path id="Shape" d="M1.325,35.777A1.325,1.325,0,0,1,0,34.452V1.325A1.325,1.325,0,0,1,1.325,0H23.409a1.325,1.325,0,0,1,1.326,1.325v9.717H44.168V1.325A1.326,1.326,0,0,1,45.494,0H67.578A1.325,1.325,0,0,1,68.9,1.325V34.452a1.325,1.325,0,0,1-1.325,1.325Z" transform="translate(11.043 89.223)" fill="#4c586e"/>
  <path id="Path" d="M90.6,44.56,46.431.391a1.316,1.316,0,0,0-1.873,0L.39,44.56a1.323,1.323,0,0,0,.936,2.261h9.717V79.506a1.325,1.325,0,1,0,2.65,0V45.5a1.325,1.325,0,0,0-1.325-1.325H4.524L45.5,3.2,86.466,44.171H78.622A1.325,1.325,0,0,0,77.3,45.5V49.03a1.325,1.325,0,1,0,2.65,0V46.821h9.717A1.323,1.323,0,0,0,90.6,44.56Z" fill="#4c586e"/>
  <path id="Shape-2" data-name="Shape" d="M11.864,24.638a1.336,1.336,0,0,1-.433-.292L7.765,20.68a1.325,1.325,0,1,1,1.872-1.873l1.4,1.4V13.693H1.325A1.325,1.325,0,0,1,0,12.367V1.325A1.325,1.325,0,0,1,1.325,0H23.409a1.325,1.325,0,0,1,1.326,1.325V12.367a1.325,1.325,0,0,1-1.326,1.326H13.657v6.519l1.4-1.4a1.325,1.325,0,1,1,1.873,1.873l-3.666,3.666a1.345,1.345,0,0,1-.433.292,1.264,1.264,0,0,1-.972,0Z" transform="translate(33.128 72.66)" fill="#4c586e"/>
  <path id="Shape-3" data-name="Shape" d="M11.864,24.6a1.35,1.35,0,0,1-.433-.292L7.765,20.644a1.325,1.325,0,1,1,1.872-1.873l1.4,1.44V13.693H1.325A1.325,1.325,0,0,1,0,12.367V1.325A1.325,1.325,0,0,1,1.325,0H23.409a1.325,1.325,0,0,1,1.326,1.325V12.367a1.325,1.325,0,0,1-1.326,1.326H13.693v6.519l1.4-1.44a1.325,1.325,0,1,1,1.838,1.873l-3.666,3.667a1.36,1.36,0,0,1-.433.292,1.272,1.272,0,0,1-.972,0Z" transform="translate(55.212 56.097)" fill="#4c586e"/>
</svg>
