<svg xmlns="http://www.w3.org/2000/svg" width="147" height="70.966" viewBox="0 0 147 70.966">
  <g id="home-addition-01" transform="translate(0)">
    <path id="Path" d="M8.617,0h-7.1a1.521,1.521,0,0,0,0,3.041h7.1A1.521,1.521,0,1,0,8.617,0Z" transform="translate(97.324 67.924)" fill="#4c586e"/>
    <path id="Path-2" data-name="Path" d="M8.617,0h-7.1a1.521,1.521,0,0,0,0,3.041h7.1A1.521,1.521,0,1,0,8.617,0Z" transform="translate(72.993 67.924)" fill="#4c586e"/>
    <path id="Path-3" data-name="Path" d="M8.617,0h-7.1a1.521,1.521,0,0,0,0,3.041h7.1A1.521,1.521,0,1,0,8.617,0Z" transform="translate(85.159 67.924)" fill="#4c586e"/>
    <path id="Path-4" data-name="Path" d="M5.6,0A1.5,1.5,0,0,0,4.111,1.493v2.6h-2.6a1.5,1.5,0,1,0,0,3.007H5.6A1.5,1.5,0,0,0,7.1,5.613V1.534A1.5,1.5,0,0,0,5.6,0Z" transform="translate(108.476 63.869)" fill="#4c586e"/>
    <path id="Path-5" data-name="Path" d="M1.5,0A1.538,1.538,0,0,0,0,1.563V9.578a1.548,1.548,0,0,0,1.521,1.574A1.548,1.548,0,0,0,3.041,9.578V1.563A1.59,1.59,0,0,0,2.588.447,1.484,1.484,0,0,0,1.5,0Z" transform="translate(113.545 50.69)" fill="#4c586e"/>
    <path id="Path-6" data-name="Path" d="M1.5,0A1.476,1.476,0,0,0,.439.455,1.578,1.578,0,0,0,0,1.551V9.58a1.547,1.547,0,0,0,1.521,1.572A1.547,1.547,0,0,0,3.041,9.58V1.551A1.588,1.588,0,0,0,2.585.443,1.484,1.484,0,0,0,1.5,0Z" transform="translate(113.545 37.51)" fill="#4c586e"/>
    <path id="Path-7" data-name="Path" d="M1.585,3.177H5.9A2.8,2.8,0,0,1,7.9,4.025l.581.583a1.551,1.551,0,0,0,2.208,0,1.591,1.591,0,0,0,0-2.235l-.571-.583A6.037,6.037,0,0,0,5.9,0H1.585a1.589,1.589,0,0,0,0,3.177Z" transform="translate(80.09 1.014)" fill="#4c586e"/>
    <path id="Path-8" data-name="Path" d="M1.584,3.041H11.6a1.553,1.553,0,0,0,1.584-1.521A1.553,1.553,0,0,0,11.6,0H1.584A1.553,1.553,0,0,0,0,1.521,1.553,1.553,0,0,0,1.584,3.041Z" transform="translate(47.648 1.014)" fill="#4c586e"/>
    <path id="Path-9" data-name="Path" d="M1.584,3.041H11.6a1.553,1.553,0,0,0,1.584-1.521A1.553,1.553,0,0,0,11.6,0H1.584A1.553,1.553,0,0,0,0,1.521,1.553,1.553,0,0,0,1.584,3.041Z" transform="translate(63.869 1.014)" fill="#4c586e"/>
    <path id="Path-10" data-name="Path" d="M1.521,3.041h7.1A1.521,1.521,0,1,0,8.617,0h-7.1a1.521,1.521,0,0,0,0,3.041Z" transform="translate(91.241 34.469)" fill="#4c586e"/>
    <path id="Path-11" data-name="Path" d="M1.521,3.041h7.1A1.521,1.521,0,1,0,8.617,0h-7.1a1.521,1.521,0,0,0,0,3.041Z" transform="translate(79.076 34.469)" fill="#4c586e"/>
    <path id="Path-12" data-name="Path" d="M10.138,1.5A1.511,1.511,0,0,0,8.626,0h-7.1a1.521,1.521,0,1,0,0,3.041h7.1A1.511,1.511,0,0,0,10.138,1.5Z" transform="translate(102.393 34.469)" fill="#4c586e"/>
    <path id="Shape" d="M8.582,14.193a1.493,1.493,0,0,1-1.5-1.478,1.475,1.475,0,0,1,0-.367,1.357,1.357,0,0,1-.284,0A1.52,1.52,0,0,1,5.728,11.9,1.462,1.462,0,0,1,5.3,10.83V7.387L.427,2.5A1.449,1.449,0,0,1,.056,1.073,1.485,1.485,0,0,1,1.129.046a1.517,1.517,0,0,1,1.443.4L7.54,5.453a.158.158,0,0,1,.091.139,1.469,1.469,0,0,1,.678,1.23V9.6a1.436,1.436,0,0,1,.405-.863,1.529,1.529,0,0,1,2.125,0L13.7,11.623a1.46,1.46,0,0,1,.39,1.624,1.507,1.507,0,0,1-1.4.946Z" transform="translate(107.462 23.317)" fill="#4c586e"/>
    <path id="Path-13" data-name="Path" d="M5.54,7.662a1.541,1.541,0,0,0,1.091.448A1.5,1.5,0,0,0,7.661,5.542L2.607.445a1.534,1.534,0,0,0-2.161,0,1.508,1.508,0,0,0,0,2.14Z" transform="translate(99.352 14.193)" fill="#4c586e"/>
    <path id="Path-14" data-name="Path" d="M5.541,7.652a1.514,1.514,0,0,0,1.092.458,1.566,1.566,0,0,0,1.031-.438,1.5,1.5,0,0,0,0-2.137L2.6.448A1.518,1.518,0,0,0,.45.448a1.493,1.493,0,0,0,0,2.137Z" transform="translate(91.241 6.083)" fill="#4c586e"/>
    <path id="Shape-2" data-name="Shape" d="M1.2,12.165A1.221,1.221,0,0,1,0,10.926V1.239A1.221,1.221,0,0,1,1.2,0H5.9a1.175,1.175,0,0,1,.847.364,1.249,1.249,0,0,1,.346.876v9.687a1.247,1.247,0,0,1-.346.876,1.175,1.175,0,0,1-.847.364Z" transform="translate(74.007 42.579)" fill="#4c586e"/>
    <path id="Shape-3" data-name="Shape" d="M1.2,12.165A1.22,1.22,0,0,1,0,10.926V1.239A1.221,1.221,0,0,1,1.2,0H5.9A1.221,1.221,0,0,1,7.1,1.239v9.687a1.22,1.22,0,0,1-1.2,1.239Z" transform="translate(86.172 42.579)" fill="#4c586e"/>
    <path id="Shape-4" data-name="Shape" d="M5.894,12.165h-4.7A1.175,1.175,0,0,1,.346,11.8,1.253,1.253,0,0,1,0,10.926V1.239A1.253,1.253,0,0,1,.346.364,1.178,1.178,0,0,1,1.192,0h4.7a1.175,1.175,0,0,1,.853.36,1.25,1.25,0,0,1,.349.879v9.687a1.25,1.25,0,0,1-.349.879,1.175,1.175,0,0,1-.843.36Z" transform="translate(99.352 42.579)" fill="#4c586e"/>
    <path id="Shape-5" data-name="Shape" d="M2.708,11.212A4.711,4.711,0,0,1,.968,9.468V9.5A6.169,6.169,0,0,1,9.477.97a4.711,4.711,0,0,1,1.741,1.744,6.237,6.237,0,0,1-.83,7.666,6,6,0,0,1-4.27,1.785A6.813,6.813,0,0,1,2.708,11.212Z" transform="translate(29.4 17.234)" fill="#4c586e"/>
    <path id="Shape-6" data-name="Shape" d="M5.856,12.164H1.192A1.216,1.216,0,0,1,0,10.925V1.24A1.217,1.217,0,0,1,1.192,0H5.856A1.167,1.167,0,0,1,6.73.346,1.266,1.266,0,0,1,7.1,1.24v9.685a1.266,1.266,0,0,1-.366.895,1.168,1.168,0,0,1-.826.346Z" transform="translate(15.207 42.579)" fill="#4c586e"/>
    <path id="Shape-7" data-name="Shape" d="M5.894,12.165h-4.7A1.175,1.175,0,0,1,.346,11.8,1.253,1.253,0,0,1,0,10.926V1.239A1.253,1.253,0,0,1,.346.364,1.178,1.178,0,0,1,1.192,0h4.7a1.175,1.175,0,0,1,.853.36,1.25,1.25,0,0,1,.349.879v9.687a1.25,1.25,0,0,1-.349.879,1.175,1.175,0,0,1-.843.36Z" transform="translate(49.676 42.579)" fill="#4c586e"/>
    <path id="Shape-8" data-name="Shape" d="M6.193,70.966a1.514,1.514,0,0,1-1.508-1.519V33.267l-2.2,2.175a1.511,1.511,0,0,1-2.055-.113,1.537,1.537,0,0,1-.054-2.072l10.434-10.3V5.161a1.513,1.513,0,0,1,1.508-1.518h9.752a1.524,1.524,0,0,1,1.518,1.518v5.182l8.355-8.332.356-.348A5.681,5.681,0,0,1,36.374,0h.061a5.934,5.934,0,0,1,1.6.277,1.24,1.24,0,0,1,.337,0h4.157a1.539,1.539,0,0,1,0,3.078h-.551l4.2,4.32L70.222,32.3l1.794,1.837h3.5a1.539,1.539,0,0,1,0,3.078H71.363A1.516,1.516,0,0,1,70.8,37.1a1.538,1.538,0,0,1-.509-.338l-2.9-2.986L67,33.328V67.887H69.63a1.539,1.539,0,0,1,0,3.079Z" fill="#4c586e"/>
    <path id="Path-15" data-name="Path" d="M3.031,12.166,9.124,6.078l3.041,3.049V0H3.031L6.073,3.039,0,9.127l3.031,3.039Z" transform="translate(128.752)" fill="#4c586e"/>
    <path id="Path-16" data-name="Path" d="M3.031,0,0,3.041,6.073,9.124,3.031,12.166h9.134V3.041L9.124,6.083,3.031,0Z" transform="translate(128.752 57.786)" fill="#4c586e"/>
    <path id="Path-17" data-name="Path" d="M15.207,6.595,8.694,0V4.4H0V8.79H8.694v4.39l6.513-6.584Z" transform="translate(131.793 28.386)" fill="#4c586e"/>
  </g>
</svg>
