<svg xmlns="http://www.w3.org/2000/svg" width="214.491" height="214.492" viewBox="0 0 214.491 214.492">
  <g id="Group_21" data-name="Group 21" transform="translate(2 2)">
    <path id="Stroke_1" data-name="Stroke 1" d="M210.491,105.246A105.245,105.245,0,1,1,105.245,0,105.246,105.246,0,0,1,210.491,105.246Z" fill="none" stroke="#4c586e" stroke-linecap="round" stroke-linejoin="round" stroke-miterlimit="10" stroke-width="4"/>
    <path id="Stroke_3" data-name="Stroke 3" d="M80.189,2.29V92.859a2.289,2.289,0,0,1-2.29,2.289H2.29A2.289,2.289,0,0,1,0,92.859V2.29A2.29,2.29,0,0,1,2.29,0H14.221V5.7a2.291,2.291,0,0,0,2.29,2.29H63.678a2.291,2.291,0,0,0,2.29-2.29V0H77.9A2.29,2.29,0,0,1,80.189,2.29Z" transform="translate(65.151 64.897)" fill="none" stroke="#4c586e" stroke-linecap="round" stroke-linejoin="round" stroke-miterlimit="10" stroke-width="4"/>
    <path id="Fill_5" data-name="Fill 5" d="M4.681,2.341A2.341,2.341,0,1,1,2.34,0,2.341,2.341,0,0,1,4.681,2.341" transform="translate(102.905 60.317)" fill="#4c586e"/>
    <path id="Stroke_7" data-name="Stroke 7" d="M37.225,7.887a2.28,2.28,0,0,1-2.141-1.479,9.823,9.823,0,0,0-18.421,0,2.28,2.28,0,0,1-2.141,1.479H2.29A2.29,2.29,0,0,0,0,10.177v9.972a2.29,2.29,0,0,0,2.29,2.29H49.457a2.29,2.29,0,0,0,2.29-2.29V10.177a2.29,2.29,0,0,0-2.29-2.29Z" transform="translate(79.372 50.446)" fill="none" stroke="#4c586e" stroke-linecap="round" stroke-linejoin="round" stroke-miterlimit="10" stroke-width="4"/>
    <path id="Stroke_9" data-name="Stroke 9" d="M0,6.92l7.3,7.3L19.9,0" transform="translate(80.548 83.664)" fill="none" stroke="#4c586e" stroke-linecap="round" stroke-linejoin="round" stroke-miterlimit="10" stroke-width="4"/>
    <path id="Stroke_11" data-name="Stroke 11" d="M0,.5H18.493" transform="translate(111.449 90.275)" fill="none" stroke="#4c586e" stroke-linecap="round" stroke-linejoin="round" stroke-miterlimit="10" stroke-width="4"/>
    <path id="Stroke_13" data-name="Stroke 13" d="M0,6.92l7.3,7.3L19.9,0" transform="translate(80.548 105.36)" fill="none" stroke="#4c586e" stroke-linecap="round" stroke-linejoin="round" stroke-miterlimit="10" stroke-width="4"/>
    <path id="Stroke_15" data-name="Stroke 15" d="M0,.5H18.493" transform="translate(111.449 111.971)" fill="none" stroke="#4c586e" stroke-linecap="round" stroke-linejoin="round" stroke-miterlimit="10" stroke-width="4"/>
    <path id="Stroke_17" data-name="Stroke 17" d="M0,6.92l7.3,7.3L19.9,0" transform="translate(80.548 127.056)" fill="none" stroke="#4c586e" stroke-linecap="round" stroke-linejoin="round" stroke-miterlimit="10" stroke-width="4"/>
    <path id="Stroke_19" data-name="Stroke 19" d="M0,.5H18.493" transform="translate(111.449 133.667)" fill="none" stroke="#4c586e" stroke-linecap="round" stroke-linejoin="round" stroke-miterlimit="10" stroke-width="4"/>
  </g>
</svg>
