<svg xmlns="http://www.w3.org/2000/svg" width="99.199" height="95.001" viewBox="0 0 99.199 95.001">
  <g id="install-01" transform="translate(0 0)">
    <path id="Shape" d="M12.538,94.306.677,82.451a2.549,2.549,0,0,1-.368-2.946c.751-1.8,3.467-4.676,5.691-4.955a.409.409,0,0,0,.257-.125L23.628,57.055l2.9-.41a.432.432,0,0,0,.243-.125L53.1,30.22a.437.437,0,0,0,0-.612l-.236-.236-.174-4.454L55.7,21.9a.442.442,0,0,0,.124-.3c0-1.737-.972-3.974-2.779-6.288C49.823,11.139,44.709,7.8,41.234,7.561A4,4,0,0,1,37.3,4.274,3.292,3.292,0,0,1,39.811.8,19.52,19.52,0,0,1,45.543,0c5.246,0,15.766,1.731,27.579,13.542l12.34,12.341-.75,1.084a5.439,5.439,0,0,0,.347,6.983,5.572,5.572,0,0,0,7.177.188l1.091-.834,5.691,5.712.181,4.46L84.843,57.826l-4.454-.174-5.746-5.747.979-1.1a5.235,5.235,0,0,0-7.108-7.685l-1.091.833-1.9-1.9a.436.436,0,0,0-.611,0l-26.5,26.522a.432.432,0,0,0-.125.243L37.928,71.4,20.556,88.767a.458.458,0,0,0-.125.257,4.232,4.232,0,0,1-.6,1.675c-.841,1.452-3.44,4.3-5.656,4.3A2.287,2.287,0,0,1,12.538,94.306Z" fill="#4c586e"/>
  </g>
</svg>
