<svg xmlns="http://www.w3.org/2000/svg" width="66.862" height="65" viewBox="0 0 66.862 65">
  <g id="insulation-01" transform="translate(0)">
    <path id="Shape" d="M2.873,16.7A9.776,9.776,0,1,1,9.78,19.556,9.776,9.776,0,0,1,2.873,16.7Z" transform="translate(14.987 15.006)" fill="#4c586e"/>
    <path id="Path" d="M2.289,0a2.284,2.284,0,1,0,2.28,2.28A2.284,2.284,0,0,0,2.289,0Z" transform="translate(22.481 22.499)" fill="#4c586e"/>
    <path id="Path-2" data-name="Path" d="M65.789,39.929H24.765a15.113,15.113,0,1,1,12.373-6.37,1.061,1.061,0,0,0,1.04,1.667,1.045,1.045,0,0,0,.687-.432,17.267,17.267,0,1,0-14.1,7.261H64.726v5.367H24.765a22.625,22.625,0,1,1,20.8-13.669,1.04,1.04,0,0,0,0,.817,1.062,1.062,0,0,0,1.959.028,24.774,24.774,0,1,0-22.75,14.95H65.794a1.068,1.068,0,0,0,1.063-1.063V40.992A1.068,1.068,0,0,0,65.789,39.929Z" transform="translate(0.005 0)" fill="#4c586e"/>
    <path id="Shape-2" data-name="Shape" d="M1.064,12.647A1.063,1.063,0,0,1,0,11.57V1.063A1.068,1.068,0,0,1,1.064,0h64.73a1.068,1.068,0,0,1,1.064,1.063V11.584a1.063,1.063,0,0,1-1.064,1.063Z" transform="translate(0 52.353)" fill="#4c586e"/>
  </g>
</svg>
