<svg id="landscaping-01" xmlns="http://www.w3.org/2000/svg" width="125" height="121.326" viewBox="0 0 125 121.326">
  <path id="Path" d="M2.413,31.947C-1.562,36.556.469,46.155.912,48.039c1.154,4.834,5.095,9.469,11.109,13.019a36.4,36.4,0,0,0,15.762,5.095V76.984a1.545,1.545,0,0,0,3.09,0V60.077l12.55-7.725a1.536,1.536,0,0,0,.694-.963A1.543,1.543,0,0,0,41.8,49.731L30.873,56.44V44.523l7.56-4.652a1.571,1.571,0,0,0,.694-.963,1.536,1.536,0,0,0-1.154-1.857,1.519,1.519,0,0,0-1.128.174l-5.937,3.654V31.149a1.545,1.545,0,0,0-3.09,0V47.77l-9.157-5.615a1.545,1.545,0,0,0-1.623,2.6l10.745,6.614V63.088c-9.547-.582-21.889-7.49-23.859-15.77-.868-3.6-1.649-10.476.868-13.349,1.649-1.909,1.337-4.27,1-6.779s-.712-5.355.634-8.584C8.6,13.269,11.674,7.576,17.342,5.805c1.258-.391,8.323-2.144,9.547-2.352,6.345-1.068,9.756.347,13.835,3.315,4.661,3.385,7.117,6.813,7.308,10.181.182,3.2,1.736,5.529,3.159,7.586l.226.33c.443.642.937,1.371,1.389,2.126,3.072,5.121,2.725,12.056-1.206,23.972-1.536,5.763-7.811,10.207-16.326,11.6a1.547,1.547,0,1,0,.495,3.055c9.756-1.6,16.951-6.883,18.782-13.774,4.235-12.8,4.487-20.466.868-26.454-.495-.825-1.015-1.588-1.475-2.265l-.226-.33c-1.51-2.222-2.5-3.836-2.6-6.023-.243-4.34-3.133-8.549-8.575-12.507C37.885.884,33.754-.843,26.368.407,24.91.65,17.689,2.464,16.43,2.854,9.487,5,6.015,11.421,3.524,17.418c-1.666,4-1.215,7.429-.868,10.181C2.995,29.829,3.116,31.149,2.413,31.947Z" transform="translate(34.326)" fill="#4c586e"/>
  <path id="Path-2" data-name="Path" d="M2.1,3.974c1.736-.512,2.2-.616,2.335-.642C8.557,2.655,14.519,4.825,18.607,8.5c2.8,2.517,4.27,5.294,4.131,7.811-.165,2.855,1,4.886,2.014,6.683,4.279,7.577,4.418,15.293.425,24.3-1.736,4.47-7.5,6.258-15.675,7.577a1.649,1.649,0,0,0,.26,3.281h.26C17.531,56.944,25.75,55.1,28.25,48.6c4.34-9.851,4.166-18.747-.608-27.184-1.024-1.814-1.684-3.125-1.588-4.878C26.245,13,24.4,9.286,20.847,6.127,15.995,1.787,9.043-.678,3.939.164A23.677,23.677,0,0,0,1.179.9,1.606,1.606,0,0,0,.2,1.7,1.649,1.649,0,0,0,2.134,4.061Z" transform="translate(88.703 14.329)" fill="#4c586e"/>
  <path id="Path-3" data-name="Path" d="M15.335,16.987a1.666,1.666,0,0,0,1.658-1.658V1.538a1.658,1.658,0,0,0-3.307,0V6.824A28.807,28.807,0,0,1,2.4,3.56a1.649,1.649,0,0,0-2.222.712A1.666,1.666,0,0,0,.893,6.5,32.113,32.113,0,0,0,13.7,10.13v5.208a1.658,1.658,0,0,0,1.632,1.649Z" transform="translate(78.401 62.948)" fill="#4c586e"/>
  <path id="Path-4" data-name="Path" d="M11.67.014a1.666,1.666,0,0,0-1.033.738c-2.508,4-5.789,6.5-9.226,7.022a1.649,1.649,0,0,0,.252,3.281,1.146,1.146,0,0,0,.243,0c4.409-.668,8.506-3.7,11.535-8.532A1.658,1.658,0,0,0,11.7.032Z" transform="translate(31.474 62.684)" fill="#4c586e"/>
  <path id="Path-5" data-name="Path" d="M123.888,7.315C110,2.272,98.553-.688,84.31.137c-12.1.694-23.365,3.524-34.266,6.258-16.725,4.2-32.53,8.167-47.884,3.116a1.632,1.632,0,0,0-1.258.1,1.658,1.658,0,0,0,.226,3.046,52.5,52.5,0,0,0,16.621,2.526c10.806,0,21.637-2.717,33.1-5.589C61.6,6.89,72.715,4.095,84.5,3.418c13.679-.781,24.779,2.092,38.25,6.943a1.684,1.684,0,0,0,1.267-.052,1.64,1.64,0,0,0,.868-.937,1.606,1.606,0,0,0-.052-1.267,1.623,1.623,0,0,0-.946-.79Z" transform="translate(0.008 88.008)" fill="#4c586e"/>
  <path id="Path-6" data-name="Path" d="M117.015,2.623C105.176-1.014,89.692-.441,79.6,1.755,68.992,4.037,59.107,7.691,49.533,11.163,33.043,17.186,17.42,22.889,1.954,20.016a1.655,1.655,0,0,0-.608,3.255,50.713,50.713,0,0,0,9.191.825c13.236,0,26.307-4.774,40.133-9.834C60.122,10.79,69.895,7.231,80.3,4.983c11.622-2.517,25.986-2.2,35.75.807A1.658,1.658,0,0,0,118.108,4.7,1.623,1.623,0,0,0,118,3.438,1.649,1.649,0,0,0,117.015,2.623Z" transform="translate(6.795 97.231)" fill="#4c586e"/>
  <path id="Path-7" data-name="Path" d="M17.947,47.054v7.152a1.658,1.658,0,1,0,3.307,0V39.251a1.658,1.658,0,0,0-3.307,0V43.73c-5.911-.807-10.9-4.739-11.917-8.037-2.986-8.1-3.472-12.785-1.788-16.2.26-.5.529-.972.807-1.458l.122-.217a10.511,10.511,0,0,0,1.814-5.546c0-2.161,1.363-4.34,4.1-6.6,2.413-1.97,4.34-2.847,8.28-2.144.417.069,2.248.529,4.079,1.015a1.653,1.653,0,1,0,.851-3.194c-1.2-.312-3.654-.955-4.34-1.076C14.857-.6,11.984.68,9.007,3.111,5.449,5.975,3.661,9.064,3.678,12.276a7.412,7.412,0,0,1-1.354,3.9L2.2,16.39c-.3.512-.6,1.05-.868,1.623C-.835,22.352-.4,27.768,2.941,36.751,4.442,41.785,11,46.247,17.947,47.054Z" transform="translate(8.958 26.684)" fill="#4c586e"/>
  <path id="Path-8" data-name="Path" d="M.945,3.171c15.692,7.49,31.4,5.407,48.048,3.2C60.277,4.881,71.9,3.345,84.336,4.638c12.915,1.363,28.008,6.423,38.4,10.415a1.554,1.554,0,0,0,.59.113,1.658,1.658,0,0,0,1.519-2.317,1.632,1.632,0,0,0-.92-.868C113.351,7.9,97.954,2.746,84.683,1.34,71.864-.014,60.025,1.557,48.543,3.076,32.408,5.211,17.176,7.225,2.36.16a1.649,1.649,0,0,0-2.2.781A1.623,1.623,0,0,0,.095,2.2,1.658,1.658,0,0,0,.945,3.171Z" transform="translate(0 78.491)" fill="#4c586e"/>
</svg>
