<svg id="length-01" xmlns="http://www.w3.org/2000/svg" width="55" height="41.328" viewBox="0 0 55 41.328">
  <path id="Shape" d="M0,9.075A9.075,9.075,0,1,1,9.075,18.15,9.074,9.074,0,0,1,0,9.075Z" transform="translate(9.083 9.136)" fill="#4c586e"/>
  <path id="Shape-2" data-name="Shape" d="M0,2.8A2.8,2.8,0,1,1,2.8,5.6,2.8,2.8,0,0,1,0,2.8Z" transform="translate(27.347 27.282)" fill="#4c586e"/>
  <path id="Shape-3" data-name="Shape" d="M51.125,41.328a.817.817,0,0,1-.817-.817v-4.07H26a.877.877,0,0,1-.168,0H12.227C5.487,36.441,0,31.906,0,26.335V16.782a5.6,5.6,0,0,1,.042-.837A8.325,8.325,0,0,1,0,14.925,13.745,13.745,0,0,1,5.38,4.314,20.315,20.315,0,0,1,18.158,0,20.421,20.421,0,0,1,30.95,4.314a15.544,15.544,0,0,1,3.355,3.76c.89.737,5.816,5.017,6.282,11.2.149,1.972-2.778,2.84-4.269,3.148v4.689H54.205a.817.817,0,0,1,.795.8V40.511a.817.817,0,0,1-.817.817Z" transform="translate(0 0)" fill="#4c586e"/>
</svg>
