<svg id="Metal-01" xmlns="http://www.w3.org/2000/svg" width="125" height="84.358" viewBox="0 0 125 84.358">
  <path id="Shape" d="M107.025,75.929V67.7h-.06a4.788,4.788,0,0,0-.92-.139h-.1a4.315,4.315,0,0,0-.868-.061h-.13a5.829,5.829,0,0,0-.868,0H103.9a5.2,5.2,0,0,0-.868.183l-1.216.347-.329.087-.807.174-.382.1-.617.148-.374.086-.538.113-.338.069-.486.086h-.3l-.46.069h-.243l-.556.052H94.379l-.192-.043-.2-.052-.183-.052-.183-.06-.173-.061-.174-.069-.174-.078v7.335a1.276,1.276,0,0,1-2.552,0V67.717h-.06a3.9,3.9,0,0,0-.868-.139h-.112a4.32,4.32,0,0,0-.869-.061H88.5a5.827,5.827,0,0,0-.868,0h-.182a5.4,5.4,0,0,0-.868.183h-.1l-1.1.321-.382.1-.677.139-.4.1-.6.148-.382.087-.529.112-.347.069-.477.078-.3.052-.46.06h-.243l-.547.052H78.007l-.183-.043-.208-.052-.174-.052-.191-.06-.174-.061-.174-.069-.165-.078v7.335a1.276,1.276,0,0,1-2.552,0V67.665h-.06a4.967,4.967,0,0,0-.921-.139h-.1a4.32,4.32,0,0,0-.868-.061H72.1a5.827,5.827,0,0,0-.868,0h-.182a5.1,5.1,0,0,0-.868.183h-.1l-1.111.321-.373.1-.729.2-.391.1-.608.148-.373.086-.538.113-.339.069-.486.086h-.3l-.468.069h-.235l-.555.052H61.557l-.243-.017-.2-.052-.183-.052-.182-.06-.174-.061-.183-.069-.165-.078v7.335a1.285,1.285,0,0,1-2.569,0V67.648H57.6a4.873,4.873,0,0,0-.92-.139h-.1a4.189,4.189,0,0,0-.868-.061h-.121a6.069,6.069,0,0,0-.868,0h-.174a6.3,6.3,0,0,0-.868.174l-.2.052-1.007.286-.391.113-.712.191-.4.1-.608.148-.373.086-.538.113-.338.069-.486.086h-.3l-.469.069h-.234l-.555.052H45.064l-.217-.017-.2-.052-.183-.052-.182-.06-.174-.061-.174-.069-.174-.078v7.335a1.3,1.3,0,0,1-2.6,0V67.648h-.06a4.786,4.786,0,0,0-.921-.139H40.1a4.275,4.275,0,0,0-.868-.061h-.122a5.817,5.817,0,0,0-.868,0h-.183a6.069,6.069,0,0,0-.868.174L37,67.674l-1.016.286-.382.1-.721.2-.391.1-.616.148-.365.086-.546.113-.33.069-.5.086h-.286l-.477.069H31.14l-.555.052H28.571l-.234-.017-.191-.052-.191-.052-.174-.06-.183-.061-.156-.069-.192-.078v7.335a1.276,1.276,0,1,1-2.552,0V67.665h-.061a4.958,4.958,0,0,0-.92-.139h-.113a4.307,4.307,0,0,0-.868-.061h-.13a6.067,6.067,0,0,0-.868,0h-.174a5.3,5.3,0,0,0-.868.183L19.491,68l-.347.086-.755.209-.382.1-.616.148-.374.086-.538.113-.338.069-.486.086h-.3l-.469.069h-.235l-.564.052H12.086l-.2-.043-.192-.052-.182-.052-.174-.06-.191-.061-.157-.069-.182-.078v7.335a1.276,1.276,0,0,1-2.552,0V67.665a8.508,8.508,0,0,0-3.993,0q-1.432.452-2.682.825a1.228,1.228,0,0,1-.3,0,1.273,1.273,0,0,1-.312-2.509c.755-.191,1.615-.425,2.543-.7A10.4,10.4,0,0,1,8.232,65.1V49.037H8.154a4.632,4.632,0,0,0-.868-.139H7.173a4.267,4.267,0,0,0-.868-.061H6.175a7.75,7.75,0,0,0-.868,0H5.134a5.4,5.4,0,0,0-.869.183c-.946.277-1.84.52-2.76.712a1.157,1.157,0,0,1-.3,0,1.231,1.231,0,0,1-.738-.252A1.272,1.272,0,0,1,.221,49.2a1.361,1.361,0,0,1-.166-.365,1.277,1.277,0,0,1,.929-1.545c.755-.191,1.606-.425,2.543-.7a2.94,2.94,0,0,1,.738-.174l.3-.034.512-.078H7.633l.608.113V30.295H8.18a5.442,5.442,0,0,0-.92-.13h-.1L6.3,30.113h-.13a7.172,7.172,0,0,0-.868.052H5.125a6.321,6.321,0,0,0-.868.182c-.921.286-1.84.529-2.657.729a1.021,1.021,0,0,1-.277,0h-.07a1.512,1.512,0,0,1-.346-.06,1.145,1.145,0,0,1-.321-.174H.533a1.234,1.234,0,0,1-.252-.269v-.052a1.258,1.258,0,0,1-.165-.365,1.285,1.285,0,0,1,.929-1.545c.807-.191,1.675-.425,2.543-.7.252-.069.5-.122.738-.174h.225l.53-.069H7.6l.66.086V11.693a8.508,8.508,0,0,0-3.993,0q-1.432.451-2.6.746A1.282,1.282,0,1,1,.984,9.966c.755-.192,1.615-.426,2.543-.7a10.428,10.428,0,0,1,4.722-.174V1.276a1.276,1.276,0,0,1,2.552,0V9.783l.1.043.443.226c1.258.634,2.231,1.129,8.681-.781a7.124,7.124,0,0,1,.738-.183l.217-.008L21.5,9h2.6l.643.086V1.276a1.276,1.276,0,0,1,2.552,0V9.783l.1.043.443.226c1.267.634,2.239,1.129,8.681-.781.251-.078.494-.13.737-.183l.2-.008A1.25,1.25,0,0,1,37.981,9h2.587l.643.086V1.276a1.276,1.276,0,0,1,2.551,0V9.809h.087l.451.234a4.18,4.18,0,0,0,2.37.564,27.049,27.049,0,0,0,6.285-1.345c.243-.078.495-.13.738-.182h.217A1.289,1.289,0,0,1,54.447,9h2.588l.642.086V1.276a1.268,1.268,0,0,1,2.535,0V9.809h.077l.461.234a4.162,4.162,0,0,0,2.37.564A27.256,27.256,0,0,0,69.4,9.262a6.9,6.9,0,0,1,.738-.182h.217A1.246,1.246,0,0,1,70.889,9h2.6l.643.086V1.276a1.276,1.276,0,1,1,2.551,0v8.49h.078l.452.234.269.131c1.137.6,2.4.868,8.385-.869.251-.078.5-.13.738-.182h.217L87.356,9h2.587l.643.086V1.276a1.276,1.276,0,1,1,2.552,0V9.809h.087l.451.234.556.243c1.093.469,2.6.608,8.124-1.032a6.955,6.955,0,0,1,.738-.183h.217l.53-.078h2.578l.66.1V1.276a1.276,1.276,0,0,1,2.552,0v8.49l.538.269c1.015.538,1.858.972,6.076-.078a1.283,1.283,0,1,1,.652,2.482c-4.184,1.042-5.816.816-7.266.174V28.481h.06l.478.235c1.015.547,1.858.972,6.076-.078a1.276,1.276,0,1,1,.617,2.474l-.746.182-.356.078-.338.069-.355.07-.287.06-.338.052h-.251l-.339.043h-1.615a4.217,4.217,0,0,1-.477,0h-.564l-.3-.052h-.1l-.365-.086h-.078l-.269-.087-.121-.043-.217-.086-.112-.052V47.127h.069l.469.234c1.015.538,1.858.973,6.076-.077a1.276,1.276,0,1,1,.6,2.465l-.755.182h-.078l-.617.13h-.139l-.5.1h-.209l-.382.06h-2.986a.66.66,0,0,0-.312-.052h-.087l-.374-.1h-.052l-.286-.1h-.113l-.226-.1h-.113V65.755l.538.261c1.015.546,1.858.981,6.076-.069a1.276,1.276,0,0,1,1.545.92,1.293,1.293,0,0,1-.929,1.553,19.686,19.686,0,0,1-4.61.721,6.235,6.235,0,0,1-2.656-.547v7.335a1.276,1.276,0,0,1-2.552,0Z" transform="translate(3.547 3.576)" fill="#4c586e"/>
  <path id="Shape-2" data-name="Shape" d="M1.276,84.358A1.276,1.276,0,0,1,0,83.082V1.276A1.276,1.276,0,0,1,1.276,0H123.724A1.276,1.276,0,0,1,125,1.276V83.082a1.276,1.276,0,0,1-1.276,1.276Z" transform="translate(0 0)" fill="#4c586e"/>
</svg>
