<svg xmlns="http://www.w3.org/2000/svg" width="55" height="35.375" viewBox="0 0 55 35.375">
  <g id="multiple-projects-01" transform="translate(0 0)">
    <path id="Shape" d="M.562,34.413A.561.561,0,0,1,0,33.852V17.359a.552.552,0,0,1,.111-.332L7.421,7.119V.562A.561.561,0,0,1,7.983,0H18.535A.561.561,0,0,1,19.1.562v1.65H35.9V.562A.562.562,0,0,1,36.449,0H47.032a.561.561,0,0,1,.562.562V7.127l.447.608a.561.561,0,0,1-.9.668l-.557-.763a.559.559,0,0,1-.111-.337V1.123H37.026V2.192h4.583a.562.562,0,0,1,0,1.123H37.026v.5a.562.562,0,0,1-1.123,0V3.3H19.1V7.119l7.33,9.9a.573.573,0,0,1,.107.332v1.528H53.877V17.543l-3.036-4.114a.561.561,0,1,1,.9-.664l3.147,4.262a.552.552,0,0,1,.111.332V33.852a.561.561,0,0,1-.562.562Z" transform="translate(0 0.962)" fill="#4c586e"/>
    <path id="Shape-2" data-name="Shape" d="M5.779,19.2a.557.557,0,0,1-.26-.763,4.442,4.442,0,0,0,.454-1.356.532.532,0,0,1,0-.107,4.034,4.034,0,0,1,.691-2.2l-1.745-.818a3.441,3.441,0,0,1-2.15,2.41l-.165.073a17.807,17.807,0,0,0-1.527,2.116.56.56,0,0,1-.509.325.527.527,0,0,1-.237-.054.558.558,0,0,1-.271-.764,13.008,13.008,0,0,1,1.948-2.6,2.617,2.617,0,0,1,.31-.145,2.4,2.4,0,0,0,1.558-1.857l-.3-.141a1.171,1.171,0,0,1-.611-.668,1.149,1.149,0,0,1,.042-.909l.508-1.093a1.188,1.188,0,0,1,1.581-.573l1.681.788,3-6.417-.256-.119a.556.556,0,0,1-.317-.431L9.044,2.742a.548.548,0,0,1,.088-.382L10.518.252a.563.563,0,0,1,.707-.2L13.242,1a.563.563,0,0,1,.3.669l-.73,2.417a.561.561,0,0,1-.24.313l-.989.616a.554.554,0,0,1-.536.034l-.256-.119-2.983,6.4,1.684.787a1.2,1.2,0,0,1,.573,1.581l-.512,1.092a1.178,1.178,0,0,1-.672.612,1.155,1.155,0,0,1-.42.111,1.234,1.234,0,0,1-.5-.111l-.283-.134a3.17,3.17,0,0,0-.6,1.65,4.3,4.3,0,0,1-.554,2.029.562.562,0,0,1-.5.317A.547.547,0,0,1,5.779,19.2Z" transform="translate(40.769 0)" fill="#4c586e"/>
    <path id="Path" d="M5.405,13.373a.561.561,0,0,0,.279.073.569.569,0,0,0,.489-.283L8.182,9.618H8.2A4.219,4.219,0,0,0,11.932,7.14C13.5,4.29,11.78,2.583,11.707,2.51a.558.558,0,0,0-.882.134L9.576,4.917l-1.119.512L6.505,4.359,6.3,3.1,7.544.83a.031.031,0,0,0,0-.019A.134.134,0,0,0,7.567.757a.222.222,0,0,0,0-.053h0a.084.084,0,0,1,0-.031V.452a.248.248,0,0,0,0-.05.191.191,0,0,0,0-.05L7.544.3,7.513.257,7.479.215,7.441.173,7.4.139,7.353.1H7.307L7.25.043H7.212c-.1-.023-2.364-.5-3.926,2.349a4.221,4.221,0,0,0-.115,4.465l-3.086,5.5a.561.561,0,1,0,.978.55L3.908,7.758A.569.569,0,0,0,4.29,7.9a.558.558,0,0,0,.382-.97C3.526,5.852,3.373,4.5,4.244,2.911a3.306,3.306,0,0,1,1.83-1.7L5.233,2.74a.588.588,0,0,0-.061.359L5.455,4.81a.561.561,0,0,0,.283.4L8.174,6.548a.558.558,0,0,0,.5,0l1.528-.707a.565.565,0,0,0,.26-.241l.863-1.574a3.162,3.162,0,0,1-.382,2.555A3.02,3.02,0,0,1,7.288,8.354a.561.561,0,0,0-.306,1.077L5.195,12.609A.561.561,0,0,0,5.405,13.373Z" transform="translate(30.983 5.422)" fill="#4c586e"/>
    <path id="Path-2" data-name="Path" d="M3.659,0H.561a.561.561,0,1,0,0,1.123h3.1A.561.561,0,1,0,3.659,0Z" transform="translate(48.453 25.326)" fill="#4c586e"/>
    <path id="Path-3" data-name="Path" d="M7.055,0H.561a.561.561,0,0,0,0,1.123H7.055A.561.561,0,0,0,7.055,0Z" transform="translate(29.097 31.01)" fill="#4c586e"/>
    <path id="Shape-3" data-name="Shape" d="M.254,1.48a.867.867,0,1,1,.613.254A.867.867,0,0,1,.254,1.48Z" transform="translate(12.302 3.017)" fill="#4c586e"/>
    <path id="Shape-4" data-name="Shape" d="M3.064,11.791a.566.566,0,0,1-.329-.725,4.821,4.821,0,0,0,.3-2.479L1.509,7.872a1.48,1.48,0,0,0-.553.462.562.562,0,0,1-.879-.683A2.732,2.732,0,0,1,.764,7.02L.115,4.58a.565.565,0,0,1,0-.337L1.536.374A.566.566,0,0,1,1.85.046a.586.586,0,0,1,.455,0l6.321,3a.564.564,0,0,1,.241.794L6.757,7.394a.541.541,0,0,1-.245.2L4.168,8.655a6.017,6.017,0,0,1-.382,2.788.557.557,0,0,1-.523.382A.6.6,0,0,1,3.064,11.791Z" transform="translate(23.871 5.614)" fill="#4c586e"/>
    <path id="Path-4" data-name="Path" d="M6.138.561A.558.558,0,0,0,5.58,0H.561a.561.561,0,0,0,0,1.123H5.58A.558.558,0,0,0,6.138.561Z" transform="translate(2.391 20.399)" fill="#4c586e"/>
    <path id="Path-5" data-name="Path" d="M8.853,0H.561a.561.561,0,0,0,0,1.123H8.853A.561.561,0,1,0,8.853,0Z" transform="translate(6.997 30.433)" fill="#4c586e"/>
  </g>
</svg>
