<svg id="multiple-projects-011" xmlns="http://www.w3.org/2000/svg" width="125" height="80.078" viewBox="0 0 125 80.078">
  <path id="Shape" d="M1.276,78.125A1.276,1.276,0,0,1,0,76.85V39.409a1.247,1.247,0,0,1,.252-.754L16.866,16.162V1.274A1.275,1.275,0,0,1,18.142,0H42.126A1.275,1.275,0,0,1,43.4,1.274V5.02H81.6V1.274A1.275,1.275,0,0,1,82.839,0h24.053a1.275,1.275,0,0,1,1.276,1.274V16.18l1.016,1.379a1.275,1.275,0,0,1-2.049,1.517l-1.267-1.734a1.281,1.281,0,0,1-.252-.763V2.55H84.149V4.977H94.566a1.275,1.275,0,1,1,0,2.55H84.149V8.663a1.276,1.276,0,0,1-2.551,0V7.492H43.4v8.671L60.061,38.629a1.3,1.3,0,0,1,.243.754v3.469h62.144V39.826l-6.9-9.339a1.276,1.276,0,1,1,2.049-1.508l7.152,9.677a1.247,1.247,0,0,1,.252.754V76.85a1.276,1.276,0,0,1-1.276,1.275Z" transform="translate(0 1.953)" fill="#4c586e"/>
  <path id="Shape-2" data-name="Shape" d="M13.311,43.815a1.28,1.28,0,0,1-.676-.745,1.265,1.265,0,0,1,.077-1,10.04,10.04,0,0,0,1.047-3.094,1.227,1.227,0,0,1,0-.244A9.15,9.15,0,0,1,15.352,33.7l-4.02-1.866c-1.3,3.975-3.634,4.951-4.954,5.5L6,37.5a40.686,40.686,0,0,0-3.519,4.829,1.288,1.288,0,0,1-1.17.741,1.221,1.221,0,0,1-.546-.122,1.279,1.279,0,0,1-.691-.738A1.266,1.266,0,0,1,.14,41.208c.309-.653,3.484-5.4,4.487-5.944a6.246,6.246,0,0,1,.713-.331C6.422,34.489,8.05,33.818,8.93,30.7l-.695-.323A2.673,2.673,0,0,1,6.827,28.85a2.594,2.594,0,0,1,.1-2.074l1.17-2.493a2.725,2.725,0,0,1,1.548-1.4,2.756,2.756,0,0,1,2.094.094l3.871,1.8,6.916-14.642-.59-.271a1.275,1.275,0,0,1-.731-.985l-.369-2.615a1.233,1.233,0,0,1,.2-.872L24.229.574A1.3,1.3,0,0,1,25.856.122L30.5,2.274A1.278,1.278,0,0,1,31.2,3.8l-1.68,5.517a1.283,1.283,0,0,1-.554.715l-2.279,1.4a1.276,1.276,0,0,1-1.231.078l-.59-.27-6.872,14.6,3.88,1.8a2.717,2.717,0,0,1,1.32,3.608l-1.179,2.493a2.7,2.7,0,0,1-1.549,1.394,2.656,2.656,0,0,1-.968.253,2.852,2.852,0,0,1-1.161-.253l-.652-.305a7.2,7.2,0,0,0-1.373,3.766c.212,1.325-.695,3.443-1.275,4.628a1.294,1.294,0,0,1-1.161.724A1.269,1.269,0,0,1,13.311,43.815Z" transform="translate(90.82)" fill="#4c586e"/>
  <path id="Path" d="M12.159,31.081a1.232,1.232,0,0,0,.627.169,1.273,1.273,0,0,0,1.1-.657l4.52-8.238h.052c3.437,0,6.384-1.98,8.386-5.761C30.367,9.971,26.5,6,26.337,5.835a1.229,1.229,0,0,0-1.068-.357,1.257,1.257,0,0,0-.917.668l-2.81,5.282-2.518,1.19-4.391-2.486L14.17,7.2l2.8-5.273a.073.073,0,0,0,0-.044.316.316,0,0,0,.052-.124.532.532,0,0,0,0-.124h0a.2.2,0,0,1,0-.071V1.05a.6.6,0,0,0,0-.115.459.459,0,0,0,0-.115L16.971.7,16.9.6,16.825.5,16.739.4l-.086-.08-.112-.08h-.1L16.31.1h-.086C16.009.047,10.9-1.054,7.391,5.559,5.371,9.35,5.311,12.945,7.133,15.937L.19,28.72a1.342,1.342,0,0,0-.023,1.337,1.255,1.255,0,0,0,1.128.656A1.26,1.26,0,0,0,2.39,30l6.4-11.966a1.271,1.271,0,0,0,2.042-.493,1.326,1.326,0,0,0-.323-1.434c-2.578-2.5-2.921-5.646-.962-9.339a7.521,7.521,0,0,1,4.116-3.95l-1.89,3.551a1.407,1.407,0,0,0-.137.834l.636,3.977a1.3,1.3,0,0,0,.636.932l5.482,3.107a1.219,1.219,0,0,0,1.134,0l3.437-1.642a1.289,1.289,0,0,0,.584-.559l1.942-3.657a7.562,7.562,0,0,1-.859,5.939c-1.959,3.684-4.726,5.069-8.232,4.119a1.261,1.261,0,0,0-1.465.923,1.315,1.315,0,0,0,.778,1.58l-4.021,7.386A1.329,1.329,0,0,0,12.159,31.081Z" transform="translate(69.336 12.695)" fill="#4c586e"/>
  <path id="Path-2" data-name="Path" d="M7.62,0H1.169A1.086,1.086,0,0,0,0,.977a1.086,1.086,0,0,0,1.169.977H7.62A1.086,1.086,0,0,0,8.789.977,1.086,1.086,0,0,0,7.62,0Z" transform="translate(109.375 58.594)" fill="#4c586e"/>
  <path id="Path-3" data-name="Path" d="M16.282,0H1.3C.58,0,0,.437,0,.977s.58.977,1.3.977H16.282c.716,0,1.3-.437,1.3-.977S17,0,16.282,0Z" transform="translate(64.453 71.289)" fill="#4c586e"/>
  <path id="Shape-3" data-name="Shape" d="M.572,3.335a1.953,1.953,0,1,1,1.381.572A1.954,1.954,0,0,1,.572,3.335Z" transform="translate(27.344 6.836)" fill="#4c586e"/>
  <path id="Shape-4" data-name="Shape" d="M7.025,26.291a1.251,1.251,0,0,1-.753-1.618,10.488,10.488,0,0,0,.692-5.527l-3.5-1.593a3.4,3.4,0,0,0-1.27,1.031,1.314,1.314,0,0,1-1.694.1,1.229,1.229,0,0,1-.32-1.62,6.13,6.13,0,0,1,1.577-1.4L.264,10.211a1.226,1.226,0,0,1,0-.75L3.522.835A1.278,1.278,0,0,1,4.24.1,1.375,1.375,0,0,1,5.282.1l14.5,6.685a1.278,1.278,0,0,1,.674.767,1.228,1.228,0,0,1-.122,1l-4.835,7.929a1.243,1.243,0,0,1-.561.443L9.556,19.3a13.057,13.057,0,0,1-.876,6.217,1.275,1.275,0,0,1-1.2.851A1.4,1.4,0,0,1,7.025,26.291Z" transform="translate(53.711 13.672)" fill="#4c586e"/>
  <path id="Path-4" data-name="Path" d="M13.672.977a.875.875,0,0,0-.361-.69A1.437,1.437,0,0,0,12.43,0H1.251A1.139,1.139,0,0,0,0,.977a1.139,1.139,0,0,0,1.251.977H12.43a1.437,1.437,0,0,0,.881-.286.875.875,0,0,0,.361-.69Z" transform="translate(3.906 46.875)" fill="#4c586e"/>
  <path id="Path-5" data-name="Path" d="M20.2,0H1.281A1.16,1.16,0,0,0,0,.977a1.16,1.16,0,0,0,1.281.977H20.2A1.16,1.16,0,0,0,21.484.977,1.16,1.16,0,0,0,20.2,0Z" transform="translate(14.648 70.313)" fill="#4c586e"/>
</svg>
