<svg id="patio-01" xmlns="http://www.w3.org/2000/svg" width="39.84" height="39" viewBox="0 0 39.84 39">
  <path id="Shape" d="M7.455,35.869H5.77a.435.435,0,0,1-.435-.436V34.361H2.1v.832a.435.435,0,0,1-.87,0V27.112A41.19,41.19,0,0,0,.018,20.955.432.432,0,0,1,.439,20.4H2.218a.434.434,0,0,1,.433.382l.712,5.891H5.335V23.859a.438.438,0,0,1,.435-.436h9.278v-10.8H1.1a.435.435,0,0,1-.435-.436V8.784a.445.445,0,0,1,0-.069.434.434,0,0,1,.028-.1l.036-.066a.328.328,0,0,1,.05-.061.329.329,0,0,1,.058-.053l.031-.022L15.272.033,15.3.02,15.347,0h.031l.056,0h.132l.089.028.069.014L30.133,8.421l.048.033.033.028a.262.262,0,0,1,.028.027l.03.04.025.041.017.033v.108a.5.5,0,0,1,0,.052v3.408a.433.433,0,0,1-.433.446H15.932V23.423H25.2a.435.435,0,0,1,.435.436v2.81H26.9l.71-5.886a.437.437,0,0,1,.445-.385h1.782a.432.432,0,0,1,.418.554,42.013,42.013,0,0,0-1.21,6.157v8.084a.435.435,0,0,1-.87,0v-.832H25.641v1.072a.435.435,0,0,1-.435.436H23.521a.435.435,0,0,1-.435-.436V34.361H18.523v.832a.435.435,0,1,1-.868,0V27.109a.435.435,0,0,1,.432-.435h4.988v-.7H16.788v9.449a.432.432,0,0,1-.432.436H14.612a.435.435,0,0,1-.435-.436V25.979H7.9v.7h4.292a.439.439,0,0,1,.436.435v8.084a.435.435,0,0,1-.87,0v-.832H7.9v1.067a.43.43,0,0,1-.128.313.437.437,0,0,1-.31.128Z" transform="translate(5.057 3.132)" fill="#4c586e"/>
  <path id="Shape-2" data-name="Shape" d="M.353,2.057a1.2,1.2,0,1,1,.853.353A1.2,1.2,0,0,1,.353,2.057Z" transform="translate(34.021 3.367)" fill="#4c586e"/>
  <path id="Shape-3" data-name="Shape" d="M4.143,8.712V7.474A.468.468,0,0,1,4.2,7.247,2.691,2.691,0,0,1,3,6.745a.454.454,0,0,1-.119.205L2,7.826a.461.461,0,1,1-.654-.651L2.222,6.3a.453.453,0,0,1,.205-.12,2.662,2.662,0,0,1-.5-1.2.466.466,0,0,1-.228.059H.46a.46.46,0,0,1,0-.92H1.7a.44.44,0,0,1,.228.06,2.676,2.676,0,0,1,.5-1.211.467.467,0,0,1-.205-.116l-.873-.887a.463.463,0,0,1,0-.653.476.476,0,0,1,.652,0l.881.878a.427.427,0,0,1,.119.2,2.729,2.729,0,0,1,1.209-.5.468.468,0,0,1-.061-.227V.427a.463.463,0,0,1,.923,0v1.25a.452.452,0,0,1-.06.227,2.688,2.688,0,0,1,1.208.5.448.448,0,0,1,.12-.205l.875-.878a.478.478,0,0,1,.652,0A.46.46,0,0,1,8,1.651a.47.47,0,0,1-.133.328l-.878.876a.467.467,0,0,1-.213.108,2.686,2.686,0,0,1,.5,1.208.43.43,0,0,1,.228-.061H8.753a.46.46,0,0,1,0,.921H7.515a.444.444,0,0,1-.227-.059,2.716,2.716,0,0,1-.5,1.208.443.443,0,0,1,.205.12l.868.864a.458.458,0,0,1,0,.652.473.473,0,0,1-.652,0l-.876-.876a.482.482,0,0,1-.119-.205A2.7,2.7,0,0,1,5,7.247a.467.467,0,0,1,.06.227V8.712a.463.463,0,0,1-.923,0Z" transform="translate(30.626 0)" fill="#4c586e"/>
  <path id="Shape-4" data-name="Shape" d="M1.913,6.92a1.987,1.987,0,0,1,0-3.971H2a3.461,3.461,0,0,1,6.883.443,1.833,1.833,0,0,1-.69,3.528Z" transform="translate(0 1.261)" fill="#4c586e"/>
</svg>
