<svg id="replace-01" xmlns="http://www.w3.org/2000/svg" width="74" height="95" viewBox="0 0 74 95">
  <path id="Path" d="M1.653,49a1.647,1.647,0,0,0,1.653-1.641A33.6,33.6,0,0,1,37,13.909H48.347v5.173a1.661,1.661,0,0,0,3.306,0V5.177L69.779,20.356,51.66,35.5V28.4a1.647,1.647,0,0,0-1.653-1.641H37A20.781,20.781,0,0,0,22.332,32.83a1.641,1.641,0,0,0,.537,2.681,1.662,1.662,0,0,0,1.8-.357A17.389,17.389,0,0,1,37,30.046H48.347v8.981a1.647,1.647,0,0,0,.959,1.49,1.7,1.7,0,0,0,1.766-.236L73.41,21.59a1.627,1.627,0,0,0,0-2.508L51.071.391A1.663,1.663,0,0,0,49.3.152a1.641,1.641,0,0,0-.958,1.493v8.981H37A37.109,37.109,0,0,0,10.817,21.389,36.572,36.572,0,0,0,0,47.392,1.648,1.648,0,0,0,1.653,49Z" fill="#4c586e"/>
  <path id="Path-2" data-name="Path" d="M2.823.229A2.188,2.188,0,0,0,1.436.038,1.875,1.875,0,0,0,.28.7,1.253,1.253,0,0,0,.049,1.831c.1.353.207.711.317,1.064A1.868,1.868,0,0,0,2.173,4a2.2,2.2,0,0,0,.45-.042,1.842,1.842,0,0,0,1.128-.692A1.245,1.245,0,0,0,3.936,2.13c-.1-.323-.2-.645-.3-.968A1.541,1.541,0,0,0,2.823.229Z" transform="translate(0 54)" fill="#4c586e"/>
  <path id="Path-3" data-name="Path" d="M72.314,0a1.65,1.65,0,0,0-1.653,1.647,33.657,33.657,0,0,1-33.679,33.6,1.465,1.465,0,0,0-.39.053H25.355V30.236a1.653,1.653,0,0,0-3.305,0v13.6L4.2,28.859,22.05,13.876v6.879A1.656,1.656,0,0,0,23.7,22.408H36.712a1.658,1.658,0,0,0,.4-.059h.04A20.684,20.684,0,0,0,51.7,16.254a1.652,1.652,0,0,0-2.347-2.326,17.341,17.341,0,0,1-12.368,5.093,1.505,1.505,0,0,0-.39.053H25.355V10.3a1.653,1.653,0,0,0-.932-1.5,1.683,1.683,0,0,0-1.758.231L.587,27.567a1.65,1.65,0,0,0,0,2.523L22.645,48.618A1.676,1.676,0,0,0,23.716,49a1.538,1.538,0,0,0,.661-.152,1.647,1.647,0,0,0,.958-1.5V38.577H36.712a1.512,1.512,0,0,0,.4-.059h.046A36.89,36.89,0,0,0,74,1.647,1.65,1.65,0,0,0,72.314,0Z" transform="translate(0 46)" fill="#4c586e"/>
  <path id="Path-4" data-name="Path" d="M2.8.21A2.283,2.283,0,0,0,1.4.043,1.855,1.855,0,0,0,.265.729,1.224,1.224,0,0,0,.058,1.857c.1.322.192.645.281.967a1.547,1.547,0,0,0,.814.937,2.235,2.235,0,0,0,1,.239,2.735,2.735,0,0,0,.385-.03,1.535,1.535,0,0,0,1.42-1.791c-.1-.352-.2-.71-.311-1.062A1.571,1.571,0,0,0,2.8.21Z" transform="translate(70 38)" fill="#4c586e"/>
</svg>
