<svg xmlns="http://www.w3.org/2000/svg" width="123.711" height="124.999" viewBox="0 0 123.711 124.999">
  <g id="roofing-coating-01" transform="translate(0 0)">
    <path id="Shape" d="M.147,123.853a1.833,1.833,0,0,1,.391-2.015l27.41-27.314a43.19,43.19,0,0,1-8.87-8.775C11.936,76.2,8.765,65.923,10.155,56.784c2.042-13.526,7.958-19.121,16.811-23.6A20.851,20.851,0,1,1,61.89,31.172l.807.4c4,2.094,7.819,4.066,11.112,6.907a1.868,1.868,0,0,1,.2,2.606,1.9,1.9,0,0,1-2.606.2,55.639,55.639,0,0,0-10.426-6.42l-1.234-.652A20.85,20.85,0,0,1,29.52,36.038C21,40.173,15.689,45.073,13.865,57.3c-1.677,11,4.431,21.137,8.227,26.2,5.665,7.628,14.4,13.171,25.195,16.029a4.915,4.915,0,0,0,3.171-9.278h-.1a42.214,42.214,0,0,1-5.291-2.728C40.684,84.871,31.892,77.3,29.989,67.739a1.851,1.851,0,0,1,3.631-.721c1.2,6.037,5.647,10.955,8.393,13.5l78.5-78.188a1.882,1.882,0,0,1,3.2,1.311V123.149a1.85,1.85,0,0,1-1.85,1.85h-120A1.851,1.851,0,0,1,.147,123.853Z" fill="#4c586e"/>
  </g>
</svg>
