<svg id="roofing-vent-01" xmlns="http://www.w3.org/2000/svg" width="124.213" height="125" viewBox="0 0 124.213 125">
  <path id="Shape" d="M1.547,125a1.589,1.589,0,0,1-.868-2.891L33.232,99.4V50.3H29.69a1.588,1.588,0,1,1,0-3.168h9.748V38.768H29.69a1.589,1.589,0,1,1,0-3.177h9.748V27.161H29.69a1.588,1.588,0,1,1,0-3.168h9.748V15.625H29.69A1.589,1.589,0,0,1,28.1,14.072v-1.58A12.5,12.5,0,0,1,40.584,0H72.59A12.5,12.5,0,0,1,85.081,12.491v1.545a1.588,1.588,0,0,1-1.589,1.589H73.735v8.4h9.757a1.588,1.588,0,1,1,0,3.168H73.735v8.368h9.757a1.589,1.589,0,0,1,0,3.177H73.735v8.35h9.757a1.589,1.589,0,1,1,0,3.169H79.951V66.754l41.762-29.167a1.571,1.571,0,0,1,1.641-.112,1.587,1.587,0,0,1,.859,1.406v84.532A1.588,1.588,0,0,1,122.624,125Z" fill="#4c586e"/>
</svg>
