<svg xmlns="http://www.w3.org/2000/svg" width="147" height="65.137" viewBox="0 0 147 65.137">
  <g id="roofing-01" transform="translate(0 0)">
    <path id="Shape" d="M113.986,63.37a4.931,4.931,0,0,0-6.238,0,8.533,8.533,0,0,1-10.382,0,4.911,4.911,0,0,0-6.237,0,8.534,8.534,0,0,1-10.382,0,5,5,0,0,0-2.327-1.021,1.794,1.794,0,0,1-1.266.52H1.815a1.807,1.807,0,0,1-1.593-.939,1.842,1.842,0,0,1,.061-1.859L37.943.782l.132-.174.112-.132.337.2L38.27.4a.483.483,0,0,1,.112-.092,1.591,1.591,0,0,1,.2-.143l.215-.1.194-.061h.214a1.574,1.574,0,0,1,.276,0H107.6a1.8,1.8,0,0,1,1.532.847L147,60.4l-2.5,1.542v.317h-.377A4.721,4.721,0,0,0,141,63.37a8.514,8.514,0,0,1-10.382,0,4.93,4.93,0,0,0-6.237,0,8.523,8.523,0,0,1-10.392,0Z" transform="translate(0 0)" fill="#4c586e"/>
  </g>
</svg>
