<svg id="services-v2" xmlns="http://www.w3.org/2000/svg" width="131.3" height="143.5" viewBox="0 0 131.3 143.5">
  <g id="repair_00000121264657180441404750000005042258828979100076_" transform="translate(13.6 25.8)">
    <g id="Group">
      <path id="Path" d="M104.8,117.6h-35a1.793,1.793,0,0,1-1.8-1.8V88.2a1.8,1.8,0,0,1,3.6,0V114h33.2a1.9,1.9,0,0,0,1.9-1.9V56.9a1.793,1.793,0,0,1,1.8-1.8h5.6V44.9L60.8,4.1a3.8,3.8,0,0,0-4.1,0L3.5,44.9V55.2H9.1A1.793,1.793,0,0,1,10.9,57v55.2a1.9,1.9,0,0,0,1.9,1.9H46V88.3a1.8,1.8,0,1,1,3.6,0v27.6a1.793,1.793,0,0,1-1.8,1.8h-35a5.378,5.378,0,0,1-5.4-5.4V58.7H1.8A1.793,1.793,0,0,1,0,56.9V44.1a1.91,1.91,0,0,1,.7-1.4l54-41.4a.1.1,0,0,0,.1-.1,7.434,7.434,0,0,1,8.1,0,.1.1,0,0,1,.1.1l54,41.4a1.75,1.75,0,0,1,.7,1.4V56.9a1.793,1.793,0,0,1-1.8,1.8h-5.6v53.4A5.616,5.616,0,0,1,104.8,117.6Z" fill="#4c586e"/>
      <path id="Path-2" data-name="Path" d="M24,25.7a1.793,1.793,0,0,1-1.8-1.8V3.6H3.6V9.2A1.8,1.8,0,1,1,0,9.2V1.8A1.793,1.793,0,0,1,1.8,0H23.9a1.793,1.793,0,0,1,1.8,1.8V23.9A1.774,1.774,0,0,1,24,25.7Z" transform="translate(84.5 1.7)" fill="#4c586e"/>
    </g>
    <path id="Path-3" data-name="Path" d="M33.1,47.514a1.948,1.948,0,0,1-1.7-1.2,1.755,1.755,0,0,1,1.1-2.2,22.03,22.03,0,0,0,15.3-21.1,21.92,21.92,0,0,0-9.4-18.1v16.3a1.656,1.656,0,0,1-.5,1.2l-5.5,5.5a1.845,1.845,0,0,1-1.2.5h-11a1.656,1.656,0,0,1-1.2-.5l-5.5-5.5a1.845,1.845,0,0,1-.5-1.2V4.914a22.169,22.169,0,0,0,5.9,39.2,1.739,1.739,0,0,1-1.1,3.3,25.674,25.674,0,0,1-4-47.2,1.514,1.514,0,0,1,1.7.1,1.763,1.763,0,0,1,.8,1.5v18.6l4.5,4.5h9.6l4.5-4.5V1.814a1.763,1.763,0,0,1,.8-1.5,2.03,2.03,0,0,1,1.7-.1,25.674,25.674,0,0,1-4,47.2C33.4,47.514,33.2,47.514,33.1,47.514Z" transform="translate(33.1 43.086)" fill="#4c586e"/>
  </g>
  <path id="Path-4" data-name="Path" d="M7.3,3.6H1.8A1.8,1.8,0,0,1,1.8,0H7.3A1.793,1.793,0,0,1,9.1,1.8,1.859,1.859,0,0,1,7.3,3.6Z" transform="translate(0 31.2)" fill="#4c586e"/>
  <path id="Path-5" data-name="Path" d="M1.8,143.4A1.793,1.793,0,0,1,0,141.6V1.8A1.793,1.793,0,0,1,1.8,0H31.2A1.793,1.793,0,0,1,33,1.8V45.6a1.8,1.8,0,1,1-3.6,0V3.5H3.5V141.6A1.774,1.774,0,0,1,1.8,143.4Z" fill="#4c586e"/>
  <path id="Path-6" data-name="Path" d="M11,3.6H1.8A1.8,1.8,0,0,1,1.8,0H11a1.793,1.793,0,0,1,1.8,1.8A1.933,1.933,0,0,1,11,3.6Z" transform="translate(0 53.3)" fill="#4c586e"/>
  <path id="Path-7" data-name="Path" d="M7.3,3.6H1.8A1.8,1.8,0,0,1,1.8,0H7.3a1.8,1.8,0,1,1,0,3.6Z" transform="translate(0 75.4)" fill="#4c586e"/>
  <path id="Path-8" data-name="Path" d="M11,3.6H1.8A1.8,1.8,0,0,1,1.8,0H11a1.793,1.793,0,0,1,1.8,1.8A1.859,1.859,0,0,1,11,3.6Z" transform="translate(0 97.4)" fill="#4c586e"/>
  <path id="Path-9" data-name="Path" d="M7.3,3.6H1.8A1.8,1.8,0,0,1,1.8,0H7.3a1.8,1.8,0,1,1,0,3.6Z" transform="translate(0 119.2)" fill="#4c586e"/>
  <path id="Path-10" data-name="Path" d="M11,3.6H1.8A1.8,1.8,0,0,1,1.8,0H11a1.793,1.793,0,0,1,1.8,1.8A1.933,1.933,0,0,1,11,3.6Z" transform="translate(0 139.8)" fill="#4c586e"/>
  <circle id="Oval" cx="3.7" cy="3.7" r="3.7" transform="translate(12.8 12.8)" fill="#4c586e"/>
</svg>
