<svg id="stairs-01" xmlns="http://www.w3.org/2000/svg" width="125.27" height="125" viewBox="0 0 125.27 125">
  <path id="Shape" d="M2.662,125A2.625,2.625,0,0,1,.27,123.408a2.59,2.59,0,0,1-.209-.949V106.88a5.455,5.455,0,0,1,3.306-4.993,5.515,5.515,0,0,1,2.113-.427h4.567a1.363,1.363,0,0,1,0-.192l.365-25.027-.992.574A6.276,6.276,0,0,1,.87,74.492,6.182,6.182,0,0,1,0,71.36a6.271,6.271,0,0,1,.809-3.08,6.189,6.189,0,0,1,2.323-2.34L40.947,44.105a1.74,1.74,0,0,1,.757-.435L115.874.87A6.292,6.292,0,0,1,119.006,0a6.431,6.431,0,0,1,3.123.818h-.035a6.263,6.263,0,0,1,.044,10.874l-9.186,5.3V45.854h7.542a3.835,3.835,0,0,1,2.114.644,3.753,3.753,0,0,1,1.374,1.67,3.8,3.8,0,0,1,.3,1.47v69.717A5.647,5.647,0,0,1,118.641,125Z" fill="#4c586e"/>
</svg>
