<svg id="windows" xmlns="http://www.w3.org/2000/svg" width="125" height="97.83" viewBox="0 0 125 97.83">
  <path id="Shape" d="M2.344,97.83A2.345,2.345,0,0,1,0,95.486V2.344A2.345,2.345,0,0,1,2.344,0H122.657A2.345,2.345,0,0,1,125,2.344V95.486a2.345,2.345,0,0,1-2.344,2.344Z" transform="translate(0 0)" fill="#4c586e"/>
  <path id="Shape-2" data-name="Shape" d="M2.205,77.986A2.217,2.217,0,0,1,0,75.79V2.205A2.209,2.209,0,0,1,2.205,0H48.194A2.208,2.208,0,0,1,50.4,2.205V75.781a2.207,2.207,0,0,1-2.205,2.205Z" transform="translate(9.783 9.922)" fill="#4c586e"/>
  <path id="Shape-3" data-name="Shape" d="M2.205,50.391A2.213,2.213,0,0,1,0,48.194V2.205A2.209,2.209,0,0,1,2.205,0H48.194A2.208,2.208,0,0,1,50.4,2.205V48.186a2.208,2.208,0,0,1-2.205,2.205Z" transform="translate(65.017 37.517)" fill="#4c586e"/>
  <path id="Path" d="M7.726,0H2.2a2.2,2.2,0,0,0,0,4.41H5.521v8.837a2.2,2.2,0,1,0,4.41,0V2.2A2.208,2.208,0,0,0,7.726,0Z" transform="translate(98.125 44.87)" fill="#4c586e"/>
  <path id="Path-2" data-name="Path" d="M7.726,0H2.2a2.2,2.2,0,0,0,0,4.41H5.521v8.837a2.2,2.2,0,1,0,4.41,0V2.2A2.212,2.212,0,0,0,7.726,0Z" transform="translate(42.899 17.283)" fill="#4c586e"/>
  <path id="Shape-4" data-name="Shape" d="M2.205,24.636A2.213,2.213,0,0,1,0,22.439V2.205A2.209,2.209,0,0,1,2.205,0H48.194A2.208,2.208,0,0,1,50.4,2.205V22.431a2.208,2.208,0,0,1-2.205,2.2Z" transform="translate(65.017 9.922)" fill="#4c586e"/>
</svg>
