<svg xmlns="http://www.w3.org/2000/svg" width="136.9" height="125" viewBox="0 0 136.9 125">
  <g id="windows-doors-01" transform="translate(0 0)">
    <path id="Shape" d="M49.224,124.964,5.4,113.62l-4.179.057a1.2,1.2,0,0,1-.859-.353A1.239,1.239,0,0,1,0,112.455V7.988A1.222,1.222,0,0,1,1.221,6.775H22.546L49.262.039a1.212,1.212,0,0,1,1.517,1.184V6.766H67.505a1.221,1.221,0,0,1,1.221,1.221V116.625a1.221,1.221,0,0,1-1.221,1.221H63.193a1.221,1.221,0,0,1-1.221-1.192V13.531H50.75v110.25a1.231,1.231,0,0,1-1.526,1.184Z" fill="#4c586e"/>
    <path id="Shape-2" data-name="Shape" d="M0,3.674A3.673,3.673,0,1,1,3.674,7.347,3.673,3.673,0,0,1,0,3.674Z" transform="translate(36.248 58.833)" fill="#4c586e"/>
    <path id="Shape-3" data-name="Shape" d="M1.174,49.109A1.174,1.174,0,0,1,0,47.936V1.184A1.183,1.183,0,0,1,1.192,0H61.561a1.184,1.184,0,0,1,1.155,1.184V47.936a1.174,1.174,0,0,1-1.174,1.174Z" transform="translate(74.184 5.859)" fill="#4c586e"/>
    <path id="Shape-4" data-name="Shape" d="M1.1,39.138A1.106,1.106,0,0,1,0,38.032V1.107A1.107,1.107,0,0,1,1.1,0H24.178a1.107,1.107,0,0,1,1.107,1.107V38.041a1.107,1.107,0,0,1-1.107,1.1Z" transform="translate(79.117 10.83)" fill="#4c586e"/>
    <path id="Shape-5" data-name="Shape" d="M1.107,25.285A1.107,1.107,0,0,1,0,24.188V1.107A1.107,1.107,0,0,1,1.107,0H24.178a1.107,1.107,0,0,1,1.107,1.107V24.188a1.107,1.107,0,0,1-1.107,1.1Z" transform="translate(106.825 24.684)" fill="#4c586e"/>
    <path id="Path" d="M3.874,0H1.107a1.107,1.107,0,1,0,0,2.214h1.66V6.641a1.107,1.107,0,1,0,2.214,0V1.107A1.107,1.107,0,0,0,3.874,0Z" transform="translate(123.436 28.377)" fill="#4c586e"/>
    <path id="Path-2" data-name="Path" d="M3.874,0H1.107a1.107,1.107,0,1,0,0,2.214h1.66V6.641a1.107,1.107,0,1,0,2.214,0V1.107A1.107,1.107,0,0,0,3.874,0Z" transform="translate(95.728 14.532)" fill="#4c586e"/>
    <path id="Shape-6" data-name="Shape" d="M1.107,12.375A1.106,1.106,0,0,1,0,11.268V1.107A1.106,1.106,0,0,1,1.107,0H24.178a1.107,1.107,0,0,1,1.107,1.107V11.268a1.107,1.107,0,0,1-1.107,1.107Z" transform="translate(106.825 10.83)" fill="#4c586e"/>
  </g>
</svg>
